<?xml version="1.0" encoding="utf-8"?>
<!-- Generator: Adobe Illustrator 25.0.0, SVG Export Plug-In . SVG Version: 6.00 Build 0)  -->
<svg version="1.1" id="Calque_1" xmlns="http://www.w3.org/2000/svg" xmlns:xlink="http://www.w3.org/1999/xlink" x="0px" y="0px"
	 viewBox="0 0 540 305" style="enable-background:new 0 0 540 305;" xml:space="preserve">
<style type="text/css">
	.st0{display:none;}
	.st1{display:inline;}
	.st2{display:inline;clip-path:url(#SVGID_2_);}
	.st3{fill:url(#SVGID_3_);}
	.st4{clip-path:url(#SVGID_5_);}
	.st5{fill:#FFFFFF;}
	.st6{fill-rule:evenodd;clip-rule:evenodd;fill:#FFFFFF;}
	.st7{fill:#D1D5DB;}
	.st8{clip-path:url(#SVGID_8_);}
	.st9{clip-path:url(#SVGID_9_);fill:#7D8398;fill-opacity:0.2;}
	.st10{fill:none;stroke:#7D8398;stroke-width:1.7672;stroke-linecap:round;stroke-linejoin:round;stroke-opacity:0.3;}
	.st11{fill:#1F2937;}
	.st12{fill:none;stroke:#7D8398;stroke-width:0.8836;stroke-opacity:0.3;}
	.st13{fill:none;stroke:#111827;stroke-width:1.7672;stroke-linecap:round;stroke-linejoin:round;}
	.st14{fill:#111827;}
	.st15{clip-path:url(#SVGID_11_);}
	.st16{display:none;opacity:0.2;}
	.st17{display:inline;fill:url(#SVGID_12_);}
	.st18{display:inline;fill:url(#SVGID_13_);}
	.st19{display:inline;fill:url(#SVGID_14_);}
	.st20{display:inline;fill:url(#SVGID_15_);}
	.st21{display:inline;fill:url(#SVGID_16_);}
	.st22{display:inline;fill:url(#SVGID_17_);}
	.st23{display:inline;fill:url(#SVGID_18_);}
	.st24{display:inline;fill:url(#SVGID_19_);}
	.st25{display:inline;fill:url(#SVGID_20_);}
	.st26{display:inline;fill:url(#SVGID_21_);}
	.st27{display:inline;fill:url(#SVGID_22_);}
	.st28{display:inline;fill:url(#SVGID_23_);}
	.st29{display:inline;fill:url(#SVGID_24_);}
	.st30{display:inline;fill:url(#SVGID_25_);}
	.st31{display:inline;fill:url(#SVGID_26_);}
	.st32{display:inline;fill:url(#SVGID_27_);}
	.st33{display:inline;fill:url(#SVGID_28_);}
	.st34{display:inline;fill:url(#SVGID_29_);}
	.st35{display:inline;fill:url(#SVGID_30_);}
	.st36{display:inline;fill:url(#SVGID_31_);}
	.st37{display:inline;fill:url(#SVGID_32_);}
	.st38{opacity:0.6;}
	.st39{opacity:0.58;fill:#66C5EE;}
	.st40{opacity:0.64;fill:#66C5EE;}
	.st41{opacity:0.81;fill:#66C5EE;}
	.st42{opacity:0.91;fill:#66C5EE;}
	.st43{opacity:0.72;fill:#66C5EE;}
	.st44{opacity:0.52;fill:#66C5EE;}
	.st45{opacity:0.79;fill:#66C5EE;}
	.st46{opacity:0.37;fill:#66C5EE;}
	.st47{opacity:0.46;fill:#66C5EE;}
	.st48{opacity:0.54;fill:#66C5EE;}
	.st49{opacity:0.47;fill:#66C5EE;}
	.st50{opacity:0.43;fill:#66C5EE;}
	.st51{opacity:0.35;fill:#66C5EE;}
	.st52{opacity:0.73;fill:#66C5EE;}
	.st53{opacity:0.44;fill:#66C5EE;}
	.st54{opacity:0.31;fill:#66C5EE;}
	.st55{opacity:0.57;fill:#66C5EE;}
	.st56{opacity:0.38;fill:#66C5EE;}
	.st57{opacity:0.62;fill:#66C5EE;}
	.st58{opacity:0.28;fill:#66C5EE;}
	.st59{opacity:0.2;fill:#66C5EE;}
	.st60{opacity:0.51;fill:#66C5EE;}
	.st61{opacity:0.68;fill:#66C5EE;}
	.st62{opacity:0.66;fill:#66C5EE;}
	.st63{opacity:0.82;fill:#66C5EE;}
	.st64{opacity:0.87;fill:#66C5EE;}
	.st65{opacity:0.48;fill:#66C5EE;}
	.st66{opacity:0.67;fill:#66C5EE;}
	.st67{opacity:0.32;fill:#66C5EE;}
	.st68{opacity:0.85;fill:#66C5EE;}
	.st69{opacity:0.96;fill:#66C5EE;}
	.st70{opacity:0.22;fill:#66C5EE;}
	.st71{opacity:0.61;fill:#66C5EE;}
	.st72{opacity:0.94;fill:#66C5EE;}
	.st73{opacity:0.93;fill:#66C5EE;}
	.st74{opacity:0.71;fill:#66C5EE;}
	.st75{opacity:0.69;fill:#66C5EE;}
	.st76{fill:#66C5EE;}
	.st77{opacity:0.95;fill:#66C5EE;}
	.st78{opacity:0.4;fill:#66C5EE;}
	.st79{opacity:0.75;fill:#66C5EE;}
	.st80{opacity:0.76;fill:#66C5EE;}
	.st81{opacity:0.6;fill:#66C5EE;}
	.st82{opacity:0.65;fill:#66C5EE;}
	.st83{opacity:0.36;fill:#66C5EE;}
	.st84{opacity:0.23;fill:#66C5EE;}
	.st85{opacity:0.86;fill:#66C5EE;}
	.st86{opacity:0.7;fill:#66C5EE;}
	.st87{opacity:0.74;fill:#66C5EE;}
	.st88{display:none;fill:url(#SVGID_33_);}
	.st89{display:none;fill:url(#SVGID_34_);}
	.st90{display:none;fill:url(#SVGID_35_);}
	.st91{display:none;fill:url(#SVGID_36_);}
	.st92{display:none;fill:url(#SVGID_37_);}
	.st93{display:none;fill:url(#SVGID_38_);}
	.st94{display:none;fill:url(#SVGID_39_);}
	.st95{display:none;fill:url(#SVGID_40_);}
	.st96{display:none;fill:url(#SVGID_41_);}
	.st97{display:none;fill:url(#SVGID_42_);}
	.st98{display:none;fill:url(#SVGID_43_);}
</style>
<g class="st0">
	<defs>
		<path id="SVGID_1_" d="M0,12C0,5.4,5.4,0,12,0h528v305H0V12z"/>
	</defs>
	<clipPath id="SVGID_2_" class="st1">
		<use xlink:href="#SVGID_1_"  style="overflow:visible;"/>
	</clipPath>
	<g class="st2">
		
			<radialGradient id="SVGID_3_" cx="20.3006" cy="402.9331" r="1" gradientTransform="matrix(52.4999 301.9996 534.6888 -92.9508 -216316.0781 31423.6973)" gradientUnits="userSpaceOnUse">
			<stop  offset="0" style="stop-color:#7C3AED;stop-opacity:0.12"/>
			<stop  offset="1" style="stop-color:#7C3AED;stop-opacity:0"/>
		</radialGradient>
		<path class="st3" d="M0,12C0,5.4,5.4,0,12,0h528v305H0V12z"/>
		<g>
			<defs>
				<rect id="SVGID_4_" x="-11" width="551" height="305"/>
			</defs>
			<clipPath id="SVGID_5_">
				<use xlink:href="#SVGID_4_"  style="overflow:visible;"/>
			</clipPath>
			<g class="st4">
				<path class="st5" d="M78.9,28.7h3.4l3.5,8.6H86l3.5-8.6h3.4v12.9h-2.6v-8.4h-0.1l-3.3,8.3H85l-3.3-8.3h-0.1v8.4h-2.6V28.7z
					 M97.8,41.7c-0.6,0-1.2-0.1-1.6-0.3c-0.5-0.2-0.9-0.5-1.1-1c-0.3-0.4-0.4-1-0.4-1.6c0-0.5,0.1-1,0.3-1.3
					c0.2-0.4,0.5-0.7,0.8-0.9c0.3-0.2,0.7-0.4,1.2-0.5c0.4-0.1,0.9-0.2,1.4-0.2c0.6-0.1,1-0.1,1.4-0.2c0.3-0.1,0.6-0.1,0.7-0.2
					c0.2-0.1,0.2-0.3,0.2-0.5v0c0-0.4-0.1-0.7-0.4-0.9c-0.2-0.2-0.6-0.3-1.1-0.3c-0.5,0-0.9,0.1-1.1,0.3c-0.3,0.2-0.5,0.5-0.6,0.8
					l-2.5-0.2c0.1-0.6,0.4-1.1,0.7-1.5c0.4-0.4,0.8-0.8,1.4-1c0.6-0.2,1.3-0.4,2-0.4c0.5,0,1,0.1,1.5,0.2c0.5,0.1,0.9,0.3,1.3,0.6
					c0.4,0.3,0.7,0.6,0.9,1c0.2,0.4,0.3,0.9,0.3,1.5v6.5h-2.5v-1.3h-0.1c-0.2,0.3-0.4,0.6-0.6,0.8c-0.3,0.2-0.6,0.4-0.9,0.5
					C98.7,41.7,98.3,41.7,97.8,41.7z M98.6,39.9c0.4,0,0.7-0.1,1-0.2c0.3-0.2,0.5-0.4,0.7-0.6c0.2-0.3,0.3-0.6,0.3-0.9v-1
					c-0.1,0.1-0.2,0.1-0.3,0.2c-0.1,0-0.3,0.1-0.5,0.1c-0.2,0-0.4,0.1-0.5,0.1c-0.2,0-0.3,0-0.5,0.1c-0.3,0-0.6,0.1-0.8,0.2
					c-0.2,0.1-0.4,0.2-0.5,0.4c-0.1,0.2-0.2,0.4-0.2,0.6c0,0.4,0.1,0.6,0.4,0.8C97.8,39.8,98.2,39.9,98.6,39.9z M105.3,41.5v-9.6
					h2.7v9.6H105.3z M106.6,30.6c-0.4,0-0.7-0.1-1-0.4c-0.3-0.3-0.4-0.6-0.4-1c0-0.4,0.1-0.7,0.4-0.9c0.3-0.3,0.6-0.4,1-0.4
					c0.4,0,0.7,0.1,1,0.4c0.3,0.3,0.4,0.6,0.4,0.9c0,0.4-0.1,0.7-0.4,1C107.4,30.5,107,30.6,106.6,30.6z M112.8,28.7v12.9h-2.7V28.7
					H112.8z M119.3,45.3c-0.9,0-1.6-0.1-2.2-0.4c-0.6-0.2-1.1-0.6-1.5-1s-0.6-0.9-0.7-1.4l2.5-0.3c0.1,0.2,0.2,0.4,0.4,0.5
					c0.2,0.2,0.4,0.3,0.6,0.4c0.3,0.1,0.6,0.2,1,0.2c0.6,0,1.1-0.1,1.4-0.4c0.4-0.3,0.6-0.8,0.6-1.4v-1.8h-0.1
					c-0.1,0.3-0.3,0.5-0.5,0.8s-0.5,0.4-0.9,0.6c-0.4,0.2-0.8,0.2-1.3,0.2c-0.7,0-1.4-0.2-2-0.5c-0.6-0.3-1.1-0.9-1.4-1.5
					c-0.3-0.7-0.5-1.6-0.5-2.6c0-1.1,0.2-2,0.5-2.7c0.4-0.7,0.8-1.3,1.4-1.6c0.6-0.4,1.2-0.5,2-0.5c0.5,0,1,0.1,1.4,0.3
					c0.4,0.2,0.7,0.4,0.9,0.7c0.2,0.3,0.4,0.5,0.5,0.8h0.1v-1.6h2.7v9.7c0,0.8-0.2,1.5-0.6,2.1c-0.4,0.6-1,1-1.7,1.2
					C121,45.2,120.2,45.3,119.3,45.3z M119.3,39.4c0.4,0,0.8-0.1,1.1-0.3c0.3-0.2,0.5-0.5,0.7-0.9c0.2-0.4,0.2-0.9,0.2-1.5
					s-0.1-1.1-0.2-1.5c-0.2-0.4-0.4-0.7-0.7-1c-0.3-0.2-0.7-0.3-1.1-0.3c-0.4,0-0.8,0.1-1.1,0.4c-0.3,0.2-0.5,0.6-0.7,1
					c-0.2,0.4-0.2,0.9-0.2,1.4c0,0.6,0.1,1,0.2,1.4c0.2,0.4,0.4,0.7,0.7,0.9C118.5,39.3,118.9,39.4,119.3,39.4z M130.5,41.7
					c-1,0-1.8-0.2-2.5-0.6c-0.7-0.4-1.3-1-1.6-1.7c-0.4-0.7-0.6-1.6-0.6-2.6c0-1,0.2-1.9,0.6-2.6c0.4-0.7,0.9-1.3,1.6-1.7
					c0.7-0.4,1.6-0.6,2.5-0.6c1,0,1.8,0.2,2.5,0.6c0.7,0.4,1.3,1,1.6,1.7c0.4,0.7,0.6,1.6,0.6,2.6c0,1-0.2,1.9-0.6,2.6
					c-0.4,0.7-0.9,1.3-1.6,1.7C132.3,41.5,131.4,41.7,130.5,41.7z M130.5,39.6c0.4,0,0.8-0.1,1.1-0.4c0.3-0.3,0.5-0.6,0.7-1
					c0.2-0.4,0.2-0.9,0.2-1.5s-0.1-1.1-0.2-1.5c-0.2-0.4-0.4-0.8-0.7-1c-0.3-0.3-0.7-0.4-1.1-0.4c-0.4,0-0.8,0.1-1.1,0.4
					c-0.3,0.3-0.5,0.6-0.7,1c-0.1,0.4-0.2,0.9-0.2,1.5s0.1,1.1,0.2,1.5c0.2,0.4,0.4,0.8,0.7,1C129.7,39.5,130,39.6,130.5,39.6z"/>
				<path class="st6" d="M27.9,34c12.4,0,19.4-7.1,19.4-19.4c0,12.4,7.1,19.4,19.4,19.4c-12.4,0-19.4,7.1-19.4,19.4
					C47.3,41.1,40.2,34,27.9,34z"/>
				<path class="st7" d="M197.3,39h-3.2V28.7h3.3c1,0,1.9,0.2,2.6,0.6c0.7,0.4,1.3,1,1.6,1.8c0.4,0.8,0.6,1.7,0.6,2.7
					c0,1.1-0.2,2-0.6,2.8c-0.4,0.8-0.9,1.4-1.7,1.8C199.3,38.8,198.4,39,197.3,39z M195.4,37.9h1.8c0.8,0,1.6-0.2,2.1-0.5
					c0.6-0.3,1-0.8,1.3-1.4c0.3-0.6,0.4-1.3,0.4-2.2c0-0.8-0.1-1.5-0.4-2.1c-0.3-0.6-0.7-1.1-1.2-1.4c-0.5-0.3-1.2-0.5-2-0.5h-2
					V37.9z M206.4,39.2c-0.5,0-0.9-0.1-1.3-0.3c-0.4-0.2-0.7-0.5-0.9-0.8c-0.2-0.4-0.4-0.8-0.4-1.3c0-0.4,0.1-0.8,0.3-1.1
					c0.2-0.3,0.4-0.5,0.7-0.7s0.6-0.3,1-0.4c0.4-0.1,0.7-0.1,1.1-0.2c0.5-0.1,0.8-0.1,1.1-0.1c0.3,0,0.5-0.1,0.6-0.2
					c0.1-0.1,0.2-0.2,0.2-0.4v0c0-0.5-0.1-0.9-0.4-1.2c-0.3-0.3-0.7-0.4-1.2-0.4c-0.6,0-1,0.1-1.3,0.4c-0.3,0.2-0.5,0.5-0.7,0.8
					L204,33c0.2-0.5,0.5-0.8,0.8-1.1c0.3-0.3,0.7-0.4,1.1-0.6c0.4-0.1,0.8-0.2,1.2-0.2c0.2,0,0.5,0,0.9,0.1c0.3,0.1,0.6,0.2,0.9,0.4
					c0.3,0.2,0.6,0.5,0.8,0.8c0.2,0.4,0.3,0.9,0.3,1.5V39h-1.2v-1h-0.1c-0.1,0.2-0.2,0.3-0.4,0.5c-0.2,0.2-0.4,0.4-0.7,0.5
					C207.2,39.1,206.9,39.2,206.4,39.2z M206.6,38.1c0.5,0,0.9-0.1,1.2-0.3c0.3-0.2,0.6-0.4,0.7-0.7c0.2-0.3,0.3-0.6,0.3-0.9v-1.1
					c-0.1,0.1-0.2,0.1-0.3,0.2c-0.2,0-0.4,0.1-0.6,0.1c-0.2,0-0.4,0.1-0.6,0.1c-0.2,0-0.4,0-0.5,0.1c-0.3,0-0.6,0.1-0.9,0.2
					c-0.3,0.1-0.5,0.2-0.6,0.4c-0.2,0.2-0.2,0.4-0.2,0.7c0,0.4,0.2,0.7,0.5,0.9C205.7,38,206.1,38.1,206.6,38.1z M217.6,33l-1.1,0.3
					c-0.1-0.2-0.2-0.3-0.3-0.5c-0.1-0.2-0.3-0.3-0.5-0.4c-0.2-0.1-0.5-0.2-0.8-0.2c-0.5,0-0.9,0.1-1.2,0.3c-0.3,0.2-0.5,0.5-0.5,0.8
					c0,0.3,0.1,0.5,0.3,0.7c0.2,0.2,0.5,0.3,1,0.4l1.1,0.3c0.7,0.2,1.2,0.4,1.5,0.8c0.3,0.3,0.5,0.8,0.5,1.3c0,0.4-0.1,0.8-0.4,1.2
					c-0.3,0.3-0.6,0.6-1.1,0.8c-0.5,0.2-1,0.3-1.6,0.3c-0.8,0-1.4-0.2-2-0.5c-0.5-0.3-0.8-0.8-1-1.5l1.1-0.3
					c0.1,0.4,0.3,0.7,0.6,0.9c0.3,0.2,0.7,0.3,1.2,0.3c0.6,0,1-0.1,1.3-0.4c0.3-0.2,0.5-0.5,0.5-0.9c0-0.3-0.1-0.5-0.3-0.7
					c-0.2-0.2-0.5-0.3-0.9-0.4l-1.3-0.3c-0.7-0.2-1.2-0.4-1.6-0.8c-0.3-0.4-0.5-0.8-0.5-1.3c0-0.4,0.1-0.8,0.4-1.2
					c0.2-0.3,0.6-0.6,1-0.8c0.4-0.2,0.9-0.3,1.5-0.3c0.8,0,1.4,0.2,1.8,0.5C217.1,32,217.4,32.5,217.6,33z M220.7,34.4V39h-1.2V28.7
					h1.2v3.8h0.1c0.2-0.4,0.5-0.7,0.8-0.9c0.4-0.2,0.9-0.4,1.5-0.4c0.5,0,1,0.1,1.4,0.3c0.4,0.2,0.7,0.5,0.9,1
					c0.2,0.4,0.3,1,0.3,1.6V39h-1.2v-4.8c0-0.6-0.2-1.1-0.5-1.4c-0.3-0.3-0.8-0.5-1.3-0.5c-0.4,0-0.7,0.1-1,0.2
					c-0.3,0.2-0.5,0.4-0.7,0.7C220.8,33.5,220.7,33.9,220.7,34.4z M228,39V28.7h1.2v3.8h0.1c0.1-0.1,0.2-0.3,0.4-0.5
					c0.2-0.2,0.4-0.4,0.7-0.6c0.3-0.2,0.7-0.3,1.2-0.3c0.6,0,1.2,0.2,1.7,0.5c0.5,0.3,0.9,0.8,1.2,1.4c0.3,0.6,0.4,1.3,0.4,2.1
					c0,0.8-0.1,1.5-0.4,2.1c-0.3,0.6-0.7,1.1-1.2,1.4c-0.5,0.3-1.1,0.5-1.7,0.5c-0.5,0-0.9-0.1-1.2-0.2c-0.3-0.2-0.5-0.4-0.7-0.6
					c-0.2-0.2-0.3-0.4-0.4-0.5h-0.1V39H228z M229.2,35.2c0,0.6,0.1,1.1,0.3,1.5c0.2,0.4,0.4,0.8,0.7,1c0.3,0.2,0.7,0.4,1.2,0.4
					c0.5,0,0.9-0.1,1.2-0.4c0.3-0.3,0.6-0.6,0.8-1.1c0.2-0.4,0.3-0.9,0.3-1.5c0-0.5-0.1-1-0.3-1.5c-0.2-0.4-0.4-0.8-0.7-1
					c-0.3-0.3-0.7-0.4-1.2-0.4c-0.5,0-0.9,0.1-1.2,0.4c-0.3,0.2-0.6,0.6-0.7,1C229.3,34.1,229.2,34.6,229.2,35.2z M239.8,39.2
					c-0.7,0-1.3-0.2-1.8-0.5c-0.5-0.3-0.9-0.8-1.2-1.4c-0.3-0.6-0.4-1.3-0.4-2.1c0-0.8,0.1-1.5,0.4-2.1c0.3-0.6,0.7-1.1,1.2-1.4
					c0.5-0.3,1.1-0.5,1.8-0.5s1.3,0.2,1.8,0.5c0.5,0.3,0.9,0.8,1.2,1.4c0.3,0.6,0.4,1.3,0.4,2.1c0,0.8-0.1,1.5-0.4,2.1
					c-0.3,0.6-0.7,1.1-1.2,1.4C241.1,39,240.5,39.2,239.8,39.2z M239.8,38.1c0.5,0,1-0.1,1.3-0.4c0.3-0.3,0.6-0.6,0.8-1.1
					c0.2-0.4,0.2-0.9,0.2-1.4s-0.1-1-0.2-1.4c-0.2-0.4-0.4-0.8-0.8-1.1c-0.3-0.3-0.8-0.4-1.3-0.4c-0.5,0-1,0.1-1.3,0.4
					c-0.3,0.3-0.6,0.6-0.8,1.1c-0.2,0.4-0.2,0.9-0.2,1.4s0.1,1,0.2,1.4c0.2,0.4,0.4,0.8,0.8,1.1C238.8,38,239.2,38.1,239.8,38.1z
					 M247.3,39.2c-0.5,0-0.9-0.1-1.3-0.3c-0.4-0.2-0.7-0.5-0.9-0.8c-0.2-0.4-0.4-0.8-0.4-1.3c0-0.4,0.1-0.8,0.3-1.1
					c0.2-0.3,0.4-0.5,0.7-0.7s0.6-0.3,1-0.4c0.4-0.1,0.7-0.1,1.1-0.2c0.5-0.1,0.8-0.1,1.1-0.1c0.3,0,0.5-0.1,0.6-0.2
					c0.1-0.1,0.2-0.2,0.2-0.4v0c0-0.5-0.1-0.9-0.4-1.2c-0.3-0.3-0.7-0.4-1.2-0.4c-0.6,0-1,0.1-1.3,0.4c-0.3,0.2-0.5,0.5-0.7,0.8
					l-1.1-0.4c0.2-0.5,0.5-0.8,0.8-1.1c0.3-0.3,0.7-0.4,1.1-0.6c0.4-0.1,0.8-0.2,1.2-0.2c0.2,0,0.5,0,0.9,0.1
					c0.3,0.1,0.6,0.2,0.9,0.4c0.3,0.2,0.6,0.5,0.8,0.8s0.3,0.9,0.3,1.5V39h-1.2v-1h-0.1c-0.1,0.2-0.2,0.3-0.4,0.5
					c-0.2,0.2-0.4,0.4-0.7,0.5C248.2,39.1,247.8,39.2,247.3,39.2z M247.5,38.1c0.5,0,0.9-0.1,1.2-0.3c0.3-0.2,0.6-0.4,0.7-0.7
					c0.2-0.3,0.3-0.6,0.3-0.9v-1.1c0,0.1-0.2,0.1-0.3,0.2c-0.2,0-0.4,0.1-0.6,0.1c-0.2,0-0.4,0.1-0.6,0.1c-0.2,0-0.4,0-0.5,0.1
					c-0.3,0-0.6,0.1-0.9,0.2c-0.3,0.1-0.5,0.2-0.6,0.4c-0.2,0.2-0.2,0.4-0.2,0.7c0,0.4,0.2,0.7,0.5,0.9
					C246.7,38,247,38.1,247.5,38.1z M253,39v-7.7h1.1v1.2h0.1c0.1-0.4,0.4-0.7,0.8-0.9c0.4-0.2,0.8-0.4,1.2-0.4c0.1,0,0.2,0,0.3,0
					c0.1,0,0.2,0,0.3,0v1.2c0,0-0.1,0-0.3,0c-0.1,0-0.3,0-0.4,0c-0.4,0-0.7,0.1-1,0.2c-0.3,0.2-0.5,0.4-0.7,0.6
					c-0.2,0.3-0.3,0.6-0.3,0.9V39H253z M261,39.2c-0.6,0-1.2-0.2-1.7-0.5c-0.5-0.3-0.9-0.8-1.2-1.4c-0.3-0.6-0.4-1.3-0.4-2.1
					c0-0.8,0.1-1.5,0.4-2.1c0.3-0.6,0.7-1.1,1.2-1.4c0.5-0.3,1.1-0.5,1.7-0.5c0.5,0,0.9,0.1,1.2,0.3c0.3,0.2,0.5,0.4,0.7,0.6
					c0.2,0.2,0.3,0.4,0.4,0.5h0.1v-3.8h1.2V39h-1.1v-1.2h-0.1c-0.1,0.1-0.2,0.3-0.4,0.5c-0.2,0.2-0.4,0.4-0.7,0.6
					C261.9,39.1,261.5,39.2,261,39.2z M261.1,38.1c0.5,0,0.9-0.1,1.2-0.4c0.3-0.3,0.6-0.6,0.7-1c0.2-0.4,0.3-1,0.3-1.5
					c0-0.6-0.1-1.1-0.3-1.5c-0.2-0.4-0.4-0.8-0.7-1c-0.3-0.2-0.7-0.4-1.2-0.4c-0.5,0-0.9,0.1-1.3,0.4c-0.3,0.3-0.6,0.6-0.7,1
					c-0.2,0.4-0.2,0.9-0.2,1.5c0,0.5,0.1,1,0.3,1.5c0.2,0.4,0.4,0.8,0.8,1.1C260.2,38,260.6,38.1,261.1,38.1z"/>
				<path class="st7" d="M298.4,29.8v-1.1h7.7v1.1h-3.2V39h-1.2v-9.2H298.4z M309.1,39.2c-0.5,0-0.9-0.1-1.3-0.3
					c-0.4-0.2-0.7-0.5-0.9-0.8c-0.2-0.4-0.4-0.8-0.4-1.3c0-0.4,0.1-0.8,0.3-1.1c0.2-0.3,0.4-0.5,0.7-0.7c0.3-0.2,0.6-0.3,1-0.4
					c0.4-0.1,0.7-0.1,1.1-0.2c0.5-0.1,0.8-0.1,1.1-0.1c0.3,0,0.5-0.1,0.6-0.2c0.1-0.1,0.2-0.2,0.2-0.4v0c0-0.5-0.1-0.9-0.4-1.2
					c-0.3-0.3-0.7-0.4-1.2-0.4c-0.6,0-1,0.1-1.3,0.4c-0.3,0.2-0.5,0.5-0.7,0.8l-1.1-0.4c0.2-0.5,0.5-0.8,0.8-1.1
					c0.3-0.3,0.7-0.4,1.1-0.6c0.4-0.1,0.8-0.2,1.2-0.2c0.2,0,0.5,0,0.9,0.1c0.3,0.1,0.6,0.2,0.9,0.4c0.3,0.2,0.6,0.5,0.8,0.8
					c0.2,0.4,0.3,0.9,0.3,1.5V39h-1.2v-1h-0.1c-0.1,0.2-0.2,0.3-0.4,0.5c-0.2,0.2-0.4,0.4-0.7,0.5C309.9,39.1,309.5,39.2,309.1,39.2
					z M309.3,38.1c0.5,0,0.9-0.1,1.2-0.3c0.3-0.2,0.6-0.4,0.7-0.7c0.2-0.3,0.3-0.6,0.3-0.9v-1.1c-0.1,0.1-0.2,0.1-0.3,0.2
					c-0.2,0-0.4,0.1-0.6,0.1c-0.2,0-0.4,0.1-0.6,0.1c-0.2,0-0.4,0-0.5,0.1c-0.3,0-0.6,0.1-0.9,0.2c-0.3,0.1-0.5,0.2-0.6,0.4
					c-0.2,0.2-0.2,0.4-0.2,0.7c0,0.4,0.2,0.7,0.5,0.9C308.4,38,308.8,38.1,309.3,38.1z M320.2,33l-1.1,0.3c-0.1-0.2-0.2-0.3-0.3-0.5
					c-0.1-0.2-0.3-0.3-0.5-0.4c-0.2-0.1-0.5-0.2-0.8-0.2c-0.5,0-0.9,0.1-1.2,0.3c-0.3,0.2-0.5,0.5-0.5,0.8c0,0.3,0.1,0.5,0.3,0.7
					s0.5,0.3,1,0.4l1.1,0.3c0.7,0.2,1.2,0.4,1.5,0.8c0.3,0.3,0.5,0.8,0.5,1.3c0,0.4-0.1,0.8-0.4,1.2c-0.3,0.3-0.6,0.6-1.1,0.8
					c-0.5,0.2-1,0.3-1.6,0.3c-0.8,0-1.4-0.2-2-0.5c-0.5-0.3-0.8-0.8-1-1.5l1.1-0.3c0.1,0.4,0.3,0.7,0.6,0.9c0.3,0.2,0.7,0.3,1.2,0.3
					c0.6,0,1-0.1,1.3-0.4c0.3-0.2,0.5-0.5,0.5-0.9c0-0.3-0.1-0.5-0.3-0.7c-0.2-0.2-0.5-0.3-0.9-0.4l-1.3-0.3
					c-0.7-0.2-1.2-0.4-1.6-0.8c-0.3-0.4-0.5-0.8-0.5-1.3c0-0.4,0.1-0.8,0.4-1.2c0.2-0.3,0.6-0.6,1-0.8c0.4-0.2,0.9-0.3,1.5-0.3
					c0.8,0,1.4,0.2,1.8,0.5C319.8,32,320.1,32.5,320.2,33z M323.3,36.2l0-1.5h0.2l3.4-3.4h1.5l-3.6,3.6h-0.1L323.3,36.2z M322.2,39
					V28.7h1.2V39H322.2z M327.1,39l-3-3.8l0.8-0.8l3.7,4.6H327.1z M335.3,33l-1.1,0.3c-0.1-0.2-0.2-0.3-0.3-0.5
					c-0.1-0.2-0.3-0.3-0.5-0.4c-0.2-0.1-0.5-0.2-0.8-0.2c-0.5,0-0.9,0.1-1.2,0.3c-0.3,0.2-0.5,0.5-0.5,0.8c0,0.3,0.1,0.5,0.3,0.7
					c0.2,0.2,0.5,0.3,1,0.4l1.1,0.3c0.7,0.2,1.2,0.4,1.5,0.8c0.3,0.3,0.5,0.8,0.5,1.3c0,0.4-0.1,0.8-0.4,1.2
					c-0.3,0.3-0.6,0.6-1.1,0.8c-0.5,0.2-1,0.3-1.6,0.3c-0.8,0-1.4-0.2-2-0.5c-0.5-0.3-0.8-0.8-1-1.5l1.1-0.3
					c0.1,0.4,0.3,0.7,0.6,0.9c0.3,0.2,0.7,0.3,1.2,0.3c0.6,0,1-0.1,1.3-0.4c0.3-0.2,0.5-0.5,0.5-0.9c0-0.3-0.1-0.5-0.3-0.7
					c-0.2-0.2-0.5-0.3-0.9-0.4l-1.3-0.3c-0.7-0.2-1.2-0.4-1.6-0.8c-0.3-0.4-0.5-0.8-0.5-1.3c0-0.4,0.1-0.8,0.4-1.2
					c0.2-0.3,0.6-0.6,1-0.8c0.4-0.2,0.9-0.3,1.5-0.3c0.8,0,1.4,0.2,1.8,0.5C334.8,32,335.1,32.5,335.3,33z"/>
				<path class="st7" d="M369.8,39V28.7h3.5c0.8,0,1.5,0.1,2,0.4c0.5,0.3,0.9,0.6,1.1,1.1c0.2,0.5,0.4,1,0.4,1.6
					c0,0.6-0.1,1.1-0.4,1.6c-0.2,0.5-0.6,0.8-1.1,1.1c-0.5,0.3-1.2,0.4-2,0.4h-2.8v-1.1h2.8c0.5,0,1-0.1,1.3-0.2
					c0.3-0.2,0.6-0.4,0.7-0.7c0.2-0.3,0.2-0.7,0.2-1.1c0-0.4-0.1-0.8-0.2-1.1c-0.2-0.3-0.4-0.5-0.7-0.7c-0.3-0.2-0.8-0.3-1.3-0.3
					H371V39H369.8z M374.6,34.4l2.5,4.6h-1.4l-2.5-4.6H374.6z M381.8,39.2c-0.7,0-1.4-0.2-1.9-0.5c-0.5-0.3-0.9-0.8-1.2-1.4
					c-0.3-0.6-0.4-1.3-0.4-2.1c0-0.8,0.1-1.5,0.4-2.1c0.3-0.6,0.7-1.1,1.2-1.4c0.5-0.3,1.1-0.5,1.8-0.5c0.4,0,0.8,0.1,1.2,0.2
					c0.4,0.1,0.7,0.4,1.1,0.7c0.3,0.3,0.6,0.7,0.8,1.2c0.2,0.5,0.3,1.1,0.3,1.8v0.5H379v-1h4.7c0-0.4-0.1-0.8-0.3-1.2
					c-0.2-0.3-0.4-0.6-0.7-0.8c-0.3-0.2-0.7-0.3-1.1-0.3c-0.5,0-0.9,0.1-1.2,0.4c-0.3,0.2-0.6,0.5-0.8,0.9c-0.2,0.4-0.3,0.8-0.3,1.2
					v0.7c0,0.6,0.1,1.1,0.3,1.5c0.2,0.4,0.5,0.7,0.8,0.9c0.4,0.2,0.8,0.3,1.3,0.3c0.3,0,0.6,0,0.8-0.1c0.3-0.1,0.5-0.2,0.7-0.4
					c0.2-0.2,0.3-0.4,0.4-0.7l1.1,0.3c-0.1,0.4-0.3,0.7-0.6,1c-0.3,0.3-0.6,0.5-1.1,0.7C382.8,39.1,382.3,39.2,381.8,39.2z
					 M386.8,41.9V31.3h1.1v1.2h0.1c0.1-0.1,0.2-0.3,0.4-0.5c0.2-0.2,0.4-0.4,0.7-0.6c0.3-0.2,0.7-0.3,1.2-0.3c0.6,0,1.2,0.2,1.7,0.5
					c0.5,0.3,0.9,0.8,1.2,1.4c0.3,0.6,0.4,1.3,0.4,2.1c0,0.8-0.1,1.5-0.4,2.1c-0.3,0.6-0.7,1.1-1.2,1.4c-0.5,0.3-1.1,0.5-1.7,0.5
					c-0.5,0-0.9-0.1-1.2-0.2c-0.3-0.2-0.5-0.4-0.7-0.6c-0.2-0.2-0.3-0.4-0.4-0.5H388v4.1H386.8z M388,35.2c0,0.6,0.1,1.1,0.3,1.5
					c0.2,0.4,0.4,0.8,0.7,1c0.3,0.2,0.7,0.4,1.2,0.4c0.5,0,0.9-0.1,1.2-0.4c0.3-0.3,0.6-0.6,0.8-1.1c0.2-0.4,0.3-0.9,0.3-1.5
					c0-0.5-0.1-1-0.3-1.5c-0.2-0.4-0.4-0.8-0.7-1c-0.3-0.3-0.7-0.4-1.2-0.4c-0.5,0-0.9,0.1-1.2,0.4c-0.3,0.2-0.6,0.6-0.7,1
					C388,34.1,388,34.6,388,35.2z M398.5,39.2c-0.7,0-1.3-0.2-1.8-0.5c-0.5-0.3-0.9-0.8-1.2-1.4c-0.3-0.6-0.4-1.3-0.4-2.1
					c0-0.8,0.1-1.5,0.4-2.1c0.3-0.6,0.7-1.1,1.2-1.4c0.5-0.3,1.1-0.5,1.8-0.5c0.7,0,1.3,0.2,1.8,0.5c0.5,0.3,0.9,0.8,1.2,1.4
					c0.3,0.6,0.4,1.3,0.4,2.1c0,0.8-0.1,1.5-0.4,2.1c-0.3,0.6-0.7,1.1-1.2,1.4C399.8,39,399.2,39.2,398.5,39.2z M398.5,38.1
					c0.5,0,1-0.1,1.3-0.4c0.3-0.3,0.6-0.6,0.8-1.1c0.2-0.4,0.2-0.9,0.2-1.4s-0.1-1-0.2-1.4c-0.2-0.4-0.4-0.8-0.8-1.1
					c-0.3-0.3-0.8-0.4-1.3-0.4c-0.5,0-1,0.1-1.3,0.4c-0.3,0.3-0.6,0.6-0.8,1.1c-0.2,0.4-0.2,0.9-0.2,1.4s0.1,1,0.2,1.4
					c0.2,0.4,0.4,0.8,0.8,1.1C397.6,38,398,38.1,398.5,38.1z M403.8,39v-7.7h1.1v1.2h0.1c0.1-0.4,0.4-0.7,0.8-0.9
					c0.4-0.2,0.8-0.4,1.2-0.4c0.1,0,0.2,0,0.3,0c0.1,0,0.2,0,0.3,0v1.2c0,0-0.1,0-0.3,0c-0.1,0-0.3,0-0.4,0c-0.4,0-0.7,0.1-1,0.2
					c-0.3,0.2-0.5,0.4-0.7,0.6c-0.2,0.3-0.3,0.6-0.3,0.9V39H403.8z M412.9,31.3v1h-4v-1H412.9z M410.1,29.5h1.2v7.3
					c0,0.3,0,0.6,0.1,0.8c0.1,0.2,0.2,0.3,0.4,0.3c0.2,0.1,0.3,0.1,0.5,0.1c0.1,0,0.2,0,0.3,0c0.1,0,0.2,0,0.2,0l0.2,1.1
					c-0.1,0-0.2,0.1-0.3,0.1c-0.1,0-0.3,0.1-0.5,0.1c-0.3,0-0.7-0.1-1-0.2c-0.3-0.1-0.6-0.4-0.8-0.7c-0.2-0.3-0.3-0.7-0.3-1.1V29.5z
					 M414.7,39v-7.7h1.2V39H414.7z M415.3,30c-0.2,0-0.4-0.1-0.6-0.2c-0.2-0.2-0.2-0.3-0.2-0.6c0-0.2,0.1-0.4,0.2-0.6
					c0.2-0.2,0.4-0.2,0.6-0.2c0.2,0,0.4,0.1,0.6,0.2c0.2,0.2,0.3,0.3,0.3,0.6c0,0.2-0.1,0.4-0.3,0.6C415.8,29.9,415.6,30,415.3,30z
					 M419.3,34.4V39h-1.2v-7.7h1.1v1.2h0.1c0.2-0.4,0.5-0.7,0.8-0.9c0.4-0.2,0.8-0.4,1.4-0.4c0.5,0,1,0.1,1.4,0.3
					c0.4,0.2,0.7,0.5,0.9,1c0.2,0.4,0.3,1,0.3,1.6V39H423v-4.8c0-0.6-0.2-1.1-0.5-1.4c-0.3-0.3-0.7-0.5-1.3-0.5
					c-0.4,0-0.7,0.1-1,0.2c-0.3,0.2-0.5,0.4-0.7,0.7C419.3,33.5,419.3,33.9,419.3,34.4z M429.5,42.1c-0.6,0-1.1-0.1-1.5-0.2
					c-0.4-0.1-0.8-0.3-1-0.6c-0.3-0.2-0.5-0.5-0.6-0.8l0.9-0.7c0.1,0.1,0.2,0.3,0.4,0.5c0.2,0.2,0.4,0.3,0.7,0.5
					c0.3,0.1,0.7,0.2,1.1,0.2c0.6,0,1.1-0.2,1.5-0.5c0.4-0.3,0.6-0.8,0.6-1.4v-1.6h-0.1c-0.1,0.1-0.2,0.3-0.4,0.5
					c-0.2,0.2-0.4,0.4-0.7,0.5c-0.3,0.2-0.7,0.2-1.2,0.2c-0.6,0-1.2-0.1-1.7-0.4c-0.5-0.3-0.9-0.7-1.2-1.3c-0.3-0.6-0.4-1.2-0.4-2
					c0-0.8,0.1-1.5,0.4-2.1c0.3-0.6,0.7-1,1.2-1.4c0.5-0.3,1.1-0.5,1.7-0.5c0.5,0,0.9,0.1,1.2,0.3c0.3,0.2,0.5,0.4,0.7,0.6
					c0.2,0.2,0.3,0.4,0.4,0.5h0.1v-1.2h1.1v7.9c0,0.7-0.2,1.2-0.5,1.6c-0.3,0.4-0.7,0.7-1.2,0.9C430.6,42,430.1,42.1,429.5,42.1z
					 M429.4,37.8c0.5,0,0.9-0.1,1.2-0.3c0.3-0.2,0.6-0.5,0.7-0.9c0.2-0.4,0.3-0.9,0.3-1.5c0-0.6-0.1-1-0.3-1.5
					c-0.2-0.4-0.4-0.8-0.7-1c-0.3-0.2-0.7-0.4-1.2-0.4c-0.5,0-0.9,0.1-1.3,0.4c-0.3,0.3-0.6,0.6-0.7,1c-0.2,0.4-0.2,0.9-0.2,1.4
					c0,0.5,0.1,1,0.3,1.4c0.2,0.4,0.4,0.7,0.8,1C428.5,37.7,428.9,37.8,429.4,37.8z"/>
				<path class="st7" d="M474.3,28.7h1.2v6.8c0,0.7-0.2,1.3-0.5,1.9c-0.3,0.5-0.8,1-1.4,1.3c-0.6,0.3-1.3,0.5-2.1,0.5
					c-0.8,0-1.5-0.2-2.1-0.5c-0.6-0.3-1.1-0.8-1.4-1.3c-0.3-0.6-0.5-1.2-0.5-1.9v-6.8h1.2v6.7c0,0.5,0.1,0.9,0.3,1.3
					c0.2,0.4,0.5,0.7,0.9,0.9c0.4,0.2,0.9,0.3,1.5,0.3c0.6,0,1.1-0.1,1.5-0.3c0.4-0.2,0.7-0.5,0.9-0.9c0.2-0.4,0.3-0.8,0.3-1.3V28.7
					z M483.4,33l-1.1,0.3c-0.1-0.2-0.2-0.3-0.3-0.5c-0.1-0.2-0.3-0.3-0.5-0.4c-0.2-0.1-0.5-0.2-0.8-0.2c-0.5,0-0.9,0.1-1.2,0.3
					c-0.3,0.2-0.5,0.5-0.5,0.8c0,0.3,0.1,0.5,0.3,0.7c0.2,0.2,0.5,0.3,1,0.4l1.1,0.3c0.7,0.2,1.2,0.4,1.5,0.8
					c0.3,0.3,0.5,0.8,0.5,1.3c0,0.4-0.1,0.8-0.4,1.2c-0.3,0.3-0.6,0.6-1.1,0.8c-0.5,0.2-1,0.3-1.6,0.3c-0.8,0-1.4-0.2-2-0.5
					c-0.5-0.3-0.8-0.8-1-1.5l1.1-0.3c0.1,0.4,0.3,0.7,0.6,0.9c0.3,0.2,0.7,0.3,1.2,0.3c0.6,0,1-0.1,1.3-0.4c0.3-0.2,0.5-0.5,0.5-0.9
					c0-0.3-0.1-0.5-0.3-0.7c-0.2-0.2-0.5-0.3-0.9-0.4l-1.3-0.3c-0.7-0.2-1.2-0.4-1.6-0.8c-0.3-0.4-0.5-0.8-0.5-1.3
					c0-0.4,0.1-0.8,0.4-1.2c0.2-0.3,0.6-0.6,1-0.8c0.4-0.2,0.9-0.3,1.5-0.3c0.8,0,1.4,0.2,1.8,0.5C482.9,32,483.2,32.5,483.4,33z
					 M488.5,39.2c-0.7,0-1.4-0.2-1.9-0.5c-0.5-0.3-0.9-0.8-1.2-1.4c-0.3-0.6-0.4-1.3-0.4-2.1c0-0.8,0.1-1.5,0.4-2.1
					c0.3-0.6,0.7-1.1,1.2-1.4c0.5-0.3,1.1-0.5,1.8-0.5c0.4,0,0.8,0.1,1.2,0.2c0.4,0.1,0.7,0.4,1.1,0.7c0.3,0.3,0.6,0.7,0.8,1.2
					c0.2,0.5,0.3,1.1,0.3,1.8v0.5h-5.9v-1h4.7c0-0.4-0.1-0.8-0.3-1.2c-0.2-0.3-0.4-0.6-0.7-0.8c-0.3-0.2-0.7-0.3-1.1-0.3
					c-0.5,0-0.9,0.1-1.2,0.4c-0.3,0.2-0.6,0.5-0.8,0.9c-0.2,0.4-0.3,0.8-0.3,1.2v0.7c0,0.6,0.1,1.1,0.3,1.5c0.2,0.4,0.5,0.7,0.8,0.9
					c0.4,0.2,0.8,0.3,1.3,0.3c0.3,0,0.6,0,0.8-0.1c0.3-0.1,0.5-0.2,0.7-0.4c0.2-0.2,0.3-0.4,0.4-0.7l1.1,0.3c-0.1,0.4-0.3,0.7-0.6,1
					c-0.3,0.3-0.6,0.5-1.1,0.7C489.5,39.1,489,39.2,488.5,39.2z M493.5,39v-7.7h1.1v1.2h0.1c0.1-0.4,0.4-0.7,0.8-0.9
					c0.4-0.2,0.8-0.4,1.2-0.4c0.1,0,0.2,0,0.3,0c0.1,0,0.2,0,0.3,0v1.2c0,0-0.1,0-0.3,0c-0.1,0-0.3,0-0.4,0c-0.4,0-0.7,0.1-1,0.2
					c-0.3,0.2-0.5,0.4-0.7,0.6c-0.2,0.3-0.3,0.6-0.3,0.9V39H493.5z M504.2,33l-1.1,0.3c-0.1-0.2-0.2-0.3-0.3-0.5
					c-0.1-0.2-0.3-0.3-0.5-0.4c-0.2-0.1-0.5-0.2-0.8-0.2c-0.5,0-0.9,0.1-1.2,0.3c-0.3,0.2-0.5,0.5-0.5,0.8c0,0.3,0.1,0.5,0.3,0.7
					c0.2,0.2,0.5,0.3,1,0.4l1.1,0.3c0.7,0.2,1.2,0.4,1.5,0.8c0.3,0.3,0.5,0.8,0.5,1.3c0,0.4-0.1,0.8-0.4,1.2
					c-0.3,0.3-0.6,0.6-1.1,0.8c-0.5,0.2-1,0.3-1.6,0.3c-0.8,0-1.4-0.2-2-0.5c-0.5-0.3-0.8-0.8-1-1.5l1.1-0.3
					c0.1,0.4,0.3,0.7,0.6,0.9c0.3,0.2,0.7,0.3,1.2,0.3c0.6,0,1-0.1,1.3-0.4c0.3-0.2,0.5-0.5,0.5-0.9c0-0.3-0.1-0.5-0.3-0.7
					c-0.2-0.2-0.5-0.3-0.9-0.4l-1.3-0.3c-0.7-0.2-1.2-0.4-1.6-0.8c-0.3-0.4-0.5-0.8-0.5-1.3c0-0.4,0.1-0.8,0.4-1.2
					c0.2-0.3,0.6-0.6,1-0.8c0.4-0.2,0.9-0.3,1.5-0.3c0.8,0,1.4,0.2,1.8,0.5C503.7,32,504,32.5,504.2,33z"/>
				<g>
					<defs>
						<polygon id="SVGID_6_" points="1,1 2,1 1,2 						"/>
					</defs>
					<defs>
						<polygon id="SVGID_7_" points="-1,-1 -2,-1 -1,-2 						"/>
					</defs>
					<clipPath id="SVGID_8_">
						<use xlink:href="#SVGID_6_"  style="overflow:visible;"/>
					</clipPath>
					<clipPath id="SVGID_9_" class="st8">
						<use xlink:href="#SVGID_7_"  style="overflow:visible;"/>
					</clipPath>
					<path class="st9" d="M1402.7,67.2H-11v1.8h1413.7V67.2z"/>
				</g>
				<path class="st7" d="M32.9,113.6c0-0.4-0.2-0.6-0.5-0.8c-0.3-0.2-0.7-0.3-1.1-0.3c-0.3,0-0.6,0-0.8,0.1
					c-0.2,0.1-0.4,0.2-0.5,0.4c-0.1,0.2-0.2,0.4-0.2,0.6c0,0.2,0,0.3,0.1,0.5c0.1,0.1,0.2,0.2,0.3,0.3c0.1,0.1,0.3,0.2,0.5,0.2
					c0.2,0.1,0.3,0.1,0.5,0.1l0.8,0.2c0.2,0.1,0.5,0.1,0.8,0.2c0.3,0.1,0.5,0.2,0.7,0.4c0.2,0.2,0.4,0.4,0.5,0.6
					c0.1,0.2,0.2,0.5,0.2,0.9c0,0.4-0.1,0.8-0.3,1.2c-0.2,0.3-0.5,0.6-1,0.8c-0.4,0.2-0.9,0.3-1.5,0.3c-0.6,0-1.1-0.1-1.5-0.3
					c-0.4-0.2-0.8-0.4-1-0.8c-0.2-0.3-0.4-0.7-0.4-1.2h1.2c0,0.3,0.1,0.5,0.3,0.7c0.2,0.2,0.4,0.3,0.6,0.4c0.3,0.1,0.5,0.1,0.8,0.1
					c0.3,0,0.6-0.1,0.9-0.2c0.3-0.1,0.5-0.3,0.6-0.4c0.1-0.2,0.2-0.4,0.2-0.7c0-0.2-0.1-0.4-0.2-0.6c-0.1-0.1-0.3-0.3-0.5-0.4
					c-0.2-0.1-0.5-0.2-0.7-0.3l-0.9-0.2c-0.6-0.2-1.1-0.4-1.5-0.7c-0.4-0.3-0.5-0.8-0.5-1.3c0-0.4,0.1-0.8,0.4-1.2
					c0.2-0.3,0.6-0.6,1-0.8c0.4-0.2,0.9-0.3,1.4-0.3c0.5,0,1,0.1,1.4,0.3c0.4,0.2,0.7,0.4,0.9,0.8c0.2,0.3,0.4,0.7,0.4,1.1H32.9z
					 M39.1,116.9v-3.4h1.1v5.8h-1.1v-1h-0.1c-0.1,0.3-0.3,0.6-0.6,0.8c-0.3,0.2-0.7,0.3-1.1,0.3c-0.4,0-0.7-0.1-1-0.2
					c-0.3-0.2-0.5-0.4-0.7-0.7c-0.2-0.3-0.2-0.7-0.2-1.2v-3.7h1.1v3.5c0,0.4,0.1,0.7,0.3,0.9c0.2,0.2,0.5,0.4,0.9,0.4
					c0.2,0,0.4-0.1,0.6-0.2c0.2-0.1,0.4-0.3,0.5-0.5C39.1,117.5,39.1,117.2,39.1,116.9z M41.9,119.2v-7.7H43v2.9H43
					c0.1-0.1,0.2-0.3,0.3-0.4c0.1-0.2,0.3-0.3,0.5-0.4c0.2-0.1,0.5-0.2,0.9-0.2c0.5,0,0.9,0.1,1.2,0.4c0.4,0.2,0.7,0.6,0.9,1
					c0.2,0.4,0.3,1,0.3,1.6s-0.1,1.2-0.3,1.6c-0.2,0.4-0.5,0.8-0.9,1c-0.4,0.2-0.8,0.4-1.2,0.4c-0.4,0-0.6-0.1-0.9-0.2
					c-0.2-0.1-0.4-0.3-0.5-0.4c-0.1-0.2-0.2-0.3-0.3-0.4H43v0.9H41.9z M43,116.4c0,0.4,0.1,0.8,0.2,1.1s0.3,0.5,0.5,0.7
					c0.2,0.2,0.5,0.3,0.8,0.3c0.3,0,0.6-0.1,0.8-0.3c0.2-0.2,0.4-0.4,0.5-0.7c0.1-0.3,0.2-0.7,0.2-1c0-0.4-0.1-0.7-0.2-1
					c-0.1-0.3-0.3-0.5-0.5-0.7c-0.2-0.2-0.5-0.3-0.8-0.3c-0.3,0-0.6,0.1-0.8,0.3c-0.2,0.2-0.4,0.4-0.5,0.7C43,115.6,43,116,43,116.4
					z M52.7,114.9l-1,0.2c0-0.1-0.1-0.3-0.2-0.4c-0.1-0.1-0.2-0.2-0.4-0.3c-0.2-0.1-0.4-0.1-0.6-0.1c-0.3,0-0.6,0.1-0.8,0.2
					c-0.2,0.1-0.3,0.3-0.3,0.5c0,0.2,0.1,0.3,0.2,0.5c0.1,0.1,0.4,0.2,0.7,0.3l0.9,0.2c0.5,0.1,0.9,0.3,1.2,0.6
					c0.3,0.3,0.4,0.6,0.4,1c0,0.3-0.1,0.7-0.3,0.9c-0.2,0.3-0.5,0.5-0.8,0.6c-0.4,0.2-0.8,0.2-1.2,0.2c-0.6,0-1.2-0.1-1.6-0.4
					c-0.4-0.3-0.7-0.7-0.8-1.2l1.1-0.2c0.1,0.3,0.2,0.5,0.4,0.6c0.2,0.1,0.5,0.2,0.8,0.2c0.4,0,0.7-0.1,0.9-0.2
					c0.2-0.2,0.3-0.3,0.3-0.6c0-0.2-0.1-0.3-0.2-0.5c-0.1-0.1-0.3-0.2-0.6-0.3l-1-0.2c-0.5-0.1-0.9-0.3-1.2-0.6
					c-0.3-0.3-0.4-0.6-0.4-1c0-0.3,0.1-0.6,0.3-0.9c0.2-0.3,0.5-0.5,0.8-0.6c0.3-0.1,0.7-0.2,1.2-0.2c0.6,0,1.1,0.1,1.5,0.4
					C52.4,114.1,52.6,114.4,52.7,114.9z M56.5,119.4c-0.6,0-1-0.1-1.4-0.4c-0.4-0.3-0.7-0.6-0.9-1.1c-0.2-0.5-0.3-1-0.3-1.5
					c0-0.6,0.1-1.1,0.3-1.6c0.2-0.5,0.5-0.8,0.9-1.1c0.4-0.3,0.9-0.4,1.4-0.4c0.4,0,0.8,0.1,1.2,0.2c0.3,0.2,0.6,0.4,0.8,0.7
					c0.2,0.3,0.3,0.6,0.4,1h-1.1c-0.1-0.3-0.2-0.5-0.4-0.7c-0.2-0.2-0.5-0.3-0.9-0.3c-0.3,0-0.6,0.1-0.8,0.2
					c-0.2,0.2-0.4,0.4-0.5,0.7c-0.1,0.3-0.2,0.7-0.2,1.1c0,0.4,0.1,0.8,0.2,1.1c0.1,0.3,0.3,0.5,0.5,0.7c0.2,0.2,0.5,0.3,0.8,0.3
					c0.2,0,0.4,0,0.6-0.1c0.2-0.1,0.3-0.2,0.4-0.3c0.1-0.1,0.2-0.3,0.3-0.5h1.1c0,0.4-0.2,0.7-0.4,1c-0.2,0.3-0.5,0.5-0.8,0.7
					C57.4,119.3,57,119.4,56.5,119.4z M60.1,119.2v-5.8h1.1v0.9h0.1c0.1-0.3,0.3-0.6,0.6-0.7c0.3-0.2,0.6-0.3,0.9-0.3
					c0.1,0,0.2,0,0.2,0c0.1,0,0.2,0,0.2,0v1.1c0,0-0.1,0-0.2,0c-0.1,0-0.2,0-0.3,0c-0.3,0-0.5,0.1-0.7,0.2c-0.2,0.1-0.4,0.3-0.5,0.5
					c-0.1,0.2-0.2,0.4-0.2,0.7v3.5H60.1z M64.2,119.2v-5.8h1.1v5.8H64.2z M64.7,112.6c-0.2,0-0.4-0.1-0.5-0.2
					c-0.1-0.1-0.2-0.3-0.2-0.5c0-0.2,0.1-0.3,0.2-0.5c0.1-0.1,0.3-0.2,0.5-0.2s0.4,0.1,0.5,0.2c0.1,0.1,0.2,0.3,0.2,0.5
					c0,0.2-0.1,0.3-0.2,0.5C65.1,112.5,64.9,112.6,64.7,112.6z M66.9,119.2v-7.7H68v2.9h0.1c0.1-0.1,0.2-0.3,0.3-0.4
					s0.3-0.3,0.5-0.4c0.2-0.1,0.5-0.2,0.9-0.2c0.5,0,0.9,0.1,1.3,0.4c0.4,0.2,0.7,0.6,0.9,1c0.2,0.4,0.3,1,0.3,1.6s-0.1,1.2-0.3,1.6
					c-0.2,0.4-0.5,0.8-0.9,1c-0.4,0.2-0.8,0.4-1.2,0.4c-0.4,0-0.6-0.1-0.9-0.2c-0.2-0.1-0.4-0.3-0.5-0.4c-0.1-0.2-0.2-0.3-0.3-0.4
					H68v0.9H66.9z M68,116.4c0,0.4,0.1,0.8,0.2,1.1c0.1,0.3,0.3,0.5,0.5,0.7c0.2,0.2,0.5,0.3,0.8,0.3c0.3,0,0.6-0.1,0.8-0.3
					c0.2-0.2,0.4-0.4,0.5-0.7c0.1-0.3,0.2-0.7,0.2-1c0-0.4-0.1-0.7-0.2-1c-0.1-0.3-0.3-0.5-0.5-0.7c-0.2-0.2-0.5-0.3-0.8-0.3
					c-0.3,0-0.6,0.1-0.8,0.3c-0.2,0.2-0.4,0.4-0.5,0.7C68.1,115.6,68,116,68,116.4z M75.9,119.4c-0.6,0-1.1-0.1-1.5-0.4
					c-0.4-0.2-0.7-0.6-0.9-1c-0.2-0.4-0.3-1-0.3-1.6c0-0.6,0.1-1.1,0.3-1.6c0.2-0.5,0.5-0.8,0.9-1.1c0.4-0.3,0.9-0.4,1.4-0.4
					c0.3,0,0.6,0.1,0.9,0.2c0.3,0.1,0.6,0.3,0.8,0.5c0.2,0.2,0.4,0.5,0.6,0.9c0.1,0.4,0.2,0.8,0.2,1.3v0.4h-4.6v-0.8h3.5
					c0-0.3-0.1-0.6-0.2-0.8c-0.1-0.2-0.3-0.4-0.5-0.5c-0.2-0.1-0.5-0.2-0.8-0.2c-0.3,0-0.6,0.1-0.8,0.2c-0.2,0.2-0.4,0.4-0.5,0.6
					c-0.1,0.2-0.2,0.5-0.2,0.8v0.7c0,0.4,0.1,0.7,0.2,1c0.1,0.3,0.3,0.5,0.6,0.6c0.2,0.1,0.5,0.2,0.9,0.2c0.2,0,0.4,0,0.6-0.1
					c0.2-0.1,0.3-0.2,0.5-0.3c0.1-0.1,0.2-0.3,0.3-0.5l1.1,0.2c-0.1,0.3-0.2,0.6-0.5,0.8c-0.2,0.2-0.5,0.4-0.8,0.5
					C76.7,119.3,76.4,119.4,75.9,119.4z M79.7,119.2v-5.8h1.1v0.9h0.1c0.1-0.3,0.3-0.6,0.6-0.7c0.3-0.2,0.6-0.3,0.9-0.3
					c0.1,0,0.2,0,0.2,0c0.1,0,0.2,0,0.2,0v1.1c0,0-0.1,0-0.2,0c-0.1,0-0.2,0-0.3,0c-0.3,0-0.5,0.1-0.7,0.2c-0.2,0.1-0.4,0.3-0.5,0.5
					c-0.1,0.2-0.2,0.4-0.2,0.7v3.5H79.7z M88.1,114.9l-1,0.2c0-0.1-0.1-0.3-0.2-0.4c-0.1-0.1-0.2-0.2-0.4-0.3
					c-0.2-0.1-0.4-0.1-0.6-0.1c-0.3,0-0.6,0.1-0.8,0.2c-0.2,0.1-0.3,0.3-0.3,0.5c0,0.2,0.1,0.3,0.2,0.5c0.1,0.1,0.4,0.2,0.7,0.3
					l0.9,0.2c0.5,0.1,0.9,0.3,1.2,0.6c0.3,0.3,0.4,0.6,0.4,1c0,0.3-0.1,0.7-0.3,0.9c-0.2,0.3-0.5,0.5-0.8,0.6
					c-0.4,0.2-0.8,0.2-1.2,0.2c-0.6,0-1.2-0.1-1.6-0.4c-0.4-0.3-0.7-0.7-0.8-1.2l1.1-0.2c0.1,0.3,0.2,0.5,0.4,0.6
					c0.2,0.1,0.5,0.2,0.8,0.2c0.4,0,0.7-0.1,0.9-0.2c0.2-0.2,0.3-0.3,0.3-0.6c0-0.2-0.1-0.3-0.2-0.5c-0.1-0.1-0.3-0.2-0.6-0.3
					l-1-0.2c-0.5-0.1-0.9-0.3-1.2-0.6c-0.3-0.3-0.4-0.6-0.4-1c0-0.3,0.1-0.6,0.3-0.9c0.2-0.3,0.5-0.5,0.8-0.6
					c0.3-0.1,0.7-0.2,1.2-0.2c0.6,0,1.1,0.1,1.5,0.4C87.7,114.1,88,114.4,88.1,114.9z"/>
				<path class="st10" d="M99.5,120.2l4.4-4.4l-4.4-4.4"/>
				<path class="st7" d="M120.9,114h-1.2c0-0.3-0.1-0.5-0.3-0.7c-0.1-0.2-0.3-0.4-0.5-0.5c-0.2-0.1-0.4-0.2-0.6-0.3
					c-0.2-0.1-0.5-0.1-0.7-0.1c-0.4,0-0.8,0.1-1.2,0.3c-0.3,0.2-0.6,0.6-0.8,1c-0.2,0.4-0.3,1-0.3,1.6c0,0.6,0.1,1.2,0.3,1.6
					c0.2,0.4,0.5,0.8,0.8,1c0.4,0.2,0.7,0.3,1.2,0.3c0.2,0,0.5,0,0.7-0.1c0.2-0.1,0.4-0.2,0.6-0.3c0.2-0.1,0.3-0.3,0.5-0.5
					c0.1-0.2,0.2-0.4,0.3-0.7l1.2,0c-0.1,0.4-0.2,0.7-0.4,1c-0.2,0.3-0.4,0.6-0.7,0.8c-0.3,0.2-0.6,0.4-1,0.5
					c-0.4,0.1-0.8,0.2-1.2,0.2c-0.7,0-1.3-0.2-1.8-0.5c-0.5-0.3-0.9-0.8-1.2-1.4c-0.3-0.6-0.4-1.3-0.4-2.1c0-0.8,0.1-1.5,0.5-2.1
					c0.3-0.6,0.7-1,1.2-1.4c0.5-0.3,1.1-0.5,1.8-0.5c0.4,0,0.8,0.1,1.1,0.2c0.4,0.1,0.7,0.3,1,0.5c0.3,0.2,0.5,0.5,0.7,0.8
					C120.7,113.3,120.8,113.6,120.9,114z M122.2,119.2v-5.8h1.1v0.9h0.1c0.1-0.3,0.3-0.6,0.6-0.7c0.3-0.2,0.6-0.3,0.9-0.3
					c0.1,0,0.2,0,0.2,0c0.1,0,0.2,0,0.2,0v1.1c0,0-0.1,0-0.2,0c-0.1,0-0.2,0-0.3,0c-0.3,0-0.5,0.1-0.7,0.2c-0.2,0.1-0.4,0.3-0.5,0.5
					c-0.1,0.2-0.2,0.4-0.2,0.7v3.5H122.2z M128.5,119.4c-0.6,0-1.1-0.1-1.5-0.4c-0.4-0.2-0.7-0.6-0.9-1c-0.2-0.4-0.3-1-0.3-1.6
					c0-0.6,0.1-1.1,0.3-1.6c0.2-0.5,0.5-0.8,0.9-1.1c0.4-0.3,0.9-0.4,1.4-0.4c0.3,0,0.6,0.1,0.9,0.2c0.3,0.1,0.6,0.3,0.8,0.5
					c0.2,0.2,0.4,0.5,0.6,0.9c0.1,0.4,0.2,0.8,0.2,1.3v0.4h-4.6v-0.8h3.5c0-0.3-0.1-0.6-0.2-0.8c-0.1-0.2-0.3-0.4-0.5-0.5
					c-0.2-0.1-0.5-0.2-0.8-0.2c-0.3,0-0.6,0.1-0.8,0.2c-0.2,0.2-0.4,0.4-0.5,0.6c-0.1,0.2-0.2,0.5-0.2,0.8v0.7c0,0.4,0.1,0.7,0.2,1
					c0.1,0.3,0.3,0.5,0.6,0.6c0.2,0.1,0.5,0.2,0.9,0.2c0.2,0,0.4,0,0.6-0.1c0.2-0.1,0.3-0.2,0.5-0.3c0.1-0.1,0.2-0.3,0.3-0.5
					l1.1,0.2c-0.1,0.3-0.2,0.6-0.5,0.8c-0.2,0.2-0.5,0.4-0.8,0.5C129.3,119.3,128.9,119.4,128.5,119.4z M133.9,119.4
					c-0.4,0-0.7-0.1-1-0.2c-0.3-0.1-0.5-0.3-0.7-0.6c-0.2-0.3-0.3-0.6-0.3-1c0-0.3,0.1-0.6,0.2-0.8c0.1-0.2,0.3-0.4,0.5-0.5
					c0.2-0.1,0.5-0.2,0.7-0.3c0.3-0.1,0.5-0.1,0.8-0.1c0.3,0,0.6-0.1,0.8-0.1c0.2,0,0.4-0.1,0.5-0.1c0.1-0.1,0.1-0.2,0.1-0.3v0
					c0-0.3-0.1-0.6-0.3-0.8c-0.2-0.2-0.5-0.3-0.8-0.3c-0.4,0-0.7,0.1-0.9,0.3c-0.2,0.2-0.4,0.3-0.4,0.6l-1.1-0.2
					c0.1-0.4,0.3-0.6,0.6-0.9c0.2-0.2,0.5-0.4,0.8-0.5c0.3-0.1,0.6-0.2,1-0.2c0.2,0,0.5,0,0.7,0.1c0.3,0.1,0.5,0.2,0.7,0.3
					c0.2,0.1,0.4,0.3,0.6,0.6c0.1,0.3,0.2,0.6,0.2,1v3.8h-1.1v-0.8h0c-0.1,0.1-0.2,0.3-0.3,0.4c-0.1,0.1-0.3,0.3-0.6,0.3
					C134.5,119.3,134.3,119.4,133.9,119.4z M134.2,118.5c0.3,0,0.6-0.1,0.8-0.2c0.2-0.1,0.4-0.3,0.5-0.5c0.1-0.2,0.2-0.4,0.2-0.6
					v-0.7c0,0-0.1,0.1-0.2,0.1c-0.1,0-0.2,0.1-0.4,0.1c-0.1,0-0.3,0-0.4,0.1c-0.1,0-0.3,0-0.3,0c-0.2,0-0.4,0.1-0.6,0.1
					c-0.2,0.1-0.3,0.2-0.4,0.3c-0.1,0.1-0.2,0.3-0.2,0.5c0,0.3,0.1,0.5,0.3,0.6C133.6,118.4,133.9,118.5,134.2,118.5z M141,113.5
					v0.9h-3.2v-0.9H141z M138.7,112.1h1.1v5.5c0,0.2,0,0.4,0.1,0.5c0.1,0.1,0.1,0.2,0.3,0.2c0.1,0,0.2,0.1,0.3,0.1
					c0.1,0,0.2,0,0.2,0c0.1,0,0.1,0,0.2,0l0.2,0.9c-0.1,0-0.2,0-0.3,0.1c-0.1,0-0.3,0-0.5,0c-0.3,0-0.6,0-0.8-0.2
					c-0.3-0.1-0.5-0.3-0.6-0.5s-0.2-0.5-0.2-0.9V112.1z M144.7,119.4c-0.6,0-1.1-0.1-1.5-0.4c-0.4-0.2-0.7-0.6-0.9-1
					c-0.2-0.4-0.3-1-0.3-1.6c0-0.6,0.1-1.1,0.3-1.6c0.2-0.5,0.5-0.8,0.9-1.1c0.4-0.3,0.9-0.4,1.4-0.4c0.3,0,0.6,0.1,0.9,0.2
					s0.6,0.3,0.8,0.5c0.2,0.2,0.4,0.5,0.6,0.9c0.1,0.4,0.2,0.8,0.2,1.3v0.4h-4.6v-0.8h3.5c0-0.3-0.1-0.6-0.2-0.8
					c-0.1-0.2-0.3-0.4-0.5-0.5c-0.2-0.1-0.5-0.2-0.8-0.2c-0.3,0-0.6,0.1-0.8,0.2c-0.2,0.2-0.4,0.4-0.5,0.6c-0.1,0.2-0.2,0.5-0.2,0.8
					v0.7c0,0.4,0.1,0.7,0.2,1c0.1,0.3,0.3,0.5,0.6,0.6c0.2,0.1,0.5,0.2,0.9,0.2c0.2,0,0.4,0,0.6-0.1c0.2-0.1,0.3-0.2,0.5-0.3
					c0.1-0.1,0.2-0.3,0.3-0.5l1.1,0.2c-0.1,0.3-0.2,0.6-0.5,0.8c-0.2,0.2-0.5,0.4-0.8,0.5C145.5,119.3,145.1,119.4,144.7,119.4z"/>
				<path class="st10" d="M159.2,120.2l4.4-4.4l-4.4-4.4"/>
				<path class="st5" d="M178.4,113.6c0-0.4-0.2-0.6-0.5-0.8c-0.3-0.2-0.7-0.3-1.1-0.3c-0.3,0-0.6,0-0.8,0.1
					c-0.2,0.1-0.4,0.2-0.5,0.4c-0.1,0.2-0.2,0.4-0.2,0.6c0,0.2,0,0.3,0.1,0.5c0.1,0.1,0.2,0.2,0.3,0.3c0.1,0.1,0.3,0.2,0.5,0.2
					c0.2,0.1,0.3,0.1,0.5,0.1l0.8,0.2c0.2,0.1,0.5,0.1,0.8,0.2s0.5,0.2,0.7,0.4c0.2,0.2,0.4,0.4,0.5,0.6c0.1,0.2,0.2,0.5,0.2,0.9
					c0,0.4-0.1,0.8-0.3,1.2c-0.2,0.3-0.5,0.6-1,0.8c-0.4,0.2-0.9,0.3-1.5,0.3c-0.6,0-1.1-0.1-1.5-0.3c-0.4-0.2-0.8-0.4-1-0.8
					c-0.2-0.3-0.4-0.7-0.4-1.2h1.2c0,0.3,0.1,0.5,0.3,0.7c0.2,0.2,0.4,0.3,0.6,0.4c0.3,0.1,0.5,0.1,0.8,0.1c0.3,0,0.6-0.1,0.9-0.2
					c0.3-0.1,0.5-0.3,0.6-0.4c0.1-0.2,0.2-0.4,0.2-0.7c0-0.2-0.1-0.4-0.2-0.6c-0.1-0.1-0.3-0.3-0.5-0.4c-0.2-0.1-0.5-0.2-0.7-0.3
					l-0.9-0.2c-0.6-0.2-1.1-0.4-1.5-0.7c-0.4-0.3-0.5-0.8-0.5-1.3c0-0.4,0.1-0.8,0.4-1.2s0.6-0.6,1-0.8c0.4-0.2,0.9-0.3,1.4-0.3
					c0.5,0,1,0.1,1.4,0.3c0.4,0.2,0.7,0.4,0.9,0.8c0.2,0.3,0.4,0.7,0.4,1.1H178.4z M183.4,119.4c-0.6,0-1.1-0.1-1.5-0.4
					c-0.4-0.2-0.7-0.6-0.9-1c-0.2-0.4-0.3-1-0.3-1.6c0-0.6,0.1-1.1,0.3-1.6c0.2-0.5,0.5-0.8,0.9-1.1c0.4-0.3,0.9-0.4,1.4-0.4
					c0.3,0,0.6,0.1,0.9,0.2s0.6,0.3,0.8,0.5c0.2,0.2,0.4,0.5,0.6,0.9c0.1,0.4,0.2,0.8,0.2,1.3v0.4h-4.6v-0.8h3.5
					c0-0.3-0.1-0.6-0.2-0.8c-0.1-0.2-0.3-0.4-0.5-0.5c-0.2-0.1-0.5-0.2-0.8-0.2c-0.3,0-0.6,0.1-0.8,0.2c-0.2,0.2-0.4,0.4-0.5,0.6
					c-0.1,0.2-0.2,0.5-0.2,0.8v0.7c0,0.4,0.1,0.7,0.2,1c0.1,0.3,0.3,0.5,0.6,0.6c0.2,0.1,0.5,0.2,0.9,0.2c0.2,0,0.4,0,0.6-0.1
					c0.2-0.1,0.3-0.2,0.5-0.3c0.1-0.1,0.2-0.3,0.3-0.5l1.1,0.2c-0.1,0.3-0.2,0.6-0.5,0.8c-0.2,0.2-0.5,0.4-0.8,0.5
					C184.2,119.3,183.9,119.4,183.4,119.4z M188.3,115.8v3.4h-1.1v-5.8h1.1v0.9h0.1c0.1-0.3,0.3-0.6,0.6-0.7
					c0.3-0.2,0.6-0.3,1.1-0.3c0.4,0,0.7,0.1,1,0.2c0.3,0.2,0.5,0.4,0.7,0.7c0.2,0.3,0.2,0.7,0.2,1.2v3.7h-1.1v-3.5
					c0-0.4-0.1-0.7-0.3-1c-0.2-0.2-0.5-0.4-0.9-0.4c-0.3,0-0.5,0.1-0.7,0.2c-0.2,0.1-0.4,0.3-0.5,0.5
					C188.3,115.2,188.3,115.5,188.3,115.8z M195.7,119.4c-0.5,0-0.9-0.1-1.2-0.4c-0.4-0.2-0.6-0.6-0.9-1c-0.2-0.4-0.3-1-0.3-1.6
					s0.1-1.2,0.3-1.6c0.2-0.4,0.5-0.8,0.9-1c0.4-0.2,0.8-0.4,1.2-0.4c0.4,0,0.6,0.1,0.9,0.2c0.2,0.1,0.4,0.3,0.5,0.4
					c0.1,0.2,0.2,0.3,0.3,0.4h0.1v-2.9h1.1v7.7h-1.1v-0.9h-0.1c-0.1,0.1-0.2,0.3-0.3,0.4c-0.1,0.2-0.3,0.3-0.5,0.4
					C196.3,119.3,196,119.4,195.7,119.4z M195.9,118.4c0.3,0,0.6-0.1,0.8-0.3c0.2-0.2,0.4-0.4,0.5-0.7c0.1-0.3,0.2-0.7,0.2-1.1
					c0-0.4-0.1-0.8-0.2-1.1c-0.1-0.3-0.3-0.5-0.5-0.7c-0.2-0.2-0.5-0.3-0.8-0.3c-0.3,0-0.6,0.1-0.8,0.3c-0.2,0.2-0.4,0.4-0.5,0.7
					c-0.1,0.3-0.2,0.6-0.2,1c0,0.4,0.1,0.7,0.2,1c0.1,0.3,0.3,0.6,0.5,0.7C195.3,118.3,195.6,118.4,195.9,118.4z M202.6,119.4
					c-0.6,0-1.1-0.1-1.5-0.4c-0.4-0.2-0.7-0.6-0.9-1c-0.2-0.4-0.3-1-0.3-1.6c0-0.6,0.1-1.1,0.3-1.6c0.2-0.5,0.5-0.8,0.9-1.1
					c0.4-0.3,0.9-0.4,1.4-0.4c0.3,0,0.6,0.1,0.9,0.2c0.3,0.1,0.6,0.3,0.8,0.5c0.2,0.2,0.4,0.5,0.6,0.9c0.1,0.4,0.2,0.8,0.2,1.3v0.4
					h-4.6v-0.8h3.5c0-0.3-0.1-0.6-0.2-0.8c-0.1-0.2-0.3-0.4-0.5-0.5c-0.2-0.1-0.5-0.2-0.8-0.2c-0.3,0-0.6,0.1-0.8,0.2
					c-0.2,0.2-0.4,0.4-0.5,0.6c-0.1,0.2-0.2,0.5-0.2,0.8v0.7c0,0.4,0.1,0.7,0.2,1c0.1,0.3,0.3,0.5,0.6,0.6c0.2,0.1,0.5,0.2,0.9,0.2
					c0.2,0,0.4,0,0.6-0.1c0.2-0.1,0.3-0.2,0.5-0.3c0.1-0.1,0.2-0.3,0.3-0.5l1.1,0.2c-0.1,0.3-0.2,0.6-0.5,0.8
					c-0.2,0.2-0.5,0.4-0.8,0.5C203.4,119.3,203,119.4,202.6,119.4z M206.4,119.2v-5.8h1.1v0.9h0.1c0.1-0.3,0.3-0.6,0.6-0.7
					c0.3-0.2,0.6-0.3,0.9-0.3c0.1,0,0.2,0,0.2,0c0.1,0,0.2,0,0.2,0v1.1c0,0-0.1,0-0.2,0c-0.1,0-0.2,0-0.3,0c-0.3,0-0.5,0.1-0.7,0.2
					c-0.2,0.1-0.4,0.3-0.5,0.5c-0.1,0.2-0.2,0.4-0.2,0.7v3.5H206.4z"/>
				<path class="st5" d="M37.8,156.6c-0.1-0.7-0.4-1.2-0.9-1.5c-0.5-0.4-1.2-0.6-2-0.6c-0.6,0-1.1,0.1-1.5,0.3
					c-0.4,0.2-0.7,0.4-1,0.7c-0.2,0.3-0.3,0.6-0.3,1c0,0.3,0.1,0.6,0.2,0.8c0.2,0.2,0.4,0.4,0.6,0.6c0.3,0.2,0.5,0.3,0.9,0.4
					c0.3,0.1,0.6,0.2,0.9,0.3l1.4,0.4c0.6,0.1,1.1,0.3,1.7,0.5c0.5,0.2,1,0.5,1.5,0.9c0.4,0.4,0.8,0.8,1,1.3
					c0.3,0.5,0.4,1.1,0.4,1.7c0,0.9-0.2,1.7-0.7,2.4c-0.5,0.7-1.1,1.2-2,1.6c-0.9,0.4-1.9,0.6-3.2,0.6c-1.2,0-2.2-0.2-3.1-0.6
					c-0.9-0.4-1.6-0.9-2.1-1.6c-0.5-0.7-0.8-1.6-0.8-2.6h2.7c0,0.5,0.2,1,0.5,1.3c0.3,0.4,0.7,0.6,1.1,0.8c0.5,0.2,1,0.3,1.6,0.3
					c0.6,0,1.1-0.1,1.6-0.3c0.5-0.2,0.8-0.4,1.1-0.8c0.3-0.3,0.4-0.7,0.4-1.2c0-0.4-0.1-0.7-0.4-1c-0.2-0.3-0.6-0.5-1-0.7
					c-0.4-0.2-0.9-0.3-1.4-0.5l-1.8-0.5c-1.3-0.3-2.3-0.8-3-1.5c-0.7-0.7-1.1-1.6-1.1-2.7c0-0.9,0.2-1.7,0.7-2.4
					c0.5-0.7,1.2-1.2,2-1.6c0.9-0.4,1.8-0.6,2.9-0.6c1.1,0,2.1,0.2,2.9,0.6c0.8,0.4,1.5,0.9,2,1.6c0.5,0.7,0.7,1.4,0.7,2.3H37.8z
					 M48.2,168c-1.2,0-2.2-0.2-3-0.7c-0.8-0.5-1.5-1.2-1.9-2.1c-0.5-0.9-0.7-1.9-0.7-3.2c0-1.2,0.2-2.2,0.7-3.1
					c0.5-0.9,1.1-1.6,1.9-2.1c0.8-0.5,1.8-0.8,2.9-0.8c0.7,0,1.4,0.1,2,0.3c0.6,0.2,1.2,0.6,1.7,1.1c0.5,0.5,0.9,1.1,1.2,1.8
					c0.3,0.7,0.4,1.6,0.4,2.6v0.8h-9.5v-1.8h6.9c0-0.5-0.1-1-0.3-1.4c-0.2-0.4-0.5-0.7-0.9-1c-0.4-0.2-0.8-0.4-1.4-0.4
					c-0.6,0-1,0.1-1.5,0.4c-0.4,0.3-0.8,0.6-1,1.1c-0.2,0.4-0.3,0.9-0.4,1.4v1.6c0,0.7,0.1,1.2,0.4,1.7c0.2,0.5,0.6,0.8,1,1.1
					c0.4,0.3,1,0.4,1.6,0.4c0.4,0,0.8-0.1,1.1-0.2c0.3-0.1,0.6-0.3,0.8-0.5c0.2-0.2,0.4-0.5,0.5-0.8l2.5,0.3
					c-0.2,0.7-0.5,1.3-0.9,1.8c-0.4,0.5-1,0.9-1.7,1.2C49.9,167.9,49.1,168,48.2,168z M58.3,161v6.8h-2.7v-11.6h2.6v2h0.1
					c0.3-0.6,0.7-1.2,1.3-1.5c0.6-0.4,1.3-0.6,2.2-0.6c0.8,0,1.5,0.2,2.1,0.5c0.6,0.3,1.1,0.8,1.4,1.5c0.3,0.6,0.5,1.4,0.5,2.4v7.4
					H63v-6.9c0-0.8-0.2-1.4-0.6-1.8c-0.4-0.4-0.9-0.7-1.6-0.7c-0.5,0-0.9,0.1-1.3,0.3c-0.4,0.2-0.7,0.5-0.9,0.9
					C58.4,160,58.3,160.5,58.3,161z M72.8,168c-0.9,0-1.7-0.2-2.4-0.7c-0.7-0.5-1.3-1.1-1.7-2c-0.4-0.9-0.6-2-0.6-3.2
					c0-1.3,0.2-2.4,0.6-3.3c0.4-0.9,1-1.6,1.7-2c0.7-0.5,1.5-0.7,2.4-0.7c0.7,0,1.2,0.1,1.7,0.3c0.4,0.2,0.8,0.5,1,0.8
					c0.3,0.3,0.5,0.6,0.6,0.9h0.1v-5.8H79v15.4h-2.7V166h-0.2c-0.1,0.3-0.3,0.6-0.6,0.9c-0.3,0.3-0.6,0.6-1.1,0.8
					C74,167.9,73.5,168,72.8,168z M73.6,165.8c0.6,0,1.1-0.2,1.5-0.5c0.4-0.3,0.7-0.8,0.9-1.3c0.2-0.6,0.3-1.2,0.3-2
					s-0.1-1.4-0.3-1.9c-0.2-0.6-0.5-1-0.9-1.3c-0.4-0.3-0.9-0.5-1.5-0.5c-0.6,0-1.1,0.2-1.5,0.5c-0.4,0.3-0.7,0.8-0.9,1.3
					c-0.2,0.6-0.3,1.2-0.3,1.9c0,0.7,0.1,1.4,0.3,1.9c0.2,0.6,0.5,1,0.9,1.3C72.5,165.6,73,165.8,73.6,165.8z M87,168
					c-1.2,0-2.2-0.2-3-0.7c-0.8-0.5-1.5-1.2-1.9-2.1c-0.5-0.9-0.7-1.9-0.7-3.2c0-1.2,0.2-2.2,0.7-3.1c0.5-0.9,1.1-1.6,1.9-2.1
					c0.8-0.5,1.8-0.8,2.9-0.8c0.7,0,1.4,0.1,2,0.3c0.6,0.2,1.2,0.6,1.7,1.1c0.5,0.5,0.9,1.1,1.2,1.8c0.3,0.7,0.4,1.6,0.4,2.6v0.8
					h-9.5v-1.8h6.9c0-0.5-0.1-1-0.3-1.4c-0.2-0.4-0.5-0.7-0.9-1c-0.4-0.2-0.8-0.4-1.4-0.4c-0.6,0-1,0.1-1.5,0.4
					c-0.4,0.3-0.8,0.6-1,1.1c-0.2,0.4-0.3,0.9-0.4,1.4v1.6c0,0.7,0.1,1.2,0.4,1.7c0.2,0.5,0.6,0.8,1,1.1c0.4,0.3,1,0.4,1.6,0.4
					c0.4,0,0.8-0.1,1.1-0.2c0.3-0.1,0.6-0.3,0.8-0.5c0.2-0.2,0.4-0.5,0.5-0.8l2.5,0.3c-0.2,0.7-0.5,1.3-0.9,1.8
					c-0.4,0.5-1,0.9-1.7,1.2C88.7,167.9,87.9,168,87,168z M94.5,167.8v-11.6h2.6v1.9h0.1c0.2-0.7,0.6-1.2,1.1-1.5
					c0.5-0.4,1.1-0.6,1.8-0.6c0.2,0,0.3,0,0.5,0c0.2,0,0.3,0,0.5,0.1v2.5c-0.1,0-0.3-0.1-0.6-0.1c-0.2,0-0.5-0.1-0.7-0.1
					c-0.5,0-0.9,0.1-1.3,0.3c-0.4,0.2-0.7,0.5-0.9,0.9c-0.2,0.4-0.3,0.8-0.3,1.3v6.8H94.5z"/>
				<path class="st7" d="M34.7,186.6c-0.1-0.5-0.3-0.9-0.7-1.2c-0.4-0.3-1-0.4-1.6-0.4c-0.5,0-0.9,0.1-1.2,0.2
					c-0.3,0.1-0.6,0.4-0.8,0.6c-0.2,0.3-0.3,0.6-0.3,0.9c0,0.3,0.1,0.5,0.2,0.7c0.1,0.2,0.3,0.4,0.5,0.5c0.2,0.1,0.4,0.2,0.7,0.3
					c0.2,0.1,0.4,0.1,0.6,0.2l1,0.3c0.3,0.1,0.6,0.2,0.9,0.3c0.3,0.1,0.6,0.3,0.9,0.5c0.3,0.2,0.6,0.5,0.8,0.8
					c0.2,0.3,0.3,0.7,0.3,1.2c0,0.6-0.1,1.1-0.4,1.5c-0.3,0.4-0.7,0.8-1.3,1.1c-0.6,0.3-1.2,0.4-2,0.4c-0.7,0-1.4-0.1-1.9-0.4
					c-0.5-0.2-1-0.6-1.3-1c-0.3-0.4-0.5-0.9-0.5-1.5H30c0,0.4,0.2,0.7,0.4,1c0.2,0.3,0.5,0.4,0.9,0.6c0.4,0.1,0.7,0.2,1.1,0.2
					c0.5,0,0.9-0.1,1.3-0.2c0.4-0.2,0.7-0.4,0.9-0.7c0.2-0.3,0.3-0.6,0.3-1c0-0.3-0.1-0.6-0.3-0.8c-0.2-0.2-0.4-0.4-0.8-0.5
					c-0.3-0.1-0.6-0.3-1-0.4l-1.3-0.4c-0.8-0.2-1.4-0.6-1.9-1c-0.5-0.4-0.7-1-0.7-1.7c0-0.6,0.2-1.1,0.5-1.5c0.3-0.4,0.7-0.8,1.3-1
					c0.5-0.2,1.1-0.4,1.8-0.4c0.7,0,1.3,0.1,1.8,0.4c0.5,0.2,0.9,0.6,1.2,1c0.3,0.4,0.5,0.9,0.5,1.4H34.7z M41.2,194.5
					c-0.7,0-1.4-0.2-1.9-0.5c-0.5-0.3-0.9-0.8-1.2-1.4c-0.3-0.6-0.4-1.3-0.4-2.1c0-0.8,0.1-1.5,0.4-2.1c0.3-0.6,0.7-1.1,1.2-1.4
					c0.5-0.3,1.1-0.5,1.8-0.5c0.4,0,0.8,0.1,1.2,0.2c0.4,0.1,0.7,0.4,1.1,0.7c0.3,0.3,0.6,0.7,0.8,1.2c0.2,0.5,0.3,1.1,0.3,1.8v0.5
					h-5.9v-1h4.7c0-0.4-0.1-0.8-0.3-1.2c-0.2-0.3-0.4-0.6-0.7-0.8c-0.3-0.2-0.7-0.3-1.1-0.3c-0.5,0-0.9,0.1-1.2,0.4
					c-0.3,0.2-0.6,0.5-0.8,0.9c-0.2,0.4-0.3,0.8-0.3,1.2v0.7c0,0.6,0.1,1.1,0.3,1.5c0.2,0.4,0.5,0.7,0.8,0.9
					c0.4,0.2,0.8,0.3,1.3,0.3c0.3,0,0.6,0,0.8-0.1c0.3-0.1,0.5-0.2,0.7-0.4c0.2-0.2,0.3-0.4,0.4-0.7l1.1,0.3c-0.1,0.4-0.3,0.7-0.6,1
					c-0.3,0.3-0.6,0.5-1.1,0.7C42.2,194.4,41.7,194.5,41.2,194.5z M47.4,189.7v4.6h-1.2v-7.7h1.1v1.2h0.1c0.2-0.4,0.5-0.7,0.8-0.9
					c0.4-0.2,0.8-0.4,1.4-0.4c0.5,0,1,0.1,1.4,0.3c0.4,0.2,0.7,0.5,0.9,1c0.2,0.4,0.3,1,0.3,1.6v4.9h-1.2v-4.8
					c0-0.6-0.2-1.1-0.5-1.4c-0.3-0.3-0.7-0.5-1.3-0.5c-0.4,0-0.7,0.1-1,0.2c-0.3,0.2-0.5,0.4-0.7,0.7
					C47.5,188.9,47.4,189.2,47.4,189.7z M57.4,194.5c-0.6,0-1.2-0.2-1.7-0.5c-0.5-0.3-0.9-0.8-1.2-1.4c-0.3-0.6-0.4-1.3-0.4-2.1
					c0-0.8,0.1-1.5,0.4-2.1c0.3-0.6,0.7-1.1,1.2-1.4c0.5-0.3,1.1-0.5,1.7-0.5c0.5,0,0.9,0.1,1.2,0.3c0.3,0.2,0.5,0.4,0.7,0.6
					c0.2,0.2,0.3,0.4,0.4,0.5h0.1V184h1.2v10.3h-1.1v-1.2h-0.1c-0.1,0.1-0.2,0.3-0.4,0.5c-0.2,0.2-0.4,0.4-0.7,0.6
					C58.3,194.4,57.9,194.5,57.4,194.5z M57.5,193.4c0.5,0,0.9-0.1,1.2-0.4c0.3-0.3,0.6-0.6,0.7-1c0.2-0.4,0.3-1,0.3-1.5
					c0-0.6-0.1-1.1-0.3-1.5c-0.2-0.4-0.4-0.8-0.7-1c-0.3-0.2-0.7-0.4-1.2-0.4c-0.5,0-0.9,0.1-1.3,0.4c-0.3,0.3-0.6,0.6-0.7,1
					c-0.2,0.4-0.2,0.9-0.2,1.5c0,0.5,0.1,1,0.3,1.5c0.2,0.4,0.4,0.8,0.8,1.1C56.6,193.3,57.1,193.4,57.5,193.4z M69.5,194.5
					c-0.5,0-0.9-0.1-1.3-0.3c-0.4-0.2-0.7-0.5-0.9-0.8c-0.2-0.4-0.4-0.8-0.4-1.3c0-0.4,0.1-0.8,0.3-1.1c0.2-0.3,0.4-0.5,0.7-0.7
					c0.3-0.2,0.6-0.3,1-0.4c0.4-0.1,0.7-0.1,1.1-0.2c0.5-0.1,0.8-0.1,1.1-0.1c0.3,0,0.5-0.1,0.6-0.2c0.1-0.1,0.2-0.2,0.2-0.4v0
					c0-0.5-0.1-0.9-0.4-1.2c-0.3-0.3-0.7-0.4-1.2-0.4c-0.6,0-1,0.1-1.3,0.4c-0.3,0.2-0.5,0.5-0.7,0.8l-1.1-0.4
					c0.2-0.5,0.5-0.8,0.8-1.1c0.3-0.3,0.7-0.4,1.1-0.6c0.4-0.1,0.8-0.2,1.2-0.2c0.2,0,0.5,0,0.9,0.1c0.3,0.1,0.6,0.2,0.9,0.4
					c0.3,0.2,0.6,0.5,0.8,0.8c0.2,0.4,0.3,0.9,0.3,1.5v5.1h-1.2v-1h-0.1c-0.1,0.2-0.2,0.3-0.4,0.5c-0.2,0.2-0.4,0.4-0.7,0.5
					C70.3,194.4,69.9,194.5,69.5,194.5z M69.7,193.4c0.5,0,0.9-0.1,1.2-0.3c0.3-0.2,0.6-0.4,0.7-0.7c0.2-0.3,0.3-0.6,0.3-0.9v-1.1
					c-0.1,0.1-0.2,0.1-0.3,0.2c-0.2,0-0.4,0.1-0.6,0.1c-0.2,0-0.4,0.1-0.6,0.1c-0.2,0-0.4,0-0.5,0.1c-0.3,0-0.6,0.1-0.9,0.2
					c-0.3,0.1-0.5,0.2-0.6,0.4c-0.2,0.2-0.2,0.4-0.2,0.7c0,0.4,0.2,0.7,0.5,0.9C68.8,193.3,69.2,193.4,69.7,193.4z M79.3,194.3V184
					h1.2v3.8h0.1c0.1-0.1,0.2-0.3,0.4-0.5c0.2-0.2,0.4-0.4,0.7-0.6c0.3-0.2,0.7-0.3,1.2-0.3c0.6,0,1.2,0.2,1.7,0.5
					c0.5,0.3,0.9,0.8,1.2,1.4c0.3,0.6,0.4,1.3,0.4,2.1c0,0.8-0.1,1.5-0.4,2.1c-0.3,0.6-0.7,1.1-1.2,1.4c-0.5,0.3-1.1,0.5-1.7,0.5
					c-0.5,0-0.9-0.1-1.2-0.2c-0.3-0.2-0.5-0.4-0.7-0.6c-0.2-0.2-0.3-0.4-0.4-0.5h-0.1v1.2H79.3z M80.5,190.5c0,0.6,0.1,1.1,0.3,1.5
					c0.2,0.4,0.4,0.8,0.7,1c0.3,0.2,0.7,0.4,1.2,0.4c0.5,0,0.9-0.1,1.2-0.4c0.3-0.3,0.6-0.6,0.8-1.1c0.2-0.4,0.3-0.9,0.3-1.5
					c0-0.5-0.1-1-0.3-1.5c-0.2-0.4-0.4-0.8-0.7-1c-0.3-0.3-0.7-0.4-1.2-0.4c-0.5,0-0.9,0.1-1.2,0.4c-0.3,0.2-0.6,0.6-0.7,1
					C80.6,189.4,80.5,189.9,80.5,190.5z M92.8,191.2v-4.6H94v7.7h-1.2V193h-0.1c-0.2,0.4-0.5,0.7-0.8,1c-0.4,0.3-0.9,0.4-1.4,0.4
					c-0.5,0-0.9-0.1-1.3-0.3c-0.4-0.2-0.7-0.5-0.9-1c-0.2-0.4-0.3-1-0.3-1.6v-4.9h1.2v4.8c0,0.6,0.2,1,0.5,1.3
					c0.3,0.3,0.7,0.5,1.2,0.5c0.3,0,0.6-0.1,0.9-0.2c0.3-0.2,0.6-0.4,0.8-0.7C92.7,192.1,92.8,191.7,92.8,191.2z M97.4,189.7v4.6
					h-1.2v-7.7h1.1v1.2h0.1c0.2-0.4,0.5-0.7,0.8-0.9c0.4-0.2,0.8-0.4,1.4-0.4c0.5,0,1,0.1,1.4,0.3c0.4,0.2,0.7,0.5,0.9,1
					c0.2,0.4,0.3,1,0.3,1.6v4.9h-1.2v-4.8c0-0.6-0.2-1.1-0.5-1.4c-0.3-0.3-0.7-0.5-1.3-0.5c-0.4,0-0.7,0.1-1,0.2
					c-0.3,0.2-0.5,0.4-0.7,0.7C97.4,188.9,97.4,189.2,97.4,189.7z M107.6,194.5c-0.7,0-1.3-0.2-1.9-0.5c-0.5-0.3-0.9-0.8-1.2-1.4
					s-0.4-1.3-0.4-2.1c0-0.8,0.1-1.5,0.4-2.1c0.3-0.6,0.7-1.1,1.2-1.4c0.5-0.3,1.1-0.5,1.8-0.5c0.5,0,1,0.1,1.5,0.3
					c0.4,0.2,0.8,0.5,1.1,0.8c0.3,0.4,0.5,0.8,0.5,1.3h-1.2c-0.1-0.4-0.3-0.7-0.6-0.9c-0.3-0.3-0.7-0.4-1.2-0.4
					c-0.5,0-0.9,0.1-1.2,0.4c-0.3,0.2-0.6,0.6-0.8,1c-0.2,0.4-0.3,0.9-0.3,1.5c0,0.6,0.1,1.1,0.3,1.6c0.2,0.4,0.5,0.8,0.8,1
					c0.3,0.2,0.8,0.4,1.2,0.4c0.3,0,0.6-0.1,0.8-0.2c0.3-0.1,0.5-0.3,0.6-0.5c0.2-0.2,0.3-0.4,0.4-0.7h1.2c-0.1,0.5-0.2,0.9-0.5,1.2
					c-0.3,0.4-0.6,0.6-1,0.9C108.6,194.4,108.1,194.5,107.6,194.5z M113.5,189.7v4.6h-1.2V184h1.2v3.8h0.1c0.2-0.4,0.5-0.7,0.8-0.9
					c0.4-0.2,0.8-0.4,1.5-0.4c0.5,0,1,0.1,1.4,0.3c0.4,0.2,0.7,0.5,0.9,1c0.2,0.4,0.3,1,0.3,1.6v4.9h-1.2v-4.8
					c0-0.6-0.2-1.1-0.5-1.4c-0.3-0.3-0.8-0.5-1.3-0.5c-0.4,0-0.7,0.1-1,0.2c-0.3,0.2-0.5,0.4-0.7,0.7
					C113.6,188.9,113.5,189.2,113.5,189.7z M127.8,194.5c-0.7,0-1.3-0.2-1.8-0.5c-0.5-0.3-0.9-0.8-1.2-1.4c-0.3-0.6-0.4-1.3-0.4-2.1
					c0-0.8,0.1-1.5,0.4-2.1c0.3-0.6,0.7-1.1,1.2-1.4c0.5-0.3,1.1-0.5,1.8-0.5s1.3,0.2,1.8,0.5c0.5,0.3,0.9,0.8,1.2,1.4
					c0.3,0.6,0.4,1.3,0.4,2.1c0,0.8-0.1,1.5-0.4,2.1c-0.3,0.6-0.7,1.1-1.2,1.4C129.1,194.3,128.5,194.5,127.8,194.5z M127.8,193.4
					c0.5,0,1-0.1,1.3-0.4c0.3-0.3,0.6-0.6,0.8-1.1c0.2-0.4,0.2-0.9,0.2-1.4c0-0.5-0.1-1-0.2-1.4s-0.4-0.8-0.8-1.1
					c-0.3-0.3-0.8-0.4-1.3-0.4c-0.5,0-1,0.1-1.3,0.4c-0.3,0.3-0.6,0.6-0.8,1.1s-0.2,0.9-0.2,1.4c0,0.5,0.1,1,0.2,1.4
					c0.2,0.4,0.4,0.8,0.8,1.1C126.8,193.3,127.3,193.4,127.8,193.4z M136.5,186.6v1h-4.2v-1H136.5z M133.6,194.3v-8.8
					c0-0.4,0.1-0.8,0.3-1.1c0.2-0.3,0.5-0.5,0.8-0.7c0.3-0.1,0.7-0.2,1.1-0.2c0.3,0,0.5,0,0.7,0.1c0.2,0,0.3,0.1,0.4,0.1l-0.3,1
					c-0.1,0-0.1,0-0.3-0.1c-0.1,0-0.2,0-0.4,0c-0.4,0-0.7,0.1-0.8,0.3c-0.2,0.2-0.3,0.5-0.3,0.9v8.5H133.6z M145.1,194.5
					c-0.6,0-1.2-0.2-1.7-0.5c-0.5-0.3-0.9-0.8-1.2-1.4c-0.3-0.6-0.4-1.3-0.4-2.1c0-0.8,0.1-1.5,0.4-2.1c0.3-0.6,0.7-1.1,1.2-1.4
					c0.5-0.3,1.1-0.5,1.7-0.5c0.5,0,0.9,0.1,1.2,0.3c0.3,0.2,0.5,0.4,0.7,0.6c0.2,0.2,0.3,0.4,0.4,0.5h0.1V184h1.2v10.3h-1.1v-1.2
					h-0.1c-0.1,0.1-0.2,0.3-0.4,0.5c-0.2,0.2-0.4,0.4-0.7,0.6C146,194.4,145.6,194.5,145.1,194.5z M145.2,193.4
					c0.5,0,0.9-0.1,1.2-0.4c0.3-0.3,0.6-0.6,0.7-1c0.2-0.4,0.3-1,0.3-1.5c0-0.6-0.1-1.1-0.3-1.5c-0.2-0.4-0.4-0.8-0.7-1
					c-0.3-0.2-0.7-0.4-1.2-0.4c-0.5,0-0.9,0.1-1.3,0.4c-0.3,0.3-0.6,0.6-0.7,1c-0.2,0.4-0.2,0.9-0.2,1.5c0,0.5,0.1,1,0.3,1.5
					c0.2,0.4,0.4,0.8,0.8,1.1C144.3,193.3,144.7,193.4,145.2,193.4z M151,194.3v-7.7h1.2v7.7H151z M151.6,185.3
					c-0.2,0-0.4-0.1-0.6-0.2c-0.2-0.2-0.2-0.3-0.2-0.6c0-0.2,0.1-0.4,0.2-0.6c0.2-0.2,0.4-0.2,0.6-0.2c0.2,0,0.4,0.1,0.6,0.2
					c0.2,0.2,0.3,0.3,0.3,0.6c0,0.2-0.1,0.4-0.3,0.6C152,185.2,151.8,185.3,151.6,185.3z M157.7,186.6v1h-4.2v-1H157.7z
					 M154.8,194.3v-8.8c0-0.4,0.1-0.8,0.3-1.1c0.2-0.3,0.5-0.5,0.8-0.7c0.3-0.1,0.7-0.2,1-0.2c0.3,0,0.5,0,0.7,0.1
					c0.2,0,0.3,0.1,0.4,0.1l-0.3,1c-0.1,0-0.1,0-0.3-0.1c-0.1,0-0.2,0-0.4,0c-0.4,0-0.7,0.1-0.8,0.3c-0.2,0.2-0.3,0.5-0.3,0.9v8.5
					H154.8z M162.8,186.6v1h-4.2v-1H162.8z M159.9,194.3v-8.8c0-0.4,0.1-0.8,0.3-1.1c0.2-0.3,0.5-0.5,0.8-0.7c0.3-0.1,0.7-0.2,1-0.2
					c0.3,0,0.5,0,0.7,0.1s0.3,0.1,0.4,0.1l-0.3,1c-0.1,0-0.1,0-0.3-0.1c-0.1,0-0.2,0-0.4,0c-0.4,0-0.7,0.1-0.8,0.3
					c-0.2,0.2-0.3,0.5-0.3,0.9v8.5H159.9z M167.4,194.5c-0.7,0-1.4-0.2-1.9-0.5c-0.5-0.3-0.9-0.8-1.2-1.4c-0.3-0.6-0.4-1.3-0.4-2.1
					c0-0.8,0.1-1.5,0.4-2.1c0.3-0.6,0.7-1.1,1.2-1.4c0.5-0.3,1.1-0.5,1.8-0.5c0.4,0,0.8,0.1,1.2,0.2c0.4,0.1,0.7,0.4,1.1,0.7
					c0.3,0.3,0.6,0.7,0.8,1.2s0.3,1.1,0.3,1.8v0.5h-5.9v-1h4.7c0-0.4-0.1-0.8-0.3-1.2c-0.2-0.3-0.4-0.6-0.7-0.8
					c-0.3-0.2-0.7-0.3-1.1-0.3c-0.5,0-0.9,0.1-1.2,0.4c-0.3,0.2-0.6,0.5-0.8,0.9c-0.2,0.4-0.3,0.8-0.3,1.2v0.7
					c0,0.6,0.1,1.1,0.3,1.5c0.2,0.4,0.5,0.7,0.8,0.9c0.4,0.2,0.8,0.3,1.3,0.3c0.3,0,0.6,0,0.8-0.1c0.3-0.1,0.5-0.2,0.7-0.4
					c0.2-0.2,0.3-0.4,0.4-0.7l1.1,0.3c-0.1,0.4-0.3,0.7-0.6,1c-0.3,0.3-0.6,0.5-1.1,0.7C168.4,194.4,167.9,194.5,167.4,194.5z
					 M172.4,194.3v-7.7h1.1v1.2h0.1c0.1-0.4,0.4-0.7,0.8-0.9c0.4-0.2,0.8-0.4,1.2-0.4c0.1,0,0.2,0,0.3,0c0.1,0,0.2,0,0.3,0v1.2
					c0,0-0.1,0-0.3,0c-0.1,0-0.3,0-0.4,0c-0.4,0-0.7,0.1-1,0.2c-0.3,0.2-0.5,0.4-0.7,0.6c-0.2,0.3-0.3,0.6-0.3,0.9v4.9H172.4z
					 M180.7,194.5c-0.7,0-1.4-0.2-1.9-0.5c-0.5-0.3-0.9-0.8-1.2-1.4c-0.3-0.6-0.4-1.3-0.4-2.1c0-0.8,0.1-1.5,0.4-2.1
					c0.3-0.6,0.7-1.1,1.2-1.4c0.5-0.3,1.1-0.5,1.8-0.5c0.4,0,0.8,0.1,1.2,0.2c0.4,0.1,0.7,0.4,1.1,0.7c0.3,0.3,0.6,0.7,0.8,1.2
					c0.2,0.5,0.3,1.1,0.3,1.8v0.5h-5.9v-1h4.7c0-0.4-0.1-0.8-0.3-1.2c-0.2-0.3-0.4-0.6-0.7-0.8c-0.3-0.2-0.7-0.3-1.1-0.3
					c-0.5,0-0.9,0.1-1.2,0.4c-0.3,0.2-0.6,0.5-0.8,0.9c-0.2,0.4-0.3,0.8-0.3,1.2v0.7c0,0.6,0.1,1.1,0.3,1.5c0.2,0.4,0.5,0.7,0.8,0.9
					c0.4,0.2,0.8,0.3,1.3,0.3c0.3,0,0.6,0,0.8-0.1c0.3-0.1,0.5-0.2,0.7-0.4c0.2-0.2,0.3-0.4,0.4-0.7l1.1,0.3c-0.1,0.4-0.3,0.7-0.6,1
					c-0.3,0.3-0.6,0.5-1.1,0.7C181.7,194.4,181.2,194.5,180.7,194.5z M186.8,189.7v4.6h-1.2v-7.7h1.1v1.2h0.1
					c0.2-0.4,0.5-0.7,0.8-0.9c0.4-0.2,0.8-0.4,1.4-0.4c0.5,0,1,0.1,1.4,0.3c0.4,0.2,0.7,0.5,0.9,1c0.2,0.4,0.3,1,0.3,1.6v4.9h-1.2
					v-4.8c0-0.6-0.2-1.1-0.5-1.4c-0.3-0.3-0.7-0.5-1.3-0.5c-0.4,0-0.7,0.1-1,0.2c-0.3,0.2-0.5,0.4-0.7,0.7
					C186.9,188.9,186.8,189.2,186.8,189.7z M197.3,186.6v1h-4v-1H197.3z M194.5,184.8h1.2v7.3c0,0.3,0,0.6,0.1,0.8
					c0.1,0.2,0.2,0.3,0.4,0.3c0.2,0.1,0.3,0.1,0.5,0.1c0.1,0,0.2,0,0.3,0c0.1,0,0.2,0,0.2,0l0.2,1.1c-0.1,0-0.2,0.1-0.3,0.1
					c-0.1,0-0.3,0.1-0.5,0.1c-0.3,0-0.7-0.1-1-0.2c-0.3-0.1-0.6-0.4-0.8-0.7c-0.2-0.3-0.3-0.7-0.3-1.1V184.8z M206.3,194.5
					c-0.7,0-1.4-0.2-1.9-0.5c-0.5-0.3-0.9-0.8-1.2-1.4c-0.3-0.6-0.4-1.3-0.4-2.1c0-0.8,0.1-1.5,0.4-2.1c0.3-0.6,0.7-1.1,1.2-1.4
					c0.5-0.3,1.1-0.5,1.8-0.5c0.4,0,0.8,0.1,1.2,0.2c0.4,0.1,0.7,0.4,1.1,0.7c0.3,0.3,0.6,0.7,0.8,1.2c0.2,0.5,0.3,1.1,0.3,1.8v0.5
					h-5.9v-1h4.7c0-0.4-0.1-0.8-0.3-1.2c-0.2-0.3-0.4-0.6-0.7-0.8c-0.3-0.2-0.7-0.3-1.1-0.3c-0.5,0-0.9,0.1-1.2,0.4
					c-0.3,0.2-0.6,0.5-0.8,0.9c-0.2,0.4-0.3,0.8-0.3,1.2v0.7c0,0.6,0.1,1.1,0.3,1.5c0.2,0.4,0.5,0.7,0.8,0.9
					c0.4,0.2,0.8,0.3,1.3,0.3c0.3,0,0.6,0,0.8-0.1c0.3-0.1,0.5-0.2,0.7-0.4c0.2-0.2,0.3-0.4,0.4-0.7l1.1,0.3c-0.1,0.4-0.3,0.7-0.6,1
					c-0.3,0.3-0.6,0.5-1.1,0.7C207.3,194.4,206.8,194.5,206.3,194.5z M211.3,194.3v-7.7h1.1v1.2h0.1c0.2-0.4,0.4-0.7,0.8-1
					c0.4-0.2,0.8-0.3,1.3-0.3c0.5,0,0.9,0.1,1.3,0.3c0.3,0.2,0.6,0.5,0.8,1h0.1c0.2-0.4,0.5-0.7,0.9-0.9c0.4-0.2,0.9-0.4,1.4-0.4
					c0.7,0,1.3,0.2,1.7,0.6c0.4,0.4,0.7,1.1,0.7,2v5.2h-1.2v-5.2c0-0.6-0.2-1-0.5-1.2c-0.3-0.2-0.7-0.4-1.1-0.4
					c-0.5,0-1,0.2-1.3,0.5c-0.3,0.3-0.4,0.7-0.4,1.2v5h-1.2V189c0-0.4-0.1-0.8-0.4-1.1c-0.3-0.3-0.7-0.4-1.1-0.4
					c-0.3,0-0.6,0.1-0.9,0.2c-0.3,0.2-0.5,0.4-0.6,0.7c-0.2,0.3-0.2,0.6-0.2,1v4.8H211.3z M225.8,194.5c-0.5,0-0.9-0.1-1.3-0.3
					c-0.4-0.2-0.7-0.5-0.9-0.8c-0.2-0.4-0.4-0.8-0.4-1.3c0-0.4,0.1-0.8,0.3-1.1c0.2-0.3,0.4-0.5,0.7-0.7c0.3-0.2,0.6-0.3,1-0.4
					c0.4-0.1,0.7-0.1,1.1-0.2c0.5-0.1,0.8-0.1,1.1-0.1c0.3,0,0.5-0.1,0.6-0.2c0.1-0.1,0.2-0.2,0.2-0.4v0c0-0.5-0.1-0.9-0.4-1.2
					c-0.3-0.3-0.7-0.4-1.2-0.4c-0.6,0-1,0.1-1.3,0.4c-0.3,0.2-0.5,0.5-0.7,0.8l-1.1-0.4c0.2-0.5,0.5-0.8,0.8-1.1
					c0.3-0.3,0.7-0.4,1.1-0.6c0.4-0.1,0.8-0.2,1.2-0.2c0.2,0,0.5,0,0.9,0.1c0.3,0.1,0.6,0.2,0.9,0.4c0.3,0.2,0.6,0.5,0.8,0.8
					c0.2,0.4,0.3,0.9,0.3,1.5v5.1h-1.2v-1h-0.1c-0.1,0.2-0.2,0.3-0.4,0.5c-0.2,0.2-0.4,0.4-0.7,0.5
					C226.7,194.4,226.3,194.5,225.8,194.5z M226,193.4c0.5,0,0.9-0.1,1.2-0.3c0.3-0.2,0.6-0.4,0.7-0.7c0.2-0.3,0.3-0.6,0.3-0.9v-1.1
					c-0.1,0.1-0.2,0.1-0.3,0.2c-0.2,0-0.4,0.1-0.6,0.1c-0.2,0-0.4,0.1-0.6,0.1c-0.2,0-0.4,0-0.5,0.1c-0.3,0-0.6,0.1-0.9,0.2
					c-0.3,0.1-0.5,0.2-0.6,0.4c-0.2,0.2-0.2,0.4-0.2,0.7c0,0.4,0.2,0.7,0.5,0.9C225.1,193.3,225.5,193.4,226,193.4z M231.5,194.3
					v-7.7h1.2v7.7H231.5z M232.1,185.3c-0.2,0-0.4-0.1-0.6-0.2c-0.2-0.2-0.2-0.3-0.2-0.6c0-0.2,0.1-0.4,0.2-0.6
					c0.2-0.2,0.4-0.2,0.6-0.2s0.4,0.1,0.6,0.2c0.2,0.2,0.3,0.3,0.3,0.6c0,0.2-0.1,0.4-0.3,0.6C232.6,185.2,232.4,185.3,232.1,185.3z
					 M236.1,184v10.3h-1.2V184H236.1z M243.7,188.3l-1.1,0.3c-0.1-0.2-0.2-0.3-0.3-0.5c-0.1-0.2-0.3-0.3-0.5-0.4
					c-0.2-0.1-0.5-0.2-0.8-0.2c-0.5,0-0.9,0.1-1.2,0.3c-0.3,0.2-0.5,0.5-0.5,0.8c0,0.3,0.1,0.5,0.3,0.7c0.2,0.2,0.5,0.3,1,0.4
					l1.1,0.3c0.7,0.2,1.2,0.4,1.5,0.8c0.3,0.3,0.5,0.8,0.5,1.3c0,0.4-0.1,0.8-0.4,1.2c-0.3,0.3-0.6,0.6-1.1,0.8
					c-0.5,0.2-1,0.3-1.6,0.3c-0.8,0-1.4-0.2-2-0.5c-0.5-0.3-0.8-0.8-1-1.5l1.1-0.3c0.1,0.4,0.3,0.7,0.6,0.9c0.3,0.2,0.7,0.3,1.2,0.3
					c0.6,0,1-0.1,1.3-0.4c0.3-0.2,0.5-0.5,0.5-0.9c0-0.3-0.1-0.5-0.3-0.7c-0.2-0.2-0.5-0.3-0.9-0.4l-1.3-0.3
					c-0.7-0.2-1.2-0.4-1.6-0.8c-0.3-0.4-0.5-0.8-0.5-1.3c0-0.4,0.1-0.8,0.4-1.2c0.2-0.3,0.6-0.6,1-0.8c0.4-0.2,0.9-0.3,1.5-0.3
					c0.8,0,1.4,0.2,1.8,0.5C243.2,187.4,243.5,187.8,243.7,188.3z M251.9,194.5c-0.5,0-0.9-0.1-1.3-0.3c-0.4-0.2-0.7-0.5-0.9-0.8
					c-0.2-0.4-0.4-0.8-0.4-1.3c0-0.4,0.1-0.8,0.3-1.1c0.2-0.3,0.4-0.5,0.7-0.7c0.3-0.2,0.6-0.3,1-0.4c0.4-0.1,0.7-0.1,1.1-0.2
					c0.5-0.1,0.8-0.1,1.1-0.1c0.3,0,0.5-0.1,0.6-0.2c0.1-0.1,0.2-0.2,0.2-0.4v0c0-0.5-0.1-0.9-0.4-1.2c-0.3-0.3-0.7-0.4-1.2-0.4
					c-0.6,0-1,0.1-1.3,0.4c-0.3,0.2-0.5,0.5-0.7,0.8l-1.1-0.4c0.2-0.5,0.5-0.8,0.8-1.1c0.3-0.3,0.7-0.4,1.1-0.6
					c0.4-0.1,0.8-0.2,1.2-0.2c0.2,0,0.5,0,0.9,0.1c0.3,0.1,0.6,0.2,0.9,0.4c0.3,0.2,0.6,0.5,0.8,0.8c0.2,0.4,0.3,0.9,0.3,1.5v5.1
					h-1.2v-1h-0.1c-0.1,0.2-0.2,0.3-0.4,0.5c-0.2,0.2-0.4,0.4-0.7,0.5C252.7,194.4,252.3,194.5,251.9,194.5z M252,193.4
					c0.5,0,0.9-0.1,1.2-0.3c0.3-0.2,0.6-0.4,0.7-0.7c0.2-0.3,0.3-0.6,0.3-0.9v-1.1c-0.1,0.1-0.2,0.1-0.3,0.2c-0.2,0-0.4,0.1-0.6,0.1
					c-0.2,0-0.4,0.1-0.6,0.1c-0.2,0-0.4,0-0.5,0.1c-0.3,0-0.6,0.1-0.9,0.2c-0.3,0.1-0.5,0.2-0.6,0.4c-0.2,0.2-0.2,0.4-0.2,0.7
					c0,0.4,0.2,0.7,0.5,0.9C251.2,193.3,251.6,193.4,252,193.4z M260.9,186.6v1h-4v-1H260.9z M258.1,184.8h1.2v7.3
					c0,0.3,0,0.6,0.1,0.8c0.1,0.2,0.2,0.3,0.4,0.3c0.2,0.1,0.3,0.1,0.5,0.1c0.1,0,0.2,0,0.3,0c0.1,0,0.1,0,0.2,0l0.2,1.1
					c-0.1,0-0.2,0.1-0.3,0.1c-0.1,0-0.3,0.1-0.5,0.1c-0.3,0-0.7-0.1-1-0.2c-0.3-0.1-0.6-0.4-0.8-0.7c-0.2-0.3-0.3-0.7-0.3-1.1V184.8
					z M269.8,194.5c-0.7,0-1.3-0.2-1.8-0.5c-0.5-0.3-0.9-0.8-1.2-1.4c-0.3-0.6-0.4-1.3-0.4-2.1c0-0.8,0.1-1.5,0.4-2.1
					c0.3-0.6,0.7-1.1,1.2-1.4c0.5-0.3,1.1-0.5,1.8-0.5c0.7,0,1.3,0.2,1.8,0.5c0.5,0.3,0.9,0.8,1.2,1.4c0.3,0.6,0.4,1.3,0.4,2.1
					c0,0.8-0.1,1.5-0.4,2.1c-0.3,0.6-0.7,1.1-1.2,1.4C271.1,194.3,270.5,194.5,269.8,194.5z M269.8,193.4c0.5,0,1-0.1,1.3-0.4
					c0.3-0.3,0.6-0.6,0.8-1.1c0.2-0.4,0.2-0.9,0.2-1.4c0-0.5-0.1-1-0.2-1.4s-0.4-0.8-0.8-1.1c-0.3-0.3-0.8-0.4-1.3-0.4
					c-0.5,0-1,0.1-1.3,0.4c-0.3,0.3-0.6,0.6-0.8,1.1s-0.2,0.9-0.2,1.4c0,0.5,0.1,1,0.2,1.4c0.2,0.4,0.4,0.8,0.8,1.1
					C268.8,193.3,269.3,193.4,269.8,193.4z M276.3,189.7v4.6h-1.2v-7.7h1.1v1.2h0.1c0.2-0.4,0.5-0.7,0.8-0.9
					c0.4-0.2,0.8-0.4,1.4-0.4c0.5,0,1,0.1,1.4,0.3c0.4,0.2,0.7,0.5,0.9,1c0.2,0.4,0.3,1,0.3,1.6v4.9H280v-4.8c0-0.6-0.2-1.1-0.5-1.4
					c-0.3-0.3-0.7-0.5-1.3-0.5c-0.4,0-0.7,0.1-1,0.2c-0.3,0.2-0.5,0.4-0.7,0.7C276.4,188.9,276.3,189.2,276.3,189.7z M286.5,194.5
					c-0.7,0-1.3-0.2-1.9-0.5c-0.5-0.3-0.9-0.8-1.2-1.4c-0.3-0.6-0.4-1.3-0.4-2.1c0-0.8,0.1-1.5,0.4-2.1c0.3-0.6,0.7-1.1,1.2-1.4
					c0.5-0.3,1.1-0.5,1.8-0.5c0.5,0,1,0.1,1.5,0.3s0.8,0.5,1.1,0.8c0.3,0.4,0.5,0.8,0.5,1.3h-1.2c-0.1-0.4-0.3-0.7-0.6-0.9
					c-0.3-0.3-0.7-0.4-1.2-0.4c-0.5,0-0.9,0.1-1.2,0.4c-0.3,0.2-0.6,0.6-0.8,1c-0.2,0.4-0.3,0.9-0.3,1.5c0,0.6,0.1,1.1,0.3,1.6
					c0.2,0.4,0.5,0.8,0.8,1c0.3,0.2,0.8,0.4,1.2,0.4c0.3,0,0.6-0.1,0.8-0.2s0.5-0.3,0.6-0.5c0.2-0.2,0.3-0.4,0.4-0.7h1.2
					c-0.1,0.5-0.2,0.9-0.5,1.2c-0.3,0.4-0.6,0.6-1,0.9C287.6,194.4,287.1,194.5,286.5,194.5z M294.5,194.5c-0.7,0-1.4-0.2-1.9-0.5
					c-0.5-0.3-0.9-0.8-1.2-1.4c-0.3-0.6-0.4-1.3-0.4-2.1c0-0.8,0.1-1.5,0.4-2.1c0.3-0.6,0.7-1.1,1.2-1.4c0.5-0.3,1.1-0.5,1.8-0.5
					c0.4,0,0.8,0.1,1.2,0.2c0.4,0.1,0.7,0.4,1.1,0.7c0.3,0.3,0.6,0.7,0.8,1.2c0.2,0.5,0.3,1.1,0.3,1.8v0.5h-5.9v-1h4.7
					c0-0.4-0.1-0.8-0.3-1.2c-0.2-0.3-0.4-0.6-0.7-0.8c-0.3-0.2-0.7-0.3-1.1-0.3c-0.5,0-0.9,0.1-1.2,0.4c-0.3,0.2-0.6,0.5-0.8,0.9
					c-0.2,0.4-0.3,0.8-0.3,1.2v0.7c0,0.6,0.1,1.1,0.3,1.5c0.2,0.4,0.5,0.7,0.8,0.9c0.4,0.2,0.8,0.3,1.3,0.3c0.3,0,0.6,0,0.8-0.1
					c0.3-0.1,0.5-0.2,0.7-0.4c0.2-0.2,0.3-0.4,0.4-0.7l1.1,0.3c-0.1,0.4-0.3,0.7-0.6,1c-0.3,0.3-0.6,0.5-1.1,0.7
					C295.5,194.4,295,194.5,294.5,194.5z"/>
				<g>
					<path shape-rendering="crispEdges" class="st11" d="M33.2,246.5h91.7c2.9,0,5.3,2.4,5.3,5.3v29.1c0,2.9-2.4,5.3-5.3,5.3H33.2
						c-2.9,0-5.3-2.4-5.3-5.3v-29.1C27.9,248.9,30.3,246.5,33.2,246.5z"/>
					<path class="st5" d="M47.9,271.4h-2l3.6-10.3h2.3l3.6,10.3h-2l-2.7-8.2h-0.1L47.9,271.4z M47.9,267.3h5.4v1.5h-5.4V267.3z
						 M59.3,271.5c-0.6,0-1.1-0.2-1.6-0.5c-0.5-0.3-0.9-0.8-1.1-1.4c-0.3-0.6-0.4-1.3-0.4-2.2c0-0.9,0.1-1.6,0.4-2.2
						c0.3-0.6,0.7-1,1.1-1.3c0.5-0.3,1-0.5,1.6-0.5c0.5,0,0.8,0.1,1.1,0.2c0.3,0.2,0.5,0.3,0.7,0.5c0.2,0.2,0.3,0.4,0.4,0.6h0.1
						v-3.8h1.8v10.3h-1.8v-1.2h-0.1c-0.1,0.2-0.2,0.4-0.4,0.6c-0.2,0.2-0.4,0.4-0.7,0.5C60.1,271.4,59.8,271.5,59.3,271.5z
						 M59.8,270c0.4,0,0.7-0.1,1-0.3c0.3-0.2,0.5-0.5,0.6-0.9c0.1-0.4,0.2-0.8,0.2-1.3c0-0.5-0.1-0.9-0.2-1.3
						c-0.1-0.4-0.3-0.7-0.6-0.9c-0.3-0.2-0.6-0.3-1-0.3c-0.4,0-0.7,0.1-1,0.3c-0.3,0.2-0.5,0.5-0.6,0.9c-0.1,0.4-0.2,0.8-0.2,1.3
						c0,0.5,0.1,0.9,0.2,1.3c0.1,0.4,0.3,0.7,0.6,0.9C59.1,269.9,59.4,270,59.8,270z M68.2,271.5c-0.6,0-1.1-0.2-1.6-0.5
						c-0.5-0.3-0.9-0.8-1.1-1.4c-0.3-0.6-0.4-1.3-0.4-2.2c0-0.9,0.1-1.6,0.4-2.2c0.3-0.6,0.7-1,1.1-1.3c0.5-0.3,1-0.5,1.6-0.5
						c0.5,0,0.8,0.1,1.1,0.2c0.3,0.2,0.5,0.3,0.7,0.5c0.2,0.2,0.3,0.4,0.4,0.6h0.1v-3.8h1.8v10.3h-1.8v-1.2h-0.1
						c-0.1,0.2-0.2,0.4-0.4,0.6c-0.2,0.2-0.4,0.4-0.7,0.5C69.1,271.4,68.7,271.5,68.2,271.5z M68.8,270c0.4,0,0.7-0.1,1-0.3
						c0.3-0.2,0.5-0.5,0.6-0.9c0.1-0.4,0.2-0.8,0.2-1.3c0-0.5-0.1-0.9-0.2-1.3c-0.1-0.4-0.3-0.7-0.6-0.9c-0.3-0.2-0.6-0.3-1-0.3
						c-0.4,0-0.7,0.1-1,0.3c-0.3,0.2-0.5,0.5-0.6,0.9c-0.1,0.4-0.2,0.8-0.2,1.3c0,0.5,0.1,0.9,0.2,1.3c0.1,0.4,0.3,0.7,0.6,0.9
						C68,269.9,68.4,270,68.8,270z M77.8,271.4v-7.7h1.7v1.3h0.1c0.2-0.4,0.4-0.8,0.8-1c0.4-0.3,0.8-0.4,1.3-0.4
						c0.5,0,1,0.1,1.3,0.4c0.4,0.3,0.6,0.6,0.8,1h0.1c0.2-0.4,0.5-0.8,0.9-1c0.4-0.3,0.9-0.4,1.5-0.4c0.7,0,1.3,0.2,1.7,0.7
						c0.4,0.4,0.7,1.1,0.7,2v5.2h-1.8v-4.9c0-0.5-0.1-0.8-0.4-1c-0.3-0.2-0.6-0.3-0.9-0.3c-0.4,0-0.8,0.1-1,0.4
						c-0.2,0.3-0.4,0.6-0.4,1.1v4.8h-1.8v-5c0-0.4-0.1-0.7-0.4-1c-0.2-0.2-0.5-0.4-0.9-0.4c-0.3,0-0.5,0.1-0.7,0.2
						c-0.2,0.1-0.4,0.3-0.5,0.6c-0.1,0.2-0.2,0.5-0.2,0.8v4.7H77.8z M93.8,271.5c-0.8,0-1.4-0.2-2-0.5c-0.6-0.3-1-0.8-1.3-1.4
						c-0.3-0.6-0.5-1.3-0.5-2.1c0-0.8,0.2-1.5,0.5-2.1c0.3-0.6,0.7-1.1,1.3-1.4c0.6-0.3,1.2-0.5,2-0.5c0.8,0,1.4,0.2,2,0.5
						c0.6,0.3,1,0.8,1.3,1.4c0.3,0.6,0.5,1.3,0.5,2.1c0,0.8-0.2,1.5-0.5,2.1c-0.3,0.6-0.7,1.1-1.3,1.4
						C95.3,271.3,94.6,271.5,93.8,271.5z M93.9,270c0.4,0,0.7-0.1,1-0.3c0.3-0.2,0.5-0.5,0.6-0.9c0.1-0.4,0.2-0.8,0.2-1.3
						c0-0.5-0.1-0.9-0.2-1.3c-0.1-0.4-0.3-0.7-0.6-0.9c-0.3-0.2-0.6-0.3-1-0.3c-0.4,0-0.8,0.1-1,0.3c-0.3,0.2-0.5,0.5-0.6,0.9
						c-0.1,0.4-0.2,0.8-0.2,1.3c0,0.5,0.1,0.9,0.2,1.3c0.1,0.4,0.3,0.7,0.6,0.9C93.1,269.9,93.4,270,93.9,270z M99.1,271.4v-7.7h1.8
						v1.3h0.1c0.1-0.4,0.4-0.8,0.7-1c0.3-0.2,0.7-0.4,1.2-0.4c0.1,0,0.2,0,0.3,0c0.1,0,0.2,0,0.3,0v1.7c-0.1,0-0.2-0.1-0.4-0.1
						c-0.2,0-0.3,0-0.5,0c-0.3,0-0.6,0.1-0.9,0.2c-0.3,0.1-0.5,0.3-0.6,0.6c-0.2,0.3-0.2,0.5-0.2,0.9v4.5H99.1z M107.8,271.5
						c-0.8,0-1.4-0.2-2-0.5c-0.6-0.3-1-0.8-1.3-1.4c-0.3-0.6-0.5-1.3-0.5-2.1c0-0.8,0.2-1.5,0.5-2.1c0.3-0.6,0.7-1.1,1.3-1.4
						c0.5-0.3,1.2-0.5,1.9-0.5c0.5,0,0.9,0.1,1.3,0.2c0.4,0.2,0.8,0.4,1.1,0.7c0.3,0.3,0.6,0.7,0.8,1.2c0.2,0.5,0.3,1.1,0.3,1.7v0.6
						h-6.3v-1.2h4.6c0-0.3-0.1-0.7-0.2-0.9c-0.1-0.3-0.4-0.5-0.6-0.6c-0.3-0.2-0.6-0.2-0.9-0.2c-0.4,0-0.7,0.1-1,0.3
						c-0.3,0.2-0.5,0.4-0.7,0.7c-0.2,0.3-0.2,0.6-0.2,0.9v1.1c0,0.4,0.1,0.8,0.2,1.2c0.2,0.3,0.4,0.6,0.7,0.7c0.3,0.2,0.6,0.3,1,0.3
						c0.3,0,0.5,0,0.7-0.1c0.2-0.1,0.4-0.2,0.6-0.3s0.3-0.3,0.4-0.5l1.7,0.2c-0.1,0.4-0.3,0.8-0.6,1.2c-0.3,0.3-0.7,0.6-1.1,0.8
						C108.9,271.4,108.4,271.5,107.8,271.5z"/>
					<path shape-rendering="crispEdges" class="st12" d="M33.2,247h91.7c2.7,0,4.9,2.2,4.9,4.9v29.1c0,2.7-2.2,4.9-4.9,4.9H33.2
						c-2.7,0-4.9-2.2-4.9-4.9v-29.1C28.3,249.1,30.5,247,33.2,247z"/>
				</g>
				<g>
					<path shape-rendering="crispEdges" class="st5" d="M146.1,246.5h146.7c2.9,0,5.3,2.4,5.3,5.3v29.1c0,2.9-2.4,5.3-5.3,5.3H146.1
						c-2.9,0-5.3-2.4-5.3-5.3v-29.1C140.8,248.9,143.2,246.5,146.1,246.5z"/>
					<path class="st13" d="M166.2,259v3.1c0,0.4,0,0.6,0.1,0.8c0.1,0.1,0.2,0.3,0.3,0.3c0.2,0.1,0.4,0.1,0.8,0.1h3.2 M162.4,268.6
						l2.3,2.3 M164.7,270.9l2.3-2.3 M164.7,270.9v-4.5 M166.2,258.8h-4c-1.3,0-1.9,0-2.4,0.2c-0.4,0.2-0.8,0.6-1,1
						c-0.3,0.5-0.3,1.1-0.3,2.4v7.8c0,1.3,0,1.9,0.3,2.4c0.2,0.4,0.6,0.8,1,1c0.5,0.2,1.1,0.2,2.4,0.2h4.9c1.3,0,1.9,0,2.4-0.2
						c0.4-0.2,0.8-0.6,1-1c0.3-0.5,0.3-1.1,0.3-2.4v-6.9L166.2,258.8z"/>
					<path class="st14" d="M182.5,271.4v-10.3h6.7v1.6h-4.8v2.8h4.5v1.6h-4.5v2.8h4.9v1.6H182.5z M192.5,263.6l1.6,2.8l1.6-2.8h1.9
						l-2.3,3.9l2.4,3.9h-1.9l-1.6-2.8l-1.6,2.8h-1.9l2.3-3.9l-2.3-3.9H192.5z M198.9,274.2v-10.6h1.8v1.3h0.1
						c0.1-0.2,0.2-0.4,0.4-0.6c0.2-0.2,0.4-0.4,0.7-0.5c0.3-0.2,0.7-0.2,1.1-0.2c0.6,0,1.1,0.2,1.6,0.5c0.5,0.3,0.9,0.7,1.1,1.3
						c0.3,0.6,0.4,1.3,0.4,2.2c0,0.8-0.1,1.6-0.4,2.2c-0.3,0.6-0.7,1-1.1,1.4c-0.5,0.3-1,0.5-1.6,0.5c-0.4,0-0.8-0.1-1.1-0.2
						c-0.3-0.1-0.5-0.3-0.7-0.5c-0.2-0.2-0.3-0.4-0.4-0.6h-0.1v4.1H198.9z M200.7,267.5c0,0.5,0.1,0.9,0.2,1.3
						c0.1,0.4,0.4,0.7,0.6,0.9c0.3,0.2,0.6,0.3,1,0.3c0.4,0,0.7-0.1,1-0.3c0.3-0.2,0.5-0.5,0.6-0.9c0.1-0.4,0.2-0.8,0.2-1.3
						c0-0.5-0.1-0.9-0.2-1.3c-0.1-0.4-0.3-0.7-0.6-0.9c-0.3-0.2-0.6-0.3-1-0.3c-0.4,0-0.7,0.1-1,0.3c-0.3,0.2-0.5,0.5-0.6,0.9
						C200.8,266.6,200.7,267,200.7,267.5z M211.1,271.5c-0.8,0-1.4-0.2-2-0.5c-0.6-0.3-1-0.8-1.3-1.4c-0.3-0.6-0.5-1.3-0.5-2.1
						c0-0.8,0.1-1.5,0.5-2.1c0.3-0.6,0.7-1.1,1.3-1.4c0.6-0.3,1.2-0.5,2-0.5s1.4,0.2,2,0.5c0.6,0.3,1,0.8,1.3,1.4
						c0.3,0.6,0.5,1.3,0.5,2.1c0,0.8-0.2,1.5-0.5,2.1c-0.3,0.6-0.7,1.1-1.3,1.4C212.5,271.3,211.9,271.5,211.1,271.5z M211.1,270
						c0.4,0,0.7-0.1,1-0.3c0.3-0.2,0.5-0.5,0.6-0.9c0.1-0.4,0.2-0.8,0.2-1.3c0-0.5-0.1-0.9-0.2-1.3c-0.1-0.4-0.3-0.7-0.6-0.9
						c-0.3-0.2-0.6-0.3-1-0.3c-0.4,0-0.8,0.1-1,0.3c-0.3,0.2-0.5,0.5-0.6,0.9c-0.1,0.4-0.2,0.8-0.2,1.3c0,0.5,0.1,0.9,0.2,1.3
						c0.1,0.4,0.3,0.7,0.6,0.9C210.4,269.9,210.7,270,211.1,270z M216.4,271.4v-7.7h1.8v1.3h0.1c0.1-0.4,0.4-0.8,0.7-1
						c0.3-0.2,0.7-0.4,1.2-0.4c0.1,0,0.2,0,0.3,0c0.1,0,0.2,0,0.3,0v1.7c-0.1,0-0.2-0.1-0.4-0.1c-0.2,0-0.3,0-0.5,0
						c-0.3,0-0.6,0.1-0.9,0.2c-0.3,0.1-0.5,0.3-0.6,0.6c-0.1,0.3-0.2,0.5-0.2,0.9v4.5H216.4z M226.2,263.6v1.4h-4.4v-1.4H226.2z
						 M222.9,261.8h1.8v7.2c0,0.2,0,0.4,0.1,0.6c0.1,0.1,0.2,0.2,0.3,0.3c0.1,0,0.3,0.1,0.4,0.1c0.1,0,0.2,0,0.3,0
						c0.1,0,0.2,0,0.2,0l0.3,1.4c-0.1,0-0.2,0.1-0.4,0.1c-0.2,0-0.4,0.1-0.7,0.1c-0.5,0-0.9-0.1-1.2-0.2c-0.4-0.2-0.7-0.4-0.9-0.7
						c-0.2-0.3-0.3-0.7-0.3-1.2V261.8z M233.5,271.5c-0.5,0-0.9-0.1-1.3-0.3c-0.4-0.2-0.7-0.4-0.9-0.8c-0.2-0.3-0.3-0.8-0.3-1.3
						c0-0.4,0.1-0.8,0.2-1.1c0.2-0.3,0.4-0.5,0.7-0.7c0.3-0.2,0.6-0.3,0.9-0.4c0.4-0.1,0.7-0.2,1.1-0.2c0.5,0,0.8-0.1,1.1-0.1
						c0.3,0,0.5-0.1,0.6-0.2c0.1-0.1,0.2-0.2,0.2-0.4v0c0-0.4-0.1-0.7-0.3-0.9c-0.2-0.2-0.5-0.3-1-0.3c-0.4,0-0.8,0.1-1.1,0.3
						c-0.3,0.2-0.4,0.4-0.5,0.7l-1.7-0.2c0.1-0.5,0.4-0.9,0.7-1.2c0.3-0.3,0.7-0.6,1.1-0.7c0.4-0.2,0.9-0.2,1.5-0.2
						c0.4,0,0.7,0,1.1,0.1c0.4,0.1,0.7,0.2,1,0.4c0.3,0.2,0.5,0.5,0.7,0.8c0.2,0.3,0.3,0.8,0.3,1.3v5.2h-1.7v-1.1h-0.1
						c-0.1,0.2-0.3,0.4-0.5,0.6c-0.2,0.2-0.4,0.3-0.7,0.4C234.2,271.5,233.9,271.5,233.5,271.5z M234,270.2c0.4,0,0.7-0.1,0.9-0.2
						c0.3-0.1,0.5-0.3,0.6-0.6c0.1-0.2,0.2-0.5,0.2-0.8v-0.9c-0.1,0-0.2,0.1-0.3,0.1c-0.1,0-0.3,0.1-0.5,0.1c-0.2,0-0.3,0.1-0.5,0.1
						c-0.2,0-0.3,0-0.4,0.1c-0.3,0-0.5,0.1-0.7,0.2c-0.2,0.1-0.4,0.2-0.5,0.4c-0.1,0.1-0.2,0.3-0.2,0.6c0,0.3,0.1,0.6,0.4,0.8
						C233.3,270.1,233.6,270.2,234,270.2z M245.5,265.7l-1.7,0.2c0-0.2-0.1-0.3-0.2-0.5c-0.1-0.1-0.3-0.3-0.5-0.4
						c-0.2-0.1-0.4-0.1-0.7-0.1c-0.4,0-0.7,0.1-1,0.2c-0.3,0.2-0.4,0.4-0.4,0.6c0,0.2,0.1,0.4,0.2,0.5c0.2,0.1,0.5,0.3,0.8,0.3
						l1.3,0.3c0.7,0.2,1.3,0.4,1.6,0.7c0.4,0.3,0.5,0.8,0.5,1.3c0,0.5-0.1,0.9-0.4,1.3c-0.3,0.4-0.7,0.7-1.2,0.9
						c-0.5,0.2-1.1,0.3-1.7,0.3c-0.9,0-1.7-0.2-2.3-0.6c-0.6-0.4-0.9-1-1-1.7l1.8-0.2c0.1,0.3,0.3,0.6,0.5,0.8
						c0.3,0.2,0.6,0.3,1,0.3c0.4,0,0.8-0.1,1-0.3c0.3-0.2,0.4-0.4,0.4-0.7c0-0.2-0.1-0.4-0.3-0.5c-0.2-0.1-0.4-0.3-0.8-0.3l-1.3-0.3
						c-0.7-0.2-1.3-0.4-1.6-0.8c-0.4-0.4-0.5-0.8-0.5-1.4c0-0.5,0.1-0.9,0.4-1.2c0.3-0.4,0.6-0.6,1.1-0.8c0.5-0.2,1-0.3,1.6-0.3
						c0.9,0,1.6,0.2,2.1,0.6C245,264.5,245.4,265,245.5,265.7z M259.5,264.5h-1.9c-0.1-0.3-0.2-0.6-0.3-0.8
						c-0.1-0.2-0.3-0.4-0.5-0.6c-0.2-0.2-0.5-0.3-0.7-0.4c-0.3-0.1-0.6-0.1-0.9-0.1c-0.6,0-1.1,0.1-1.5,0.4c-0.4,0.3-0.8,0.7-1,1.2
						c-0.2,0.5-0.4,1.2-0.4,2c0,0.8,0.1,1.4,0.4,2c0.2,0.5,0.6,0.9,1,1.2c0.4,0.3,0.9,0.4,1.5,0.4c0.3,0,0.6,0,0.9-0.1
						c0.3-0.1,0.5-0.2,0.7-0.4c0.2-0.2,0.4-0.4,0.5-0.6c0.2-0.2,0.3-0.5,0.3-0.8l1.9,0c-0.1,0.5-0.2,0.9-0.5,1.4
						c-0.2,0.4-0.5,0.8-0.9,1.1c-0.4,0.3-0.8,0.6-1.3,0.8c-0.5,0.2-1.1,0.3-1.7,0.3c-0.9,0-1.7-0.2-2.4-0.6c-0.7-0.4-1.3-1-1.7-1.8
						c-0.4-0.8-0.6-1.7-0.6-2.8c0-1.1,0.2-2.1,0.6-2.8c0.4-0.8,1-1.4,1.7-1.8c0.7-0.4,1.5-0.6,2.4-0.6c0.6,0,1.1,0.1,1.6,0.2
						c0.5,0.2,0.9,0.4,1.3,0.7c0.4,0.3,0.7,0.7,0.9,1.1C259.3,263.5,259.5,264,259.5,264.5z M266.8,263.9c0-0.4-0.2-0.8-0.6-1
						c-0.3-0.2-0.8-0.4-1.3-0.4c-0.4,0-0.7,0.1-1,0.2c-0.3,0.1-0.5,0.3-0.6,0.5c-0.1,0.2-0.2,0.4-0.2,0.7c0,0.2,0,0.4,0.1,0.6
						c0.1,0.2,0.2,0.3,0.4,0.4c0.2,0.1,0.4,0.2,0.6,0.3c0.2,0.1,0.4,0.1,0.6,0.2l1,0.2c0.4,0.1,0.8,0.2,1.1,0.4
						c0.4,0.2,0.7,0.3,1,0.6c0.3,0.2,0.5,0.5,0.7,0.8c0.2,0.3,0.3,0.7,0.3,1.2c0,0.6-0.2,1.1-0.5,1.6c-0.3,0.5-0.8,0.8-1.3,1.1
						c-0.6,0.3-1.3,0.4-2.1,0.4c-0.8,0-1.5-0.1-2.1-0.4c-0.6-0.2-1-0.6-1.4-1.1c-0.3-0.5-0.5-1.1-0.5-1.7h1.8c0,0.4,0.1,0.7,0.3,0.9
						c0.2,0.2,0.4,0.4,0.8,0.5c0.3,0.1,0.7,0.2,1.1,0.2c0.4,0,0.8-0.1,1.1-0.2c0.3-0.1,0.5-0.3,0.7-0.5c0.2-0.2,0.3-0.5,0.3-0.8
						c0-0.3-0.1-0.5-0.2-0.7c-0.2-0.2-0.4-0.3-0.6-0.4c-0.3-0.1-0.6-0.2-1-0.3l-1.2-0.3c-0.8-0.2-1.5-0.5-2-1
						c-0.5-0.4-0.7-1-0.7-1.8c0-0.6,0.2-1.1,0.5-1.6c0.3-0.5,0.8-0.8,1.4-1.1c0.6-0.3,1.2-0.4,1.9-0.4c0.7,0,1.4,0.1,1.9,0.4
						c0.6,0.3,1,0.6,1.3,1.1c0.3,0.4,0.5,1,0.5,1.5H266.8z M271.8,261.1l2.7,8.1h0.1l2.7-8.1h2l-3.6,10.3h-2.3l-3.6-10.3H271.8z"/>
					<path shape-rendering="crispEdges" class="st12" d="M146.1,247h146.7c2.7,0,4.9,2.2,4.9,4.9v29.1c0,2.7-2.2,4.9-4.9,4.9H146.1
						c-2.7,0-4.9-2.2-4.9-4.9v-29.1C141.3,249.1,143.4,247,146.1,247z"/>
				</g>
			</g>
		</g>
	</g>
</g>
<g>
	<defs>
		<path id="SVGID_10_" d="M557.4,286.6c0,10.9-8.9,19.7-19.7,19.8l-410.4,0.5c-10.9,0-19.7-8.9-19.8-19.7l-0.3-221.8
			c0-10.9,8.9-19.7,19.7-19.8l410.4-0.5c10.9,0,19.7,8.9,19.8,19.7L557.4,286.6z"/>
	</defs>
	<clipPath id="SVGID_11_">
		<use xlink:href="#SVGID_10_"  style="overflow:visible;"/>
	</clipPath>
	<g class="st15">
		<g class="st16">
			
				<linearGradient id="SVGID_12_" gradientUnits="userSpaceOnUse" x1="1011.7267" y1="-117.3437" x2="941.6939" y2="-148.5401" gradientTransform="matrix(1 -1.226482e-03 1.226482e-03 1 -474.3389 341.1161)">
				<stop  offset="0" style="stop-color:#45BCFF"/>
				<stop  offset="0.2679" style="stop-color:#3794CA"/>
				<stop  offset="0.8789" style="stop-color:#123046"/>
				<stop  offset="1" style="stop-color:#0B1C2B"/>
			</linearGradient>
			<polygon class="st17" points="500.4,155.1 450.3,235 543.3,216.1 			"/>
			
				<linearGradient id="SVGID_13_" gradientUnits="userSpaceOnUse" x1="991.9471" y1="-32.7556" x2="1046.4349" y2="-32.7556" gradientTransform="matrix(1 -1.226482e-03 1.226482e-03 1 -474.3389 341.1161)">
				<stop  offset="0" style="stop-color:#45BCFF"/>
				<stop  offset="0.2679" style="stop-color:#3794CA"/>
				<stop  offset="0.8789" style="stop-color:#123046"/>
				<stop  offset="1" style="stop-color:#0B1C2B"/>
			</linearGradient>
			<polygon class="st18" points="517.5,288.4 557.2,268.6 572.1,345.6 			"/>
			
				<linearGradient id="SVGID_14_" gradientUnits="userSpaceOnUse" x1="566.0204" y1="-47.0927" x2="710.4709" y2="-47.0927" gradientTransform="matrix(1 -1.226482e-03 1.226482e-03 1 -474.3389 341.1161)">
				<stop  offset="0" style="stop-color:#45BCFF"/>
				<stop  offset="0.2679" style="stop-color:#3794CA"/>
				<stop  offset="0.8789" style="stop-color:#123046"/>
				<stop  offset="1" style="stop-color:#0B1C2B"/>
			</linearGradient>
			<polygon class="st19" points="91.6,311.5 236,258 230.4,328.3 			"/>
			
				<linearGradient id="SVGID_15_" gradientUnits="userSpaceOnUse" x1="843.1171" y1="-26.933" x2="806.1902" y2="-61.9499" gradientTransform="matrix(1 -1.226482e-03 1.226482e-03 1 -474.3389 341.1161)">
				<stop  offset="0" style="stop-color:#45BCFF"/>
				<stop  offset="0.2679" style="stop-color:#3794CA"/>
				<stop  offset="0.8789" style="stop-color:#123046"/>
				<stop  offset="1" style="stop-color:#0B1C2B"/>
			</linearGradient>
			<polygon class="st20" points="306.8,304.1 353,345.3 374.3,268.8 			"/>
			
				<linearGradient id="SVGID_16_" gradientUnits="userSpaceOnUse" x1="781.212" y1="-34.8175" x2="929.2075" y2="-34.8175" gradientTransform="matrix(1 -1.226482e-03 1.226482e-03 1 -474.3389 341.1161)">
				<stop  offset="0" style="stop-color:#45BCFF"/>
				<stop  offset="0.2679" style="stop-color:#3794CA"/>
				<stop  offset="0.8789" style="stop-color:#123046"/>
				<stop  offset="1" style="stop-color:#0B1C2B"/>
			</linearGradient>
			<polygon class="st21" points="409.3,263 353,345.3 354.1,347.5 454.8,300.7 			"/>
			
				<linearGradient id="SVGID_17_" gradientUnits="userSpaceOnUse" x1="781.7081" y1="-48.7616" x2="724.4064" y2="-2.9203" gradientTransform="matrix(1 -1.226482e-03 1.226482e-03 1 -474.3389 341.1161)">
				<stop  offset="0" style="stop-color:#45BCFF"/>
				<stop  offset="0.2679" style="stop-color:#3794CA"/>
				<stop  offset="0.8789" style="stop-color:#123046"/>
				<stop  offset="1" style="stop-color:#0B1C2B"/>
			</linearGradient>
			<polygon class="st22" points="236,258 230.4,328.3 353,345.3 285.1,283.9 			"/>
			
				<linearGradient id="SVGID_18_" gradientUnits="userSpaceOnUse" x1="830.1275" y1="-108.3765" x2="848.2734" y2="-66.3546" gradientTransform="matrix(1 -1.226482e-03 1.226482e-03 1 -474.3389 341.1161)">
				<stop  offset="0" style="stop-color:#45BCFF"/>
				<stop  offset="0.2679" style="stop-color:#3794CA"/>
				<stop  offset="0.8789" style="stop-color:#123046"/>
				<stop  offset="1" style="stop-color:#0B1C2B"/>
			</linearGradient>
			<polygon class="st23" points="285.1,283.9 369.4,222.5 450.3,235 374.3,268.8 307.1,304.3 			"/>
			
				<linearGradient id="SVGID_19_" gradientUnits="userSpaceOnUse" x1="794.3506" y1="-68.5501" x2="784.8002" y2="-111.2091" gradientTransform="matrix(1 -1.226482e-03 1.226482e-03 1 -474.3389 341.1161)">
				<stop  offset="0" style="stop-color:#45BCFF"/>
				<stop  offset="0.2679" style="stop-color:#3794CA"/>
				<stop  offset="0.8789" style="stop-color:#123046"/>
				<stop  offset="1" style="stop-color:#0B1C2B"/>
			</linearGradient>
			<polygon class="st24" points="236,258 385.9,205.7 369.4,222.5 285.1,283.9 			"/>
			
				<linearGradient id="SVGID_20_" gradientUnits="userSpaceOnUse" x1="827.1716" y1="-43.2731" x2="895.6375" y2="-43.2731" gradientTransform="matrix(1 -1.226482e-03 1.226482e-03 1 -474.3389 341.1161)">
				<stop  offset="0" style="stop-color:#45BCFF"/>
				<stop  offset="0.2679" style="stop-color:#3794CA"/>
				<stop  offset="0.8789" style="stop-color:#123046"/>
				<stop  offset="1" style="stop-color:#0B1C2B"/>
			</linearGradient>
			<polygon class="st25" points="352.8,345.7 421.2,247.8 373.2,269.6 			"/>
			
				<linearGradient id="SVGID_21_" gradientUnits="userSpaceOnUse" x1="828.7317" y1="-16.029" x2="1046.4349" y2="-16.029" gradientTransform="matrix(1 -1.226482e-03 1.226482e-03 1 -474.3389 341.1161)">
				<stop  offset="0" style="stop-color:#45BCFF"/>
				<stop  offset="0.2679" style="stop-color:#3794CA"/>
				<stop  offset="0.8789" style="stop-color:#123046"/>
				<stop  offset="1" style="stop-color:#0B1C2B"/>
			</linearGradient>
			<polygon class="st26" points="354.4,347.4 454.8,300.7 572.1,345.6 			"/>
			
				<linearGradient id="SVGID_22_" gradientUnits="userSpaceOnUse" x1="929.2079" y1="-22.8992" x2="1046.4349" y2="-22.8992" gradientTransform="matrix(1 -1.226482e-03 1.226482e-03 1 -474.3389 341.1161)">
				<stop  offset="0" style="stop-color:#45BCFF"/>
				<stop  offset="0.2679" style="stop-color:#3794CA"/>
				<stop  offset="0.8789" style="stop-color:#123046"/>
				<stop  offset="1" style="stop-color:#0B1C2B"/>
			</linearGradient>
			<polygon class="st27" points="454.8,300.7 517.5,288.4 572.1,345.6 			"/>
			
				<linearGradient id="SVGID_23_" gradientUnits="userSpaceOnUse" x1="883.7552" y1="-72.2334" x2="929.2079" y2="-72.2334" gradientTransform="matrix(1 -1.226482e-03 1.226482e-03 1 -474.3389 341.1161)">
				<stop  offset="0" style="stop-color:#45BCFF"/>
				<stop  offset="0.2679" style="stop-color:#3794CA"/>
				<stop  offset="0.8789" style="stop-color:#123046"/>
				<stop  offset="1" style="stop-color:#0B1C2B"/>
			</linearGradient>
			<polygon class="st28" points="421.2,247.8 451.1,234.8 454.8,300.7 409.3,263 			"/>
			
				<linearGradient id="SVGID_24_" gradientUnits="userSpaceOnUse" x1="935.2586" y1="-114.5343" x2="977.2778" y2="-78.245" gradientTransform="matrix(1 -1.226482e-03 1.226482e-03 1 -474.3389 341.1161)">
				<stop  offset="0" style="stop-color:#45BCFF"/>
				<stop  offset="0.2679" style="stop-color:#3794CA"/>
				<stop  offset="0.8789" style="stop-color:#123046"/>
				<stop  offset="1" style="stop-color:#0B1C2B"/>
			</linearGradient>
			<polygon class="st29" points="451.1,234.8 543.3,216.1 454.8,300.7 			"/>
			
				<linearGradient id="SVGID_25_" gradientUnits="userSpaceOnUse" x1="993.8855" y1="-54.9082" x2="964.5975" y2="-93.1098" gradientTransform="matrix(1 -1.226482e-03 1.226482e-03 1 -474.3389 341.1161)">
				<stop  offset="0" style="stop-color:#45BCFF"/>
				<stop  offset="0.2679" style="stop-color:#3794CA"/>
				<stop  offset="0.8789" style="stop-color:#123046"/>
				<stop  offset="1" style="stop-color:#0B1C2B"/>
			</linearGradient>
			<polygon class="st30" points="454.8,300.7 517.5,288.4 543.3,216.1 			"/>
			
				<linearGradient id="SVGID_26_" gradientUnits="userSpaceOnUse" x1="991.9471" y1="-132.7177" x2="1046.4302" y2="-132.7177" gradientTransform="matrix(1 -1.226482e-03 1.226482e-03 1 -474.3389 341.1161)">
				<stop  offset="0" style="stop-color:#45BCFF"/>
				<stop  offset="0.2679" style="stop-color:#3794CA"/>
				<stop  offset="0.8789" style="stop-color:#123046"/>
				<stop  offset="1" style="stop-color:#0B1C2B"/>
			</linearGradient>
			<polygon class="st31" points="517.5,288.4 557.2,268.6 571.8,125.9 			"/>
			
				<linearGradient id="SVGID_27_" gradientUnits="userSpaceOnUse" x1="1031.7753" y1="-104.0734" x2="1046.4349" y2="-104.0734" gradientTransform="matrix(1 -1.226482e-03 1.226482e-03 1 -474.3389 341.1161)">
				<stop  offset="0" style="stop-color:#45BCFF"/>
				<stop  offset="0.2679" style="stop-color:#3794CA"/>
				<stop  offset="0.8789" style="stop-color:#123046"/>
				<stop  offset="1" style="stop-color:#0B1C2B"/>
			</linearGradient>
			<polygon class="st32" points="572.1,345.6 571.8,125.9 557.3,269.4 571.3,344.3 			"/>
			
				<linearGradient id="SVGID_28_" gradientUnits="userSpaceOnUse" x1="987.5471" y1="-150.2297" x2="1037.8436" y2="-210.7129" gradientTransform="matrix(1 -1.226482e-03 1.226482e-03 1 -474.3389 341.1161)">
				<stop  offset="0" style="stop-color:#45BCFF"/>
				<stop  offset="0.2679" style="stop-color:#3794CA"/>
				<stop  offset="0.8789" style="stop-color:#123046"/>
				<stop  offset="1" style="stop-color:#0B1C2B"/>
			</linearGradient>
			<polygon class="st33" points="571.8,125.9 495.4,148 543.3,216.1 			"/>
			
				<linearGradient id="SVGID_29_" gradientUnits="userSpaceOnUse" x1="911.8509" y1="-166.6388" x2="960.2375" y2="-142.4454" gradientTransform="matrix(1 -1.226482e-03 1.226482e-03 1 -474.3389 341.1161)">
				<stop  offset="0" style="stop-color:#45BCFF"/>
				<stop  offset="0.2679" style="stop-color:#3794CA"/>
				<stop  offset="0.8789" style="stop-color:#123046"/>
				<stop  offset="1" style="stop-color:#0B1C2B"/>
			</linearGradient>
			<polygon class="st34" points="495.4,147.2 447.9,157.6 450.3,235 500.4,155.1 			"/>
			
				<linearGradient id="SVGID_30_" gradientUnits="userSpaceOnUse" x1="930.2209" y1="-108.3138" x2="877.3761" y2="-163.7053" gradientTransform="matrix(1 -1.226482e-03 1.226482e-03 1 -474.3389 341.1161)">
				<stop  offset="0" style="stop-color:#45BCFF"/>
				<stop  offset="0.2679" style="stop-color:#3794CA"/>
				<stop  offset="0.8789" style="stop-color:#123046"/>
				<stop  offset="1" style="stop-color:#0B1C2B"/>
			</linearGradient>
			<polygon class="st35" points="369.4,222.5 447.9,142.3 450.3,235 			"/>
			
				<linearGradient id="SVGID_31_" gradientUnits="userSpaceOnUse" x1="970.0021" y1="-249.5492" x2="1047.0032" y2="-249.5492" gradientTransform="matrix(1 -1.226482e-03 1.226482e-03 1 -474.3389 341.1161)">
				<stop  offset="0" style="stop-color:#45BCFF"/>
				<stop  offset="0.2679" style="stop-color:#3794CA"/>
				<stop  offset="0.8789" style="stop-color:#123046"/>
				<stop  offset="1" style="stop-color:#0B1C2B"/>
			</linearGradient>
			<polygon class="st36" points="545.9,32.7 495.4,148 572.4,125.4 545.9,33.4 			"/>
			
				<linearGradient id="SVGID_32_" gradientUnits="userSpaceOnUse" x1="566.0204" y1="-12.0182" x2="825.4962" y2="-12.0182" gradientTransform="matrix(1 -1.226482e-03 1.226482e-03 1 -474.3389 341.1161)">
				<stop  offset="0" style="stop-color:#45BCFF"/>
				<stop  offset="0.2679" style="stop-color:#3794CA"/>
				<stop  offset="0.8789" style="stop-color:#123046"/>
				<stop  offset="1" style="stop-color:#0B1C2B"/>
			</linearGradient>
			<polygon class="st37" points="230.4,328.3 91.6,311.5 351.2,345 			"/>
		</g>
		<g class="st38">
			<polygon class="st39" points="92.6,311.2 91.9,310.6 178.9,294.4 179.6,295 			"/>
			<polygon class="st40" points="353,345.8 92.2,311.4 92.2,310.4 353,344.8 			"/>
			<polygon class="st41" points="92.3,311.4 92.1,310.4 230.8,328.6 231,329.5 			"/>
			
				<rect x="572.1" y="125.4" transform="matrix(1 -1.378010e-03 1.378010e-03 1 -0.3235 0.7892)" class="st42" width="1" height="219.6"/>
			
				<rect x="512.8" y="169.6" transform="matrix(0.2803 -0.9599 0.9599 0.2803 239.3239 659.3033)" class="st43" width="93.1" height="1"/>
			
				<rect x="559" y="213.4" transform="matrix(0.9801 -0.1985 0.1985 0.9801 -44.4247 116.6418)" class="st44" width="1" height="132.9"/>
			<polygon class="st45" points="545.9,214.9 512.2,138.7 513,138.4 546.7,214.5 			"/>
			
				<rect x="511.9" y="131.5" transform="matrix(0.9764 -0.2162 0.2162 0.9764 -15.6989 120.3815)" class="st40" width="61.2" height="1"/>
			
				<rect x="557.8" y="282.7" transform="matrix(0.8988 -0.4383 0.4383 0.8988 -81.8092 276.6356)" class="st46" width="1" height="65.6"/>
			
				<rect x="344.7" y="232.1" transform="matrix(0.2075 -0.9782 0.9782 0.2075 75.2246 557.969)" class="st47" width="74.6" height="1"/>
			
				<rect x="447.8" y="140.2" transform="matrix(0.998 -6.361803e-02 6.361803e-02 0.998 -7.9747 30.8357)" class="st48" width="64.9" height="1"/>
			
				<rect x="424.3" y="186.2" transform="matrix(0.542 -0.8404 0.8404 0.542 63.668 490.201)" class="st49" width="114.5" height="1"/>
			
				<rect x="379.3" y="168.9" transform="matrix(0.7368 -0.6761 0.6761 0.7368 -4.3109 327.7361)" class="st50" width="78.9" height="1"/>
			
				<rect x="448.7" y="142.7" transform="matrix(0.9996 -2.890239e-02 2.890239e-02 0.9996 -5.2685 13.0614)" class="st51" width="1" height="92.1"/>
			<polygon class="st52" points="374.4,269.5 374.1,268.6 428.9,250.5 429.2,251.5 			"/>
			
				<rect x="509.4" y="249.9" transform="matrix(3.397972e-02 -0.9994 0.9994 3.397972e-02 276.3427 786.6622)" class="st53" width="71.3" height="1"/>
			
				<rect x="449.5" y="224.3" transform="matrix(0.9785 -0.2063 0.2063 0.9785 -35.6493 107.6498)" class="st47" width="97.9" height="1"/>
			
				<rect x="408.9" y="189.8" transform="matrix(0.813 -0.5823 0.5823 0.813 -53.5976 280.1951)" class="st54" width="1" height="67.6"/>
			
				<rect x="419.6" y="179.4" transform="matrix(0.5376 -0.8432 0.8432 0.5376 12.6094 453.8948)" class="st55" width="1" height="72.1"/>
			
				<rect x="291.5" y="275.6" transform="matrix(0.1318 -0.9913 0.9913 0.1318 -80.7268 582.1476)" class="st56" width="1" height="123.2"/>
			
				<rect x="353" y="344.7" transform="matrix(1 -1.248217e-03 1.248217e-03 1 -0.4305 0.578)" class="st57" width="219.6" height="1"/>
			
				<rect x="507.4" y="264.4" transform="matrix(0.2151 -0.9766 0.9766 0.2151 75.6791 755.6437)" class="st58" width="1" height="132.6"/>
			
				<rect x="408.2" y="250.9" transform="matrix(0.5672 -0.8236 0.8236 0.5672 -64.2155 463.3278)" class="st59" width="1" height="83.7"/>
			
				<rect x="350.8" y="330.4" transform="matrix(0.9527 -0.3039 0.3039 0.9527 -81.7269 136.6324)" class="st60" width="94.6" height="1"/>
			
				<rect x="229" y="316.2" transform="matrix(0.9514 -0.308 0.308 0.9514 -84.4728 98.2584)" class="st39" width="80.1" height="1"/>
			
				<rect x="204.6" y="280.8" transform="matrix(0.5537 -0.8327 0.8327 0.5537 -168.1699 309.9676)" class="st39" width="1" height="62.1"/>
			
				<rect x="435.6" y="250.2" transform="matrix(0.9776 -0.2103 0.2103 0.9776 -49.9108 98.0415)" class="st61" width="1" height="67"/>
			
				<rect x="426.4" y="242.4" transform="matrix(0.7981 -0.6026 0.6026 0.7981 -57.562 314.0579)" class="st62" width="26.9" height="1"/>
			
				<rect x="440.9" y="300.8" transform="matrix(0.9575 -0.2885 0.2885 0.9575 -65.923 155.1763)" class="st63" width="105.3" height="1"/>
			
				<rect x="496.7" y="207.2" transform="matrix(0.4807 -0.8769 0.8769 0.4807 29.8234 571.2219)" class="st45" width="1" height="106.5"/>
			
				<rect x="405.8" y="275.2" transform="matrix(9.044895e-02 -0.9959 0.9959 9.044895e-02 131.8942 695.7238)" class="st64" width="82" height="1"/>
			
				<rect x="329.6" y="294.1" transform="matrix(0.6651 -0.7468 0.7468 0.6651 -132.0198 355.272)" class="st43" width="1" height="61.5"/>
			
				<rect x="324.1" y="306.7" transform="matrix(0.2684 -0.9633 0.9633 0.2684 -29.8504 575.0078)" class="st65" width="79.1" height="1"/>
			
				<rect x="302.7" y="286.2" transform="matrix(0.8847 -0.4662 0.4662 0.8847 -94.3759 191.9033)" class="st64" width="75.9" height="1"/>
			<polygon class="st66" points="354.1,348 93.3,313.6 93.3,312.6 354.1,347 			"/>
			<polygon class="st67" points="93.4,313.6 93.2,312.6 261.4,319.3 261.6,320.2 			"/>
			
				<rect x="354.1" y="346.9" transform="matrix(1 -1.247516e-03 1.247516e-03 1 -0.433 0.579)" class="st42" width="219.6" height="1"/>
			
				<rect x="513.8" y="260.1" transform="matrix(0.3647 -0.9311 0.9311 0.3647 25.1152 684.6749)" class="st68" width="1" height="127.7"/>
			
				<rect x="545.4" y="277.2" transform="matrix(0.7262 -0.6875 0.6875 0.7262 -68.9831 462.3023)" class="st61" width="1" height="81.2"/>
			
				<rect x="348.9" y="323.6" transform="matrix(0.9071 -0.4209 0.4209 0.9071 -98.8264 200.3455)" class="st69" width="111.1" height="1"/>
			<polygon class="st70" points="93.6,313.5 93,312.7 192.3,303.9 192.9,304.6 			"/>
			
				<rect x="331.5" y="304.8" transform="matrix(0.5559 -0.8313 0.8313 0.5559 -83.9355 453.3989)" class="st71" width="101.6" height="1"/>
			<polygon class="st48" points="354,347.9 261.3,320.2 261.6,319.3 354.2,347 			"/>
			
				<rect x="327.8" y="254.3" transform="matrix(0.8568 -0.5156 0.5156 0.8568 -110.0003 212.8181)" class="st72" width="1" height="100.4"/>
			
				<rect x="246.3" y="290.1" transform="matrix(0.5747 -0.8184 0.8184 0.5747 -117.9326 354.3251)" class="st73" width="71.2" height="1"/>
			
				<rect x="226.6" y="276.7" transform="matrix(0.2194 -0.9756 0.9756 0.2194 -127.172 465.0508)" class="st74" width="1" height="70.6"/>
			
				<rect x="179.5" y="273" transform="matrix(0.6945 -0.7195 0.7195 0.6945 -128.8082 243.5305)" class="st75" width="85.7" height="1"/>
			
				<rect x="256.3" y="242.4" transform="matrix(0.9928 -0.1201 0.1201 0.9928 -31.9084 32.873)" class="st64" width="1" height="77.7"/>
			
				<rect x="442.8" y="149" transform="matrix(2.772557e-02 -0.9996 0.9996 2.772557e-02 225.453 642.9883)" class="st57" width="1" height="113.1"/>
			
				<rect x="432.2" y="252.8" transform="matrix(0.6475 -0.7621 0.7621 0.6475 -62.2472 429.0803)" class="st65" width="1" height="58.1"/>
			
				<rect x="402.5" y="234.6" transform="matrix(0.8476 -0.5306 0.5306 0.8476 -55.375 277.368)" class="st41" width="105.3" height="1"/>
			
				<rect x="454.3" y="294" transform="matrix(0.9813 -0.1925 0.1925 0.9813 -47.5833 99.1282)" class="st57" width="64.3" height="1"/>
			
				<rect x="425.5" y="253.4" transform="matrix(0.4327 -0.9015 0.9015 0.4327 41.8717 574.3602)" class="st42" width="103.7" height="1"/>
			
				<rect x="515.7" y="278.4" transform="matrix(0.8978 -0.4405 0.4405 0.8978 -67.8977 265.1292)" class="st43" width="42.9" height="1"/>
			
				<rect x="508.4" y="206.2" transform="matrix(0.9759 -0.2181 0.2181 0.9759 -41.7834 116.9736)" class="st76" width="1" height="83.1"/>
			
				<rect x="356" y="208.2" transform="matrix(1.389691e-02 -0.9999 0.9999 1.389691e-02 89.2779 615.0352)" class="st71" width="1" height="108.2"/>
			
				<rect x="398.2" y="201.7" transform="matrix(0.9271 -0.3748 0.3748 0.9271 -58.4617 166.4106)" class="st77" width="1" height="63.6"/>
			
				<rect x="527.6" y="196.2" transform="matrix(0.7395 -0.6731 0.6731 0.7395 -22.8296 417.547)" class="st78" width="1" height="84.1"/>
			
				<rect x="293.5" y="232.3" transform="matrix(0.8259 -0.5638 0.5638 0.8259 -71.2526 234.7984)" class="st79" width="102.1" height="1"/>
			
				<rect x="276.8" y="225.2" transform="matrix(0.3516 -0.9362 0.9362 0.3516 -56.1993 423.0028)" class="st62" width="1" height="53.7"/>
			
				<rect x="573.1" y="127.6" transform="matrix(1 -1.216852e-03 1.216852e-03 1 -0.2885 0.6982)" class="st80" width="1" height="219.6"/>
			
				<rect x="564.6" y="268.4" transform="matrix(0.9762 -0.2171 0.2171 0.9762 -53.447 130.0115)" class="st50" width="1" height="79.7"/>
			
				<rect x="493.5" y="198" transform="matrix(0.1199 -0.9928 0.9928 0.1199 300.1442 735.5482)" class="st81" width="142.8" height="1"/>
			
				<rect x="482.4" y="166.9" transform="matrix(0.6792 -0.7339 0.7339 0.6792 49.299 447.5418)" class="st82" width="108.4" height="1"/>
			
				<rect x="465.3" y="129.3" transform="matrix(0.6792 -0.734 0.734 0.6792 20.4931 398.1979)" class="st83" width="1" height="92.8"/>
			
				<rect x="452.8" y="155.1" transform="matrix(9.442687e-02 -0.9955 0.9955 9.442687e-02 302.1766 643.2524)" class="st47" width="103.7" height="1"/>
			
				<rect x="541" y="81.6" transform="matrix(0.3473 -0.9377 0.9377 0.3473 244.8937 583.3234)" class="st84" width="1" height="68.2"/>
			<polygon class="st85" points="352.5,346.3 91.6,311.9 91.6,311 352.5,345.4 			"/>
			<rect x="175" y="278" transform="matrix(0.97 -0.2433 0.2433 0.97 -61.3076 60.4252)" class="st61" width="77.9" height="1"/>
			<polygon class="st70" points="92,311.8 91.3,311.2 175.8,287.6 176.6,288.2 			"/>
			
				<rect x="208.5" y="269.1" transform="matrix(0.5055 -0.8628 0.8628 0.5055 -161.6257 332.2043)" class="st86" width="1" height="76"/>
			<polygon class="st73" points="91.7,311.9 91.6,311 241.7,325.9 241.9,326.8 			"/>
			
				<rect x="217.7" y="297.2" transform="matrix(0.1708 -0.9853 0.9853 0.1708 -88.6347 489.9731)" class="st63" width="58.2" height="1"/>
			
				<rect x="250.7" y="261.7" transform="matrix(0.9508 -0.3098 0.3098 0.9508 -67.8406 97.3262)" class="st69" width="43.5" height="1"/>
			
				<rect x="296.7" y="279.9" transform="matrix(0.1738 -0.9848 0.9848 0.1738 -85.4793 570.2855)" class="st73" width="1" height="112.4"/>
			
				<rect x="223.7" y="290.4" transform="matrix(0.5871 -0.8095 0.8095 0.5871 -125.0496 336.6177)" class="st76" width="87.5" height="1"/>
			
				<rect x="352.5" y="345.2" transform="matrix(1 -1.248217e-03 1.248217e-03 1 -0.4312 0.5773)" class="st42" width="219.6" height="1"/>
			
				<rect x="350.6" y="332.2" transform="matrix(0.9592 -0.2827 0.2827 0.9592 -77.8606 125.8581)" class="st43" width="93.1" height="1"/>
			
				<rect x="506.5" y="266.1" transform="matrix(0.1961 -0.9806 0.9806 0.1961 81.4437 764.4338)" class="st44" width="1" height="132.9"/>
			<polygon class="st45" points="441.6,320 365.3,286.4 365.7,285.6 442,319.1 			"/>
			
				<rect x="328.4" y="315.5" transform="matrix(0.2137 -0.9769 0.9769 0.2137 -26.3608 599.1104)" class="st40" width="61.2" height="1"/>
			
				<rect x="328.8" y="231.5" transform="matrix(0.3887 -0.9213 0.9213 0.3887 -48.1471 468.9125)" class="st87" width="1" height="78.5"/>
			
				<rect x="322.3" y="246.6" transform="matrix(0.836 -0.5488 0.5488 0.836 -112.0497 226.4751)" class="st69" width="1" height="108.1"/>
			
				<rect x="289.5" y="237.9" transform="matrix(0.9126 -0.4089 0.4089 0.9126 -68.5016 156.3085)" class="st73" width="83.7" height="1"/>
			
				<rect x="542.1" y="298.5" transform="matrix(0.4361 -0.8999 0.8999 0.4361 7.8628 675.0922)" class="st46" width="1" height="65.6"/>
			
				<rect x="421.9" y="154.7" transform="matrix(0.9777 -0.2101 0.2101 0.9777 -22.3522 99.9256)" class="st47" width="74.6" height="1"/>
			
				<rect x="335.1" y="253.2" transform="matrix(6.123779e-02 -0.9981 0.9981 6.123779e-02 91.8483 604.9258)" class="st48" width="64.9" height="1"/>
			
				<rect x="356.3" y="254.4" transform="matrix(0.8391 -0.544 0.544 0.8391 -72.0909 265.9835)" class="st49" width="114.5" height="1"/>
			
				<rect x="356.7" y="191.7" transform="matrix(0.6743 -0.7384 0.7384 0.6743 -12.8741 355.0755)" class="st50" width="78.9" height="1"/>
			
				<rect x="415.1" y="176.4" transform="matrix(2.640835e-02 -0.9997 0.9997 2.640835e-02 182.1965 632.0271)" class="st51" width="1" height="92.1"/>
			<polygon class="st52" points="478.2,202.4 477.3,202.1 495.2,147.2 496.1,147.5 			"/>
			
				<rect x="441.7" y="317.8" transform="matrix(0.9993 -3.641698e-02 3.641698e-02 0.9993 -11.2727 17.597)" class="st53" width="71.3" height="1"/>
			
				<rect x="402.8" y="271.1" transform="matrix(0.2039 -0.979 0.979 0.2039 93.7129 658.4443)" class="st47" width="97.9" height="1"/>
			
				<rect x="449.8" y="148.8" transform="matrix(0.5803 -0.8144 0.8144 0.5803 40.2612 443.3305)" class="st54" width="1" height="67.6"/>
			
				<rect x="441.7" y="157.3" transform="matrix(0.8419 -0.5397 0.5397 0.8419 -34.4289 269.1921)" class="st55" width="1" height="72.1"/>
			
				<rect x="571.5" y="125.9" transform="matrix(1 -1.378010e-03 1.378010e-03 1 -0.3243 0.7884)" class="st57" width="1" height="219.6"/>
			
				<rect x="557.2" y="214.5" transform="matrix(0.9761 -0.2175 0.2175 0.9761 -47.7346 128.0189)" class="st58" width="1" height="132.6"/>
			
				<rect x="519" y="139.9" transform="matrix(0.8222 -0.5692 0.5692 0.8222 -11.0818 327.9951)" class="st59" width="1" height="83.7"/>
			
				<rect x="510.2" y="170.6" transform="matrix(0.3014 -0.9535 0.9535 0.3014 226.4331 651.1092)" class="st60" width="94.6" height="1"/>
			
				<rect x="510" y="175.7" transform="matrix(0.2078 -0.9782 0.9782 0.2078 199.8046 665.0469)" class="st61" width="1" height="67"/>
			
				<rect x="456.2" y="212.5" transform="matrix(0.6006 -0.7996 0.7996 0.6006 17.3299 460.5903)" class="st62" width="26.9" height="1"/>
			
				<rect x="475.5" y="266.1" transform="matrix(0.2861 -0.9582 0.9582 0.2861 121.6623 696.3831)" class="st63" width="105.3" height="1"/>
			
				<rect x="486.9" y="217.1" transform="matrix(0.8757 -0.4829 0.4829 0.8757 -69.9543 268.9626)" class="st45" width="1" height="106.5"/>
			
				<rect x="461.4" y="219.4" transform="matrix(0.9957 -9.298238e-02 9.298238e-02 0.9957 -18.271 47.6706)" class="st64" width="82" height="1"/>
			<polygon class="st43" points="571.5,126.3 545.8,33.3 546.5,32.6 572.2,125.6 			"/>
			
				<rect x="494.2" y="136.2" transform="matrix(0.9626 -0.2708 0.2708 0.9626 -17.0604 149.6309)" class="st65" width="79.1" height="1"/>
			<polygon class="st64" points="496.1,147.6 495.2,147.1 545.7,32.7 546.5,33.2 			"/>
		</g>
		
			<radialGradient id="SVGID_33_" cx="921.249" cy="-196.2086" r="12.3643" gradientTransform="matrix(1 -1.226482e-03 1.226482e-03 1 -474.3389 341.1161)" gradientUnits="userSpaceOnUse">
			<stop  offset="0" style="stop-color:#FFFFFF"/>
			<stop  offset="0.8858" style="stop-color:#000000"/>
		</radialGradient>
		<path class="st88" d="M459,143.8c0,6.8-5.5,12.4-12.3,12.4c-6.8,0-12.4-5.5-12.4-12.3c0-6.8,5.5-12.4,12.3-12.4
			C453.5,131.4,459,136.9,459,143.8z"/>
		
			<radialGradient id="SVGID_34_" cx="1021.2533" cy="-307.1236" r="12.3643" gradientTransform="matrix(1 -1.226482e-03 1.226482e-03 1 -474.3389 341.1161)" gradientUnits="userSpaceOnUse">
			<stop  offset="0" style="stop-color:#FFFFFF"/>
			<stop  offset="0.8858" style="stop-color:#000000"/>
		</radialGradient>
		<circle class="st89" cx="546.5" cy="32.7" r="12.4"/>
		
			<radialGradient id="SVGID_35_" cx="984.9944" cy="-236.0624" r="12.3643" gradientTransform="matrix(1 -1.226482e-03 1.226482e-03 1 -474.3389 341.1161)" gradientUnits="userSpaceOnUse">
			<stop  offset="0" style="stop-color:#FFFFFF"/>
			<stop  offset="0.8858" style="stop-color:#000000"/>
		</radialGradient>
		<path class="st90" d="M522.7,103.8c0,6.8-5.5,12.4-12.3,12.4c-6.8,0-12.4-5.5-12.4-12.3c0-6.8,5.5-12.4,12.3-12.4
			C517.2,91.5,522.7,97,522.7,103.8z"/>
		
			<radialGradient id="SVGID_36_" cx="726.941" cy="-96.6267" r="12.3643" gradientTransform="matrix(1 -1.226482e-03 1.226482e-03 1 -474.3389 341.1161)" gradientUnits="userSpaceOnUse">
			<stop  offset="0" style="stop-color:#FFFFFF"/>
			<stop  offset="0.8858" style="stop-color:#000000"/>
		</radialGradient>
		<path class="st91" d="M264.8,243.6c0,6.8-5.5,12.4-12.3,12.4c-6.8,0-12.4-5.5-12.4-12.3s5.5-12.4,12.3-12.4
			C259.3,231.2,264.8,236.8,264.8,243.6z"/>
		
			<radialGradient id="SVGID_37_" cx="972.8813" cy="-132.4051" r="12.3643" gradientTransform="matrix(1 -1.226482e-03 1.226482e-03 1 -474.3389 341.1161)" gradientUnits="userSpaceOnUse">
			<stop  offset="0" style="stop-color:#FFFFFF"/>
			<stop  offset="0.8858" style="stop-color:#000000"/>
		</radialGradient>
		<path class="st92" d="M510.7,207.5c0,6.8-5.5,12.4-12.3,12.4c-6.8,0-12.4-5.5-12.4-12.3s5.5-12.4,12.3-12.4
			C505.2,195.1,510.7,200.7,510.7,207.5z"/>
		
			<radialGradient id="SVGID_38_" cx="860.7737" cy="-135.7433" r="12.3643" gradientTransform="matrix(1 -1.226482e-03 1.226482e-03 1 -474.3389 341.1161)" gradientUnits="userSpaceOnUse">
			<stop  offset="0" style="stop-color:#FFFFFF"/>
			<stop  offset="0.8858" style="stop-color:#000000"/>
		</radialGradient>
		<circle class="st93" cx="386.3" cy="204.3" r="12.4"/>
		
			<radialGradient id="SVGID_39_" cx="884.6744" cy="-76.5474" r="12.3643" gradientTransform="matrix(1 -1.226482e-03 1.226482e-03 1 -474.3389 341.1161)" gradientUnits="userSpaceOnUse">
			<stop  offset="0" style="stop-color:#FFFFFF"/>
			<stop  offset="0.8858" style="stop-color:#000000"/>
		</radialGradient>
		<circle class="st94" cx="410.2" cy="263.5" r="12.4"/>
		
			<radialGradient id="SVGID_40_" cx="650.2633" cy="-52.7193" r="12.3643" gradientTransform="matrix(1 -1.226482e-03 1.226482e-03 1 -474.3389 341.1161)" gradientUnits="userSpaceOnUse">
			<stop  offset="0" style="stop-color:#FFFFFF"/>
			<stop  offset="0.8858" style="stop-color:#000000"/>
		</radialGradient>
		<circle class="st95" cx="175.9" cy="287.6" r="12.4"/>
		
			<radialGradient id="SVGID_41_" cx="766.0378" cy="-84.2632" r="12.3643" gradientTransform="matrix(1 -1.226482e-03 1.226482e-03 1 -474.3389 341.1161)" gradientUnits="userSpaceOnUse">
			<stop  offset="0" style="stop-color:#FFFFFF"/>
			<stop  offset="0.8858" style="stop-color:#000000"/>
		</radialGradient>
		<path class="st96" d="M304,255.9c0,6.8-5.5,12.4-12.3,12.4c-6.8,0-12.4-5.5-12.4-12.3c0-6.8,5.5-12.4,12.3-12.4
			C298.4,243.5,304,249.1,304,255.9z"/>
		
			<radialGradient id="SVGID_42_" cx="917.7913" cy="-21.7069" r="12.3643" gradientTransform="matrix(1 -1.226482e-03 1.226482e-03 1 -474.3389 341.1161)" gradientUnits="userSpaceOnUse">
			<stop  offset="0" style="stop-color:#FFFFFF"/>
			<stop  offset="0.8858" style="stop-color:#000000"/>
		</radialGradient>
		<circle class="st97" cx="443.4" cy="318.3" r="12.4"/>
		
			<radialGradient id="SVGID_43_" cx="1018.1419" cy="-54.183" r="12.3643" gradientTransform="matrix(1 -1.226482e-03 1.226482e-03 1 -474.3389 341.1161)" gradientUnits="userSpaceOnUse">
			<stop  offset="0" style="stop-color:#FFFFFF"/>
			<stop  offset="0.8858" style="stop-color:#000000"/>
		</radialGradient>
		<path class="st98" d="M556.1,285.7c0,6.8-5.5,12.4-12.3,12.4s-12.4-5.5-12.4-12.3c0-6.8,5.5-12.4,12.3-12.4
			C550.5,273.3,556.1,278.8,556.1,285.7z"/>
	</g>
</g>
</svg>
