<?xml version="1.0" encoding="utf-8"?>
<!-- Generator: Adobe Illustrator 25.0.0, SVG Export Plug-In . SVG Version: 6.00 Build 0)  -->
<svg version="1.1" id="Layer_1" xmlns="http://www.w3.org/2000/svg" xmlns:xlink="http://www.w3.org/1999/xlink" x="0px" y="0px"
	 viewBox="0 0 2316 1581.6" style="enable-background:new 0 0 2316 1581.6;" xml:space="preserve">
<style type="text/css">
	.st0{fill:#FFFFFF;stroke:#0B0D0E;stroke-width:4;stroke-miterlimit:10;}
	.st1{fill:#C4C7CF;}
	.st2{fill:#E2E4E9;}
	.st3{fill:#651FFF;}
	.st4{fill:#5C5F6E;}
	.st5{fill:#F4F5F6;}
	.st6{fill:#ECECFE;}
	.st7{font-family:'ArialMT';}
	.st8{font-size:14px;}
	.st9{fill:#C9CBCF;}
	.st10{fill:#D1D5DB;}
	.st11{fill:#9CA3AF;}
	.st12{fill:#F4F5F6;stroke:#651FFF;stroke-width:2;stroke-miterlimit:10;}
	.st13{fill:#5218D2;}
	.st14{fill:#6520FF;}
	.st15{fill:#ECE9F7;}
	.st16{fill:#8466FF;}
	.st17{clip-path:url(#SVGID_2_);}
	.st18{fill:#E9356E;}
	.st19{fill:#C4205C;}
	.st20{fill:#F5EFFF;}
	.st21{fill:#5D46C2;}
	.st22{fill:#FF8881;}
	.st23{fill:#19274B;}
	.st24{fill:#F55B5D;}
	.st25{fill:#D1373F;}
	.st26{opacity:0.5;}
	.st27{fill:#33476D;}
	.st28{clip-path:url(#SVGID_4_);}
	.st29{fill:#5A184A;}
	.st30{fill:#FFAC32;}
	.st31{fill:#FFFFFF;}
	.st32{fill:#F6F3FF;stroke:#651FFF;stroke-width:2;stroke-miterlimit:10;}
	.st33{fill:#0B0D0E;}
	.st34{font-size:18.3px;}
	.st35{fill:#6CB4DB;}
	.st36{fill:#4AD5FF;}
	.st37{clip-path:url(#SVGID_6_);}
	.st38{fill:#00E5FF;}
	.st39{fill:#00B8D4;}
	.st40{fill:none;stroke:#0D1949;stroke-width:2.32;stroke-linecap:round;stroke-miterlimit:10;stroke-dasharray:0,0,5.81,9.29;}
	.st41{fill:#838696;}
	.st42{fill:#0D1949;}
	.st43{fill:none;stroke:#0D1949;stroke-width:2.9;stroke-linecap:round;stroke-miterlimit:10;}
	.st44{fill:#FFAE00;}
	.st45{fill:#006AA7;}
	.st46{fill:none;stroke:#006AA7;stroke-width:2.9;stroke-linecap:round;stroke-miterlimit:10;}
	.st47{fill:none;stroke:#FFFFFF;stroke-width:2.9;stroke-linecap:round;stroke-miterlimit:10;}
	.st48{fill:#FF4F48;}
	.st49{fill:#0D1949;stroke:#0D1949;stroke-width:0.75;stroke-miterlimit:10;}
</style>
<g>
	<path class="st0" d="M436.4,282.8h1416c26.5,0,48,21.5,48,48v886c0,26.5-21.5,48-48,48h-1416c-26.5,0-48-21.5-48-48v-886
		C388.3,304.3,409.8,282.8,436.4,282.8z"/>
	<path class="st1" d="M886.2,390.1h131.1c2.2,0,4,1.8,4,4v16c0,2.2-1.8,4-4,4H886.2c-2.2,0-4-1.8-4-4v-16
		C882.2,391.9,884,390.1,886.2,390.1z"/>
	<path class="st2" d="M886.2,423h230.4c2.2,0,4,1.8,4,4v8c0,2.2-1.8,4-4,4H886.2c-2.2,0-4-1.8-4-4v-8C882.2,424.8,884,423,886.2,423
		z"/>
	<path class="st3" d="M886.2,482.1h104.6c2.2,0,4,1.8,4,4v16c0,2.2-1.8,4-4,4H886.2c-2.2,0-4-1.8-4-4v-16
		C882.2,483.9,884,482.1,886.2,482.1z"/>
	<path class="st4" d="M886.2,515h205.1c2.2,0,4,1.8,4,4v8c0,2.2-1.8,4-4,4H886.2c-2.2,0-4-1.8-4-4v-8C882.2,516.8,884,515,886.2,515
		z"/>
	<path class="st1" d="M886.2,574.3h125c2.2,0,4,1.8,4,4v16c0,2.2-1.8,4-4,4h-125c-2.2,0-4-1.8-4-4v-16
		C882.2,576.1,884,574.3,886.2,574.3z"/>
	<path class="st2" d="M886.2,607.2h205.1c2.2,0,4,1.8,4,4v8c0,2.2-1.8,4-4,4H886.2c-2.2,0-4-1.8-4-4v-8
		C882.2,609,884,607.2,886.2,607.2z"/>
	<path class="st1" d="M886.2,670h153.4c2.2,0,4,1.8,4,4v16c0,2.2-1.8,4-4,4H886.2c-2.2,0-4-1.8-4-4v-16
		C882.2,671.8,884,670,886.2,670z"/>
	<path class="st2" d="M886.2,702.9h203.3c2.2,0,4,1.8,4,4v8c0,2.2-1.8,4-4,4H886.2c-2.2,0-4-1.8-4-4v-8
		C882.2,704.7,884,702.9,886.2,702.9z"/>
	<path class="st1" d="M886.2,766.4h95.4c2.2,0,4,1.8,4,4v16c0,2.2-1.8,4-4,4h-95.4c-2.2,0-4-1.8-4-4v-16
		C882.2,768.2,884,766.4,886.2,766.4z"/>
	<path class="st2" d="M886.2,799.3h232.4c2.2,0,4,1.8,4,4v8c0,2.2-1.8,4-4,4H886.2c-2.2,0-4-1.8-4-4v-8
		C882.2,801.1,884,799.3,886.2,799.3z"/>
	<path class="st1" d="M886.2,862.8h81.6c2.2,0,4,1.8,4,4v16c0,2.2-1.8,4-4,4h-81.6c-2.2,0-4-1.8-4-4v-16
		C882.2,864.6,884,862.8,886.2,862.8z"/>
	<path class="st2" d="M886.2,895.7h207.7c2.2,0,4,1.8,4,4v8c0,2.2-1.8,4-4,4H886.2c-2.2,0-4-1.8-4-4v-8
		C882.2,897.5,884,895.7,886.2,895.7z"/>
	<path class="st1" d="M886.2,955.8h217.5c2.2,0,4,1.8,4,4v16c0,2.2-1.8,4-4,4H886.2c-2.2,0-4-1.8-4-4v-16
		C882.2,957.6,884,955.8,886.2,955.8z"/>
	<path class="st2" d="M886.2,988.7h237c2.2,0,4,1.8,4,4v8c0,2.2-1.8,4-4,4h-237c-2.2,0-4-1.8-4-4v-8
		C882.2,990.5,884,988.7,886.2,988.7z"/>
	<path class="st1" d="M886.2,1047.1h311.1c2.2,0,4,1.8,4,4v16c0,2.2-1.8,4-4,4H886.2c-2.2,0-4-1.8-4-4v-16
		C882.2,1048.9,884,1047.1,886.2,1047.1z"/>
	<path class="st2" d="M886.2,1080h211.3c2.2,0,4,1.8,4,4v8c0,2.2-1.8,4-4,4H886.2c-2.2,0-4-1.8-4-4v-8
		C882.2,1081.8,884,1080,886.2,1080z"/>
	<path class="st1" d="M886.2,1139h119.5c2.2,0,4,1.8,4,4v16c0,2.2-1.8,4-4,4H886.2c-2.2,0-4-1.8-4-4v-16
		C882.2,1140.8,884,1139,886.2,1139z"/>
	<path class="st2" d="M886.2,1171.9h206.2c2.2,0,4,1.8,4,4v8c0,2.2-1.8,4-4,4H886.2c-2.2,0-4-1.8-4-4v-8
		C882.2,1173.7,884,1171.9,886.2,1171.9z"/>
	<path class="st2" d="M800.5,950.1h40c6.6,0,12,5.4,12,12v40c0,6.6-5.4,12-12,12h-40c-6.6,0-12-5.4-12-12v-40
		C788.5,955.5,793.9,950.1,800.5,950.1z"/>
	<path class="st2" d="M800.5,1040.9h40c6.6,0,12,5.4,12,12v40c0,6.6-5.4,12-12,12h-40c-6.6,0-12-5.4-12-12v-40
		C788.5,1046.3,793.9,1040.9,800.5,1040.9z"/>
	<path class="st2" d="M800.5,1131.6h40c6.6,0,12,5.4,12,12v40c0,6.6-5.4,12-12,12h-40c-6.6,0-12-5.4-12-12v-40
		C788.5,1137,793.9,1131.6,800.5,1131.6z"/>
	<path class="st2" d="M800.5,384.4h40c6.6,0,12,5.4,12,12v40c0,6.6-5.4,12-12,12h-40c-6.6,0-12-5.4-12-12v-40
		C788.5,389.8,793.9,384.4,800.5,384.4z"/>
	<path class="st3" d="M800.5,476.7h40c6.6,0,12,5.4,12,12v40c0,6.6-5.4,12-12,12h-40c-6.6,0-12-5.4-12-12v-40
		C788.5,482.1,793.9,476.7,800.5,476.7z"/>
	<path class="st2" d="M800.5,568.5h40c6.6,0,12,5.4,12,12v40c0,6.6-5.4,12-12,12h-40c-6.6,0-12-5.4-12-12v-40
		C788.5,573.9,793.9,568.5,800.5,568.5z"/>
	<path class="st2" d="M800.5,664.6h40c6.6,0,12,5.4,12,12v40c0,6.6-5.4,12-12,12h-40c-6.6,0-12-5.4-12-12v-40
		C788.5,670,793.9,664.6,800.5,664.6z"/>
	<path class="st2" d="M800.5,761h40c6.6,0,12,5.4,12,12v40c0,6.6-5.4,12-12,12h-40c-6.6,0-12-5.4-12-12v-40
		C788.5,766.4,793.9,761,800.5,761z"/>
	<path class="st5" d="M434.4,284.8H751v978H435.9c-25,0-45.4-20.3-45.4-45.3V328.7C390.5,304.5,410.2,284.8,434.4,284.8L434.4,284.8
		z"/>
	<path class="st2" d="M800.5,857.3h40c6.6,0,12,5.4,12,12v40c0,6.6-5.4,12-12,12h-40c-6.6,0-12-5.4-12-12v-40
		C788.5,862.7,793.9,857.3,800.5,857.3z"/>
	<path class="st5" d="M1204.9,299.2h274.7c6.6,0,12,5.4,12,12v31.7c0,6.6-5.4,12-12,12h-274.7c-6.6,0-12-5.4-12-12v-31.7
		C1192.9,304.6,1198.3,299.2,1204.9,299.2z"/>
	<path class="st2" d="M1510.7,381.6h341.4c8.8,0,16,7.2,16,16v341.8c0,8.8-7.2,16-16,16h-341.4c-8.8,0-16-7.2-16-16V397.6
		C1494.7,388.8,1501.8,381.6,1510.7,381.6z"/>
	<path class="st2" d="M1498.7,859h26.3c2.2,0,4,1.8,4,4v8c0,2.2-1.8,4-4,4h-26.3c-2.2,0-4-1.8-4-4v-8
		C1494.7,860.8,1496.5,859,1498.7,859z"/>
	<path class="st2" d="M1498.6,879.7h60.4c2.2,0,4,1.8,4,4v16c0,2.2-1.8,4-4,4h-60.4c-2.2,0-4-1.8-4-4v-16
		C1494.6,881.5,1496.4,879.7,1498.6,879.7z"/>
	<path class="st2" d="M1498.7,933.4h73.2c2.2,0,4,1.8,4,4v8c0,2.2-1.8,4-4,4h-73.2c-2.2,0-4-1.8-4-4v-8
		C1494.7,935.2,1496.5,933.4,1498.7,933.4z"/>
	<path class="st2" d="M1498.6,954.1h171.2c2.2,0,4,1.8,4,4v16c0,2.2-1.8,4-4,4h-171.2c-2.2,0-4-1.8-4-4v-16
		C1494.6,955.9,1496.4,954.1,1498.6,954.1z"/>
	<path class="st2" d="M1498.7,1008.2h47.6c2.2,0,4,1.8,4,4v8c0,2.2-1.8,4-4,4h-47.6c-2.2,0-4-1.8-4-4v-8
		C1494.7,1010,1496.5,1008.2,1498.7,1008.2z"/>
	<path class="st2" d="M1498.6,1028.9h90.3c2.2,0,4,1.8,4,4v16c0,2.2-1.8,4-4,4h-90.3c-2.2,0-4-1.8-4-4v-16
		C1494.6,1030.7,1496.4,1028.9,1498.6,1028.9z"/>
	<path class="st2" d="M1498.7,1078.6h47.6c2.2,0,4,1.8,4,4v8c0,2.2-1.8,4-4,4h-47.6c-2.2,0-4-1.8-4-4v-8
		C1494.7,1080.4,1496.5,1078.6,1498.7,1078.6z"/>
	<path class="st2" d="M1498.6,1099.3h176.5c2.2,0,4,1.8,4,4v16c0,2.2-1.8,4-4,4h-176.5c-2.2,0-4-1.8-4-4v-16
		C1494.6,1101.1,1496.4,1099.3,1498.6,1099.3z"/>
	<path class="st5" d="M1540.9,1134.3h315c6.6,0,12,5.4,12,12v25.2c0,6.6-5.4,12-12,12h-315c-6.6,0-12-5.4-12-12v-25.2
		C1528.9,1139.7,1534.3,1134.3,1540.9,1134.3z"/>
	<path class="st3" d="M545.4,364.4h57.8c2.2,0,4,1.8,4,4v8c0,2.2-1.8,4-4,4h-57.8c-2.2,0-4-1.8-4-4v-8
		C541.4,366.2,543.2,364.4,545.4,364.4z"/>
	<path class="st3" d="M508.8,360.4h16c2.2,0,4,1.8,4,4v16c0,2.2-1.8,4-4,4h-16c-2.2,0-4-1.8-4-4v-16
		C504.8,362.2,506.6,360.4,508.8,360.4z"/>
	<path class="st2" d="M545.1,413.8h109.3c2.2,0,4,1.8,4,4v8c0,2.2-1.8,4-4,4H545.1c-2.2,0-4-1.8-4-4v-8
		C541.1,415.6,542.9,413.8,545.1,413.8z"/>
	<path class="st2" d="M508.5,409.8h16c2.2,0,4,1.8,4,4v16c0,2.2-1.8,4-4,4h-16c-2.2,0-4-1.8-4-4v-16
		C504.5,411.6,506.3,409.8,508.5,409.8z"/>
	<path class="st2" d="M545.9,463.1H655c2.2,0,4,1.8,4,4v8c0,2.2-1.8,4-4,4H545.9c-2.2,0-4-1.8-4-4v-8
		C541.9,464.9,543.7,463.1,545.9,463.1z"/>
	<path class="st2" d="M509.3,459.1h16c2.2,0,4,1.8,4,4v16c0,2.2-1.8,4-4,4h-16c-2.2,0-4-1.8-4-4v-16
		C505.3,460.9,507.1,459.1,509.3,459.1z"/>
	<path class="st2" d="M545.4,512.5h34.7c2.2,0,4,1.8,4,4v8c0,2.2-1.8,4-4,4h-34.7c-2.2,0-4-1.8-4-4v-8
		C541.4,514.3,543.2,512.5,545.4,512.5z"/>
	<path class="st2" d="M508.8,508.5h16c2.2,0,4,1.8,4,4v16c0,2.2-1.8,4-4,4h-16c-2.2,0-4-1.8-4-4v-16
		C504.8,510.3,506.6,508.5,508.8,508.5z"/>
	<path class="st2" d="M509,317.5h30c2.2,0,4,1.8,4,4v8c0,2.2-1.8,4-4,4h-30c-2.2,0-4-1.8-4-4v-8C505,319.3,506.8,317.5,509,317.5z"
		/>
	<path class="st2" d="M508.8,579.3h94.4c2.2,0,4,1.8,4,4v8c0,2.2-1.8,4-4,4h-94.4c-2.2,0-4-1.8-4-4v-8
		C504.8,581.1,506.6,579.3,508.8,579.3z"/>
	<path class="st2" d="M545.4,625.2h95c2.2,0,4,1.8,4,4v8c0,2.2-1.8,4-4,4h-95c-2.2,0-4-1.8-4-4v-8
		C541.4,627,543.2,625.2,545.4,625.2z"/>
	<path class="st2" d="M508.8,621.2h16c2.2,0,4,1.8,4,4v16c0,2.2-1.8,4-4,4h-16c-2.2,0-4-1.8-4-4v-16
		C504.8,623,506.6,621.2,508.8,621.2z"/>
	<path class="st2" d="M545.4,675.1h109.3c2.2,0,4,1.8,4,4v8c0,2.2-1.8,4-4,4H545.4c-2.2,0-4-1.8-4-4v-8
		C541.4,676.9,543.2,675.1,545.4,675.1z"/>
	<path class="st2" d="M508.8,671.1h16c2.2,0,4,1.8,4,4v16c0,2.2-1.8,4-4,4h-16c-2.2,0-4-1.8-4-4v-16
		C504.8,672.9,506.6,671.1,508.8,671.1z"/>
	<path class="st2" d="M508.8,743.3h68.1c2.2,0,4,1.8,4,4v8c0,2.2-1.8,4-4,4h-68.1c-2.2,0-4-1.8-4-4v-8
		C504.8,745.1,506.6,743.3,508.8,743.3z"/>
	<path class="st2" d="M582,791.3h99.7c2.2,0,4,1.8,4,4v8c0,2.2-1.8,4-4,4H582c-2.2,0-4-1.8-4-4v-8C578,793.1,579.8,791.3,582,791.3z
		"/>
	<path class="st2" d="M545.4,787.3h16c2.2,0,4,1.8,4,4v16c0,2.2-1.8,4-4,4h-16c-2.2,0-4-1.8-4-4v-16
		C541.4,789.1,543.2,787.3,545.4,787.3z"/>
	<path class="st2" d="M581.8,846.3h88.2c2.2,0,4,1.8,4,4v8c0,2.2-1.8,4-4,4h-88.2c-2.2,0-4-1.8-4-4v-8
		C577.8,848.1,579.6,846.3,581.8,846.3z"/>
	<path class="st2" d="M545.2,842.3h16c2.2,0,4,1.8,4,4v16c0,2.2-1.8,4-4,4h-16c-2.2,0-4-1.8-4-4v-16
		C541.2,844.1,543,842.3,545.2,842.3z"/>
	<path class="st2" d="M581.8,901.2h106.6c2.2,0,4,1.8,4,4v8c0,2.2-1.8,4-4,4H581.8c-2.2,0-4-1.8-4-4v-8
		C577.8,903,579.6,901.2,581.8,901.2z"/>
	<path class="st2" d="M545.2,897.2h16c2.2,0,4,1.8,4,4v16c0,2.2-1.8,4-4,4h-16c-2.2,0-4-1.8-4-4v-16
		C541.2,899,543,897.2,545.2,897.2z"/>
	<path class="st2" d="M581.6,956.7h129.1c2.2,0,4,1.8,4,4v8c0,2.2-1.8,4-4,4H581.6c-2.2,0-4-1.8-4-4v-8
		C577.6,958.5,579.4,956.7,581.6,956.7z"/>
	<path class="st2" d="M545,952.7h16c2.2,0,4,1.8,4,4v16c0,2.2-1.8,4-4,4h-16c-2.2,0-4-1.8-4-4v-16C541,954.5,542.8,952.7,545,952.7z
		"/>
	<path class="st2" d="M582.1,1009.7h81c2.2,0,4,1.8,4,4v8c0,2.2-1.8,4-4,4h-81c-2.2,0-4-1.8-4-4v-8
		C578.1,1011.5,579.9,1009.7,582.1,1009.7z"/>
	<path class="st2" d="M545.5,1005.7h16c2.2,0,4,1.8,4,4v16c0,2.2-1.8,4-4,4h-16c-2.2,0-4-1.8-4-4v-16
		C541.5,1007.5,543.3,1005.7,545.5,1005.7z"/>
	<path class="st2" d="M582,1062.7h68.3c2.2,0,4,1.8,4,4v8c0,2.2-1.8,4-4,4H582c-2.2,0-4-1.8-4-4v-8
		C578,1064.5,579.8,1062.7,582,1062.7z"/>
	<path class="st2" d="M545.4,1058.7h16c2.2,0,4,1.8,4,4v16c0,2.2-1.8,4-4,4h-16c-2.2,0-4-1.8-4-4v-16
		C541.4,1060.5,543.2,1058.7,545.4,1058.7z"/>
	<path class="st2" d="M508.8,1134.2h75.3c2.2,0,4,1.8,4,4v8c0,2.2-1.8,4-4,4h-75.3c-2.2,0-4-1.8-4-4v-8
		C504.8,1136,506.6,1134.2,508.8,1134.2z"/>
	<path class="st2" d="M545.4,1182.8h101.1c2.2,0,4,1.8,4,4v8c0,2.2-1.8,4-4,4H545.4c-2.2,0-4-1.8-4-4v-8
		C541.4,1184.6,543.2,1182.8,545.4,1182.8z"/>
	<path class="st2" d="M508.8,1178.8h16c2.2,0,4,1.8,4,4v16c0,2.2-1.8,4-4,4h-16c-2.2,0-4-1.8-4-4v-16
		C504.8,1180.6,506.6,1178.8,508.8,1178.8z"/>
	<path class="st6" d="M417.2,486.5h28c8.8,0,16,7.2,16,16v28c0,8.8-7.2,16-16,16h-28c-8.8,0-16-7.2-16-16v-28
		C401.2,493.6,408.3,486.5,417.2,486.5z"/>
	<path class="st3" d="M433.5,520.6c-0.6,0-1.1,0.5-1.1,1.1s0.5,1.1,1.1,1.1s1.1-0.5,1.1-1.1S434.1,520.6,433.5,520.6z M440.3,505.8
		h-18.2c-1.7,0-3,1.4-3,3V524c0,1.7,1.4,3,3,3h18.2c1.7,0,3-1.4,3-3v-15.2C443.3,507.2,442,505.8,440.3,505.8L440.3,505.8z M441,524
		c0,0.4-0.3,0.8-0.8,0.8h-18.2c-0.4,0-0.8-0.3-0.8-0.8v-4.5c0-0.4,0.3-0.8,0.8-0.8h18.2c0.4,0,0.8,0.3,0.8,0.8V524z M441,516.6
		c-0.2-0.1-0.5-0.1-0.8-0.1h-18.2c-0.3,0-0.5,0-0.8,0.1v-7.7c0-0.4,0.3-0.8,0.8-0.8h18.2c0.4,0,0.8,0.3,0.8,0.8V516.6z M438,520.6
		c-0.6,0-1.1,0.5-1.1,1.1s0.5,1.1,1.1,1.1s1.1-0.5,1.1-1.1S438.6,520.6,438,520.6z"/>
	<path class="st4" d="M433.6,594.8h-4.9c-5,0-9,4-9,9c0,0.9,0.7,1.6,1.6,1.6H441c0.9,0,1.6-0.7,1.6-1.6
		C442.6,598.8,438.6,594.8,433.6,594.8z M422.2,603c0.4-3.2,3.2-5.7,6.5-5.7h4.9c3.3,0,6.1,2.5,6.5,5.7H422.2L422.2,603z
		 M431.2,592.4c3.6,0,6.5-2.9,6.5-6.5s-2.9-6.5-6.5-6.5s-6.5,2.9-6.5,6.5S427.6,592.4,431.2,592.4z M431.2,581.7
		c2.2,0,4.1,1.8,4.1,4.1s-1.8,4.1-4.1,4.1s-4.1-1.8-4.1-4.1S428.9,581.7,431.2,581.7z"/>
	<path class="st4" d="M441.3,667.5l1.6-1c0.5-0.3,0.7-0.8,0.6-1.4c-0.6-2.2-1.8-4.2-3.3-5.7c-0.4-0.4-1-0.5-1.5-0.2l-1.6,1
		c-0.5-0.4-1.1-0.7-1.7-1v-1.9c0-0.6-0.4-1-0.9-1.2c-2.2-0.6-4.5-0.6-6.6,0c-0.5,0.1-0.9,0.6-0.9,1.2v1.9c-0.6,0.3-1.2,0.6-1.7,1
		l-1.6-1c-0.5-0.3-1.1-0.2-1.5,0.2c-1.6,1.6-2.7,3.5-3.3,5.7c-0.1,0.5,0.1,1.1,0.6,1.4l1.6,1c-0.1,0.7-0.1,1.3,0,2l-1.6,1
		c-0.5,0.3-0.7,0.8-0.6,1.4c0.6,2.2,1.8,4.2,3.3,5.7c0.4,0.4,1,0.5,1.5,0.2l1.6-1c0.5,0.4,1.1,0.7,1.7,1v1.9c0,0.6,0.4,1,0.9,1.2
		c2.2,0.6,4.5,0.6,6.6,0c0.5-0.1,0.9-0.6,0.9-1.2v-1.9c0.6-0.3,1.2-0.6,1.7-1l1.6,1c0.5,0.3,1.1,0.2,1.5-0.2
		c1.6-1.6,2.7-3.5,3.3-5.7c0.1-0.5-0.1-1.1-0.6-1.4l-1.6-1C441.4,668.8,441.4,668.1,441.3,667.5z M438.6,670.7l2.3,1.3
		c-0.4,1.1-1,2.1-1.8,3l-2.3-1.3c-1.6,1.4-1.9,1.5-3.9,2.3v2.6c-1.2,0.2-2.3,0.2-3.5,0V676c-2-0.7-2.3-0.9-3.9-2.3l-2.3,1.3
		c-0.8-0.9-1.3-1.9-1.8-3l2.3-1.3c-0.4-2.1-0.4-2.4,0-4.5l-2.3-1.3c0.4-1.1,1-2.1,1.8-3l2.3,1.3c1.6-1.4,1.9-1.5,3.9-2.3v-2.6
		c1.2-0.2,2.3-0.2,3.5,0v2.6c2,0.7,2.3,0.9,3.9,2.3l2.3-1.3c0.8,0.9,1.3,1.9,1.8,3l-2.3,1.3C439,668.3,439,668.6,438.6,670.7
		L438.6,670.7z M431.2,663.5c-2.7,0-5,2.2-5,5s2.2,5,5,5s5-2.2,5-5S433.9,663.5,431.2,663.5z M431.2,670.9c-1.4,0-2.5-1.1-2.5-2.5
		s1.1-2.5,2.5-2.5s2.5,1.1,2.5,2.5S432.6,670.9,431.2,670.9z"/>
	<path class="st4" d="M432.4,781.2c4,0,7.6-1.8,10-4.8c1.4-1.8-0.1-4.3-2.3-3.9c-4.1,0.8-8-2.4-8-6.6c0-2.4,1.3-4.6,3.4-5.8
		c2-1.1,1.5-4.1-0.8-4.5c-0.8-0.1-1.6-0.2-2.4-0.2c-7.1,0-12.9,5.8-12.9,12.9S425.3,781.2,432.4,781.2L432.4,781.2z M432.4,757.9
		c0.6,0,1.3,0.1,1.9,0.2c-2.8,1.6-4.6,4.5-4.6,7.9c0,5.7,5.2,10,10.8,9c-1.9,2.4-4.9,3.9-8.1,3.9c-5.8,0-10.5-4.7-10.5-10.5
		S426.6,757.9,432.4,757.9L432.4,757.9z"/>
	<path class="st4" d="M438.5,426.3c-0.3-1.4-1.2-3.5,1.2-7.9c1.8-3.3,1-7.3-1.9-9.7l0.5-0.9c0.4-0.8,0.1-1.7-0.6-2.1
		s-1.7-0.1-2.1,0.6l-0.5,0.9c-3.5-1.1-7.3,0.3-9.1,3.7c-2.4,4.4-4.7,4.9-6,5.3c-0.4,0.1-0.7,0.4-0.9,0.7c-0.4,0.7-0.2,1.7,0.6,2.1
		l16.5,9c0.8,0.5,1.7,0.1,2.1-0.6C438.6,427.1,438.7,426.7,438.5,426.3L438.5,426.3L438.5,426.3z M422.4,417.8
		c1.6-0.7,3.7-2.1,5.7-5.8c0,0,0,0,0,0c1.5-2.7,4.8-3.6,7.5-2.2s3.6,4.8,2.2,7.5c0,0,0,0,0,0c-2,3.7-2.1,6.2-1.8,7.9L422.4,417.8
		L422.4,417.8z M425.8,427.6c1.5,0.8,3.4,0.3,4.3-1.2l-5.5-3C423.7,424.9,424.2,426.8,425.8,427.6z"/>
	<circle class="st3" cx="440.6" cy="426.8" r="11.1"/>
	<text transform="matrix(1 0 0 1 437.47 431.95)" class="st5 st7 st8">1</text>
	<path d="M1147.3,324c-0.2-2.7-2.4-4.8-5.2-4.8c-0.3,0-0.7,0-1,0.1c-1.5-1.9-3.8-3.1-6.4-3.1c-3.9,0-7.2,2.8-8,6.5
		c-2.8,1.1-4.6,3.8-4.6,6.9c0,4.1,3.3,7.4,7.4,7.4h15.6c3.7,0,6.7-3,6.7-6.7C1151.8,327.5,1150,325,1147.3,324L1147.3,324z
		 M1145.1,334.8h-15.6c-2.9,0-5.2-2.3-5.2-5.2c0-2.6,1.9-4.8,4.5-5.2v0c0-3.3,2.7-6,5.9-6c2.5,0,4.6,1.5,5.5,3.7
		c0.5-0.5,1.2-0.7,1.9-0.7c1.6,0,3,1.3,3,3c0,0.5-0.2,1.1-0.4,1.5c0.1,0,0.3,0,0.4,0c2.5,0,4.5,2,4.5,4.5S1147.5,334.8,1145.1,334.8
		L1145.1,334.8z M1135.8,321.7c-0.2-0.2-0.6-0.2-0.8,0l-4.8,4.8c-0.2,0.2-0.2,0.6,0,0.8l0.8,0.8c0.2,0.2,0.6,0.2,0.8,0l2.5-2.6v6.5
		c0,0.3,0.2,0.6,0.6,0.6h1.1c0.3,0,0.6-0.2,0.6-0.6v-6.5l2.5,2.6c0.2,0.2,0.6,0.2,0.8,0l0.8-0.8c0.2-0.2,0.2-0.6,0-0.8L1135.8,321.7
		L1135.8,321.7z"/>
	<path class="st2" d="M1256,319.1h125c2.2,0,4,1.8,4,4v8c0,2.2-1.8,4-4,4h-125c-2.2,0-4-1.8-4-4v-8
		C1252,320.9,1253.8,319.1,1256,319.1z"/>
	<path class="st2" d="M1238.2,336.8l-5.2-5.2c-0.1-0.1-0.2-0.1-0.4-0.1h-0.6c1.3-1.6,2.2-3.6,2.2-5.8c0-4.9-4-8.9-8.9-8.9
		s-8.9,4-8.9,8.9s4,8.9,8.9,8.9c2.2,0,4.2-0.8,5.8-2.2v0.6c0,0.1,0.1,0.3,0.2,0.4l5.2,5.2c0.2,0.2,0.5,0.2,0.7,0l1-1
		C1238.4,337.3,1238.4,337,1238.2,336.8L1238.2,336.8z M1225.4,332.5c-3.8,0-6.8-3.1-6.8-6.8s3.1-6.8,6.8-6.8s6.8,3.1,6.8,6.8
		S1229.1,332.5,1225.4,332.5z"/>
	<path class="st2" d="M1433.4,319.1h26.8c2.2,0,4,1.8,4,4v8c0,2.2-1.8,4-4,4h-26.8c-2.2,0-4-1.8-4-4v-8
		C1429.4,320.9,1431.2,319.1,1433.4,319.1z"/>
	<path class="st4" d="M1542.7,327.7c3.4,0,6.2-2.8,6.2-6.2s-2.8-6.2-6.2-6.2s-6.2,2.8-6.2,6.2S1539.3,327.7,1542.7,327.7z
		 M1542.7,317.4c2.3,0,4.1,1.8,4.1,4.1s-1.8,4.1-4.1,4.1s-4.1-1.8-4.1-4.1S1540.5,317.4,1542.7,317.4z M1546.6,328.4
		c-1.2,0-1.8,0.7-3.8,0.7s-2.6-0.7-3.8-0.7c-3.2,0-5.8,2.6-5.8,5.8v1.1c0,1.1,0.9,2,2.1,2h15.1c1.1,0,2.1-0.9,2.1-2v-1.1
		C1552.3,331,1549.7,328.4,1546.6,328.4L1546.6,328.4z M1550.3,335.2h-15.1v-1.1c0-2,1.7-3.7,3.7-3.7c0.6,0,1.6,0.7,3.8,0.7
		s3.2-0.7,3.8-0.7c2,0,3.7,1.7,3.7,3.7L1550.3,335.2L1550.3,335.2z M1559.8,324.6h-3.1v-3.1c0-0.4-0.3-0.7-0.7-0.7h-0.7
		c-0.4,0-0.7,0.3-0.7,0.7v3.1h-3.1c-0.4,0-0.7,0.3-0.7,0.7v0.7c0,0.4,0.3,0.7,0.7,0.7h3.1v3.1c0,0.4,0.3,0.7,0.7,0.7h0.7
		c0.4,0,0.7-0.3,0.7-0.7v-3.1h3.1c0.4,0,0.7-0.3,0.7-0.7v-0.7C1560.5,324.9,1560.2,324.6,1559.8,324.6z"/>
	<path class="st4" d="M1605.3,324c2.4,2.4,2.6,6.2,0.5,8.8c-0.3,0.4-0.1,0.2-4,4c-2.6,2.6-6.7,2.6-9.3,0c-2.6-2.6-2.6-6.7,0-9.3
		c1.5-1.5,2.4-2.4,3-3c0.3-0.4,0.9-0.1,1,0.4c0,0.6,0.1,1.2,0.2,1.8c0.1,0.2,0,0.4-0.2,0.5l-2.2,2.1c-1.5,1.5-1.5,4,0,5.6
		c1.5,1.5,4,1.5,5.6,0l3.5-3.5c1.5-1.5,1.5-4,0-5.6c-0.3-0.3-0.7-0.6-1.1-0.8c-0.2-0.1-0.3-0.3-0.3-0.6c0.1-0.5,0.3-1,0.7-1.4
		l0.2-0.2c0.2-0.2,0.4-0.2,0.7-0.1C1604.3,323.1,1604.8,323.5,1605.3,324L1605.3,324L1605.3,324z M1612.7,316.7
		c-2.6-2.6-6.7-2.6-9.3,0c-3.9,3.9-3.7,3.7-4,4c-2.1,2.6-1.9,6.4,0.5,8.8c0.5,0.5,1.1,0.9,1.7,1.2c0.2,0.1,0.5,0.1,0.7-0.1l0.2-0.2
		c0.4-0.4,0.6-0.9,0.7-1.4c0-0.2-0.1-0.5-0.3-0.6c-0.4-0.2-0.8-0.5-1.1-0.8c-1.5-1.5-1.5-4,0-5.6l3.5-3.5c1.6-1.5,4-1.5,5.6,0
		c1.5,1.5,1.5,4,0,5.6l-2.2,2.1c-0.1,0.1-0.2,0.3-0.2,0.5c0.1,0.6,0.2,1.2,0.2,1.8c0,0.5,0.6,0.7,1,0.4c0.5-0.5,1.4-1.4,3-3
		C1615.3,323.4,1615.3,319.2,1612.7,316.7L1612.7,316.7L1612.7,316.7z"/>
	<path class="st4" d="M523.7,963.1l-6.4,6.4c-0.2,0.2-0.5,0.2-0.7,0l-0.9-0.9c-0.2-0.2-0.2-0.5,0-0.7l5.2-5.2l-5.2-5.2
		c-0.2-0.2-0.2-0.5,0-0.7l0.9-0.9c0.2-0.2,0.5-0.2,0.7,0l6.4,6.4C523.9,962.5,523.9,962.9,523.7,963.1z"/>
	<path class="st4" d="M523.7,908.4l-6.4,6.4c-0.2,0.2-0.5,0.2-0.7,0l-0.9-0.9c-0.2-0.2-0.2-0.5,0-0.7l5.2-5.2l-5.2-5.2
		c-0.2-0.2-0.2-0.5,0-0.7l0.9-0.9c0.2-0.2,0.5-0.2,0.7,0l6.4,6.4C523.9,907.9,523.9,908.2,523.7,908.4z"/>
	<path class="st4" d="M523.7,853.6l-6.4,6.4c-0.2,0.2-0.5,0.2-0.7,0l-0.9-0.9c-0.2-0.2-0.2-0.5,0-0.7l5.2-5.2l-5.2-5.2
		c-0.2-0.2-0.2-0.5,0-0.7l0.9-0.9c0.2-0.2,0.5-0.2,0.7,0l6.4,6.4C523.9,853.1,523.9,853.4,523.7,853.6z"/>
	<path class="st4" d="M523.7,799l-6.4,6.4c-0.2,0.2-0.5,0.2-0.7,0l-0.9-0.9c-0.2-0.2-0.2-0.5,0-0.7l5.2-5.2l-5.2-5.2
		c-0.2-0.2-0.2-0.5,0-0.7l0.9-0.9c0.2-0.2,0.5-0.2,0.7,0l6.4,6.4C523.9,798.4,523.9,798.8,523.7,799z"/>
	<path class="st9" d="M710.6,325.2l6-6.1c0.2-0.2,0.5-0.2,0.7,0l0.8,0.8c0.2,0.2,0.2,0.5,0,0.7l-4.9,4.9l4.9,4.9
		c0.2,0.2,0.2,0.5,0,0.7l-0.8,0.8c-0.2,0.2-0.5,0.2-0.7,0l-6-6.1C710.4,325.7,710.4,325.4,710.6,325.2z M717.2,325.9l6,6.1
		c0.2,0.2,0.5,0.2,0.7,0l0.8-0.8c0.2-0.2,0.2-0.5,0-0.7l-4.9-4.9l4.9-4.9c0.2-0.2,0.2-0.5,0-0.7l-0.8-0.8c-0.2-0.2-0.5-0.2-0.7,0
		l-6,6.1C717,325.4,717,325.7,717.2,325.9z"/>
	<path class="st10" d="M716.9,584.5l4.3,4.3c0.1,0.1,0.1,0.4,0,0.5l-0.6,0.6c-0.1,0.1-0.4,0.1-0.5,0l-3.5-3.4l-3.5,3.4
		c-0.1,0.1-0.4,0.1-0.5,0l-0.6-0.6c-0.1-0.1-0.1-0.4,0-0.5l4.3-4.3C716.6,584.3,716.8,584.3,716.9,584.5L716.9,584.5z"/>
	<path class="st10" d="M716.9,747.2l4.3,4.3c0.1,0.1,0.1,0.4,0,0.5l-0.6,0.6c-0.1,0.1-0.4,0.1-0.5,0l-3.5-3.4l-3.5,3.4
		c-0.1,0.1-0.4,0.1-0.5,0l-0.6-0.6c-0.1-0.1-0.1-0.4,0-0.5l4.3-4.3C716.6,747.1,716.8,747.1,716.9,747.2L716.9,747.2z"/>
	<path class="st10" d="M716.9,1139.5l4.3,4.3c0.1,0.1,0.1,0.4,0,0.5l-0.6,0.6c-0.1,0.1-0.4,0.1-0.5,0l-3.5-3.4l-3.5,3.4
		c-0.1,0.1-0.4,0.1-0.5,0l-0.6-0.6c-0.1-0.1-0.1-0.4,0-0.5l4.3-4.3C716.5,1139.3,716.7,1139.3,716.9,1139.5L716.9,1139.5z"/>
	<path class="st3" d="M1853.8,314.5c-6.8,0-12.2,5.5-12.2,12.2s5.5,12.2,12.2,12.2s12.2-5.5,12.2-12.2S1860.5,314.5,1853.8,314.5z
		 M1853.8,336.6c-5.5,0-9.9-4.4-9.9-9.9s4.4-9.9,9.9-9.9s9.9,4.4,9.9,9.9S1859.2,336.6,1853.8,336.6z M1853.8,319.9
		c1.1,0,2.1,0.9,2.1,2.1s-0.9,2.1-2.1,2.1s-2.1-0.9-2.1-2.1S1852.6,319.9,1853.8,319.9z M1856.5,332.5c0,0.3-0.3,0.6-0.6,0.6h-4.3
		c-0.3,0-0.6-0.3-0.6-0.6v-1.2c0-0.3,0.3-0.6,0.6-0.6h0.6v-3.2h-0.6c-0.3,0-0.6-0.3-0.6-0.6v-1.2c0-0.3,0.3-0.6,0.6-0.6h3.2
		c0.3,0,0.6,0.3,0.6,0.6v4.9h0.6c0.3,0,0.6,0.3,0.6,0.6V332.5L1856.5,332.5z"/>
	<path class="st4" d="M1781.3,317.7v18.1c0,1.4,1.1,2.5,2.5,2.5h21.4c1.4,0,2.5-1.1,2.5-2.5v-18.1c0-1.4-1.1-2.5-2.5-2.5h-21.4
		C1782.4,315.2,1781.3,316.3,1781.3,317.7z M1793.2,317.7v7.8h-9.5V318c0-0.2,0.1-0.3,0.3-0.3H1793.2L1793.2,317.7z M1783.8,328h9.5
		v7.8h-9.2c-0.2,0-0.3-0.1-0.3-0.3L1783.8,328L1783.8,328z M1795.7,335.8V328h9.5v7.5c0,0.2-0.1,0.3-0.3,0.3H1795.7L1795.7,335.8z
		 M1805.2,325.5h-9.5v-7.8h9.2c0.2,0,0.3,0.1,0.3,0.3L1805.2,325.5L1805.2,325.5z"/>
	<path class="st4" d="M1717.1,334.1h1.1c0.3,0,0.6-0.2,0.6-0.6v-10c0-0.3-0.2-0.6-0.6-0.6h-1.1c-0.3,0-0.6,0.2-0.6,0.6v10
		C1716.5,333.9,1716.8,334.1,1717.1,334.1z M1724.7,318.6h-3.8l-1.6-2.6c-0.4-0.7-1.1-1.1-1.9-1.1h-4.7c-0.8,0-1.5,0.4-1.9,1.1
		l-1.6,2.6h-3.8c-0.4,0-0.7,0.3-0.7,0.7v0.7c0,0.4,0.3,0.7,0.7,0.7h0.7v15.6c0,1.2,1,2.2,2.2,2.2h13.3c1.2,0,2.2-1,2.2-2.2l0,0
		v-15.6h0.7c0.4,0,0.7-0.3,0.7-0.7v-0.7C1725.4,318.9,1725.1,318.6,1724.7,318.6L1724.7,318.6z M1712.6,317.2
		c0.1-0.1,0.1-0.1,0.2-0.1h4.3c0.1,0,0.2,0,0.2,0.1l0.8,1.4h-6.4L1712.6,317.2L1712.6,317.2z M1721.7,336.4h-13.3v-15.6h13.3V336.4z
		 M1711.9,334.1h1.1c0.3,0,0.6-0.2,0.6-0.6v-10c0-0.3-0.2-0.6-0.6-0.6h-1.1c-0.3,0-0.6,0.2-0.6,0.6v10
		C1711.3,333.9,1711.6,334.1,1711.9,334.1z"/>
	<path class="st4" d="M437.8,1181.1c3.4,2.2,5.7,6,5.7,10.4c0,6.8-5.5,12.3-12.3,12.3c-6.8,0-12.3-5.5-12.3-12.3
		c0-4.4,2.3-8.2,5.7-10.4c0.3-0.2,0.7-0.1,0.8,0.2l0.6,1c0.1,0.3,0.1,0.6-0.2,0.8c-2.8,1.8-4.6,4.8-4.6,8.4c0,5.5,4.4,9.9,9.9,9.9
		s9.9-4.4,9.9-9.9c0-3.5-1.8-6.6-4.6-8.4c-0.3-0.2-0.4-0.5-0.2-0.8l0.6-1C437.2,1181,437.5,1180.9,437.8,1181.1L437.8,1181.1z
		 M432.4,1192.5v-13.1c0-0.3-0.3-0.6-0.6-0.6h-1.2c-0.3,0-0.6,0.3-0.6,0.6v13.1c0,0.3,0.3,0.6,0.6,0.6h1.2
		C432.1,1193.1,432.4,1192.8,432.4,1192.5z"/>
	<path class="st3" d="M1516.8,777h-20.4c-0.9,0-1.7,0.8-1.7,1.7v20.6c0,1,0.8,1.7,1.7,1.7h20.4c0.9,0,1.7-0.8,1.7-1.7v-20.6
		C1518.5,777.7,1517.7,777,1516.8,777z M1515.9,798.4h-18.7V795h18.7V798.4z M1515.9,792.4h-0.8l-5.2-6.5c-0.4-0.5-1.2-0.5-1.6,0
		l-3.4,4.2l-1.8-2.5c-0.4-0.6-1.3-0.6-1.8,0l-3.4,4.7h-0.8v-12.9h18.7L1515.9,792.4L1515.9,792.4z M1502.3,784.7
		c0.9,0,1.7-0.8,1.7-1.7s-0.8-1.7-1.7-1.7s-1.7,0.8-1.7,1.7S1501.4,784.7,1502.3,784.7z"/>
	<path class="st2" d="M1550,1152.5H1776c2.2,0,4,1.8,4,4v8c0,2.2-1.8,4-4,4H1550c-2.2,0-4-1.8-4-4v-8
		C1546,1154.3,1547.8,1152.5,1550,1152.5z"/>
	<path class="st4" d="M1813,1151h-11c-0.9,0-1.6,0.7-1.6,1.6v1.6h-1.6c-0.9,0-1.6,0.7-1.6,1.6v11c0,0.9,0.7,1.6,1.6,1.6h11
		c0.9,0,1.6-0.7,1.6-1.6v-1.6h1.6c0.9,0,1.6-0.7,1.6-1.6v-11C1814.7,1151.7,1813.9,1151,1813,1151z M1809.5,1166.9H1799
		c-0.1,0-0.2-0.1-0.2-0.2v-10.6c0-0.1,0.1-0.2,0.2-0.2h1.4v7.7c0,0.9,0.7,1.6,1.6,1.6h7.7v1.4
		C1809.7,1166.8,1809.6,1166.9,1809.5,1166.9L1809.5,1166.9z M1812.8,1163.6h-10.6c-0.1,0-0.2-0.1-0.2-0.2v-10.6
		c0-0.1,0.1-0.2,0.2-0.2h10.6c0.1,0,0.2,0.1,0.2,0.2v10.6C1813,1163.5,1812.9,1163.6,1812.8,1163.6z"/>
	<path class="st4" d="M1513,1158.2h-11.5v-4c0-2.2,1.8-4.1,4-4.1c2.3,0,4.1,1.8,4.1,4.1v1c0,0.6,0.4,1,1,1s1-0.4,1-1v-1
		c0-3.4-2.7-6.2-6.1-6.2c-3.4,0-6.1,2.7-6.1,6.1v4.1h-1.4c-1.1,0-2,0.9-2,2v7.5c0,1.1,0.9,2,2,2h14.9c1.1,0,2-0.9,2-2v-7.5
		C1515,1159.1,1514.1,1158.2,1513,1158.2L1513,1158.2z M1513,1167.7h-14.9v-7.5h14.9V1167.7z"/>
	<path class="st4" d="M1842.3,1159.6c0,1-0.8,1.8-1.8,1.8s-1.8-0.8-1.8-1.8s0.8-1.8,1.8-1.8S1842.3,1158.6,1842.3,1159.6z
		 M1846.8,1157.8c-1,0-1.8,0.8-1.8,1.8s0.8,1.8,1.8,1.8s1.8-0.8,1.8-1.8S1847.8,1157.8,1846.8,1157.8z M1834.2,1157.8
		c-1,0-1.8,0.8-1.8,1.8s0.8,1.8,1.8,1.8s1.8-0.8,1.8-1.8S1835.2,1157.8,1834.2,1157.8z"/>
	<g>
		<path class="st11" d="M1529.4,822.6v-1.3h0.8c0.9,0,1.3-0.6,1.3-1.8v-7.6h1.4v7.6c0,2-0.9,3.1-2.6,3.1L1529.4,822.6L1529.4,822.6z
			 M1531.5,810c-0.2-0.2-0.3-0.4-0.3-0.6s0.1-0.5,0.3-0.6c0.2-0.2,0.4-0.3,0.7-0.3s0.5,0.1,0.7,0.3c0.2,0.2,0.3,0.4,0.3,0.6
			s-0.1,0.5-0.3,0.6c-0.2,0.2-0.4,0.3-0.7,0.3S1531.7,810.1,1531.5,810z"/>
		<path class="st11" d="M1535.9,812v1.1c0.2-0.4,0.6-0.7,1-0.9s0.9-0.3,1.5-0.3c1,0,1.8,0.3,2.5,1s1,1.6,1,2.7s-0.3,2-1,2.7
			s-1.5,1-2.6,1c-0.5,0-1-0.1-1.5-0.3s-0.8-0.5-1-0.9v4.5h-1.4V812L1535.9,812L1535.9,812z M1535.9,815.6c0,0.7,0.2,1.3,0.7,1.7
			c0.5,0.4,1,0.6,1.6,0.6c0.7,0,1.2-0.2,1.7-0.6c0.4-0.4,0.7-1,0.7-1.7s-0.2-1.3-0.7-1.7s-1-0.7-1.7-0.7s-1.2,0.2-1.7,0.7
			C1536.1,814.3,1535.9,814.8,1535.9,815.6L1535.9,815.6z"/>
		<path class="st11" d="M1544.1,820.1c0.2,0.4,0.5,0.7,0.9,0.9s0.8,0.3,1.2,0.3c1.7,0,2.5-1.1,2.5-3.2c0,0,0,0,0-0.1
			c0,0,0-0.1,0-0.1c-0.2,0.4-0.5,0.7-1,1c-0.5,0.2-1,0.3-1.5,0.3c-1,0-1.9-0.3-2.6-1c-0.7-0.7-1.1-1.6-1.1-2.7s0.3-2,1.1-2.7
			c0.7-0.7,1.6-1,2.6-1c0.5,0,1,0.1,1.5,0.3c0.5,0.2,0.8,0.5,1,0.9v-1.1h1.4v6.1c0,3.1-1.3,4.7-3.9,4.7c-0.7,0-1.3-0.2-1.9-0.5
			s-1-0.8-1.4-1.4c0.1,0,0.3-0.1,0.6-0.3C1543.9,820.2,1544.1,820.1,1544.1,820.1L1544.1,820.1z M1548.7,815.5
			c0-0.7-0.2-1.3-0.7-1.7s-1-0.6-1.7-0.6s-1.2,0.2-1.7,0.7c-0.4,0.5-0.7,1-0.7,1.7s0.2,1.3,0.7,1.7c0.4,0.4,1,0.6,1.7,0.6
			c0.6,0,1.2-0.2,1.7-0.6S1548.7,816.2,1548.7,815.5L1548.7,815.5z"/>
	</g>
	<path class="st4" d="M1658.7,325.6h10.2c0.8,0,1.5-0.6,1.5-1.5v-5.9c0-0.8-0.7-1.5-1.5-1.5h-5.1l-1.5-1.5h-3.7
		c-0.8,0-1.5,0.6-1.5,1.5v3.3h-8v-4c0-0.4-0.3-0.7-0.7-0.7h-0.7c-0.4,0-0.7,0.3-0.7,0.7v17.9c0,0.8,0.7,1.5,1.5,1.5h8.8v1.8
		c0,0.8,0.7,1.5,1.5,1.5h10.2c0.8,0,1.5-0.6,1.5-1.5v-5.9c0-0.8-0.7-1.5-1.5-1.5h-5.1l-1.5-1.5h-3.7c-0.8,0-1.5,0.6-1.5,1.5v3.3h-8
		v-11h8v1.8C1657.3,325,1657.9,325.6,1658.7,325.6L1658.7,325.6z M1659.4,317.6h2l1.5,1.5h5.3v4.4h-8.8V317.6z M1659.4,330.8h2
		l1.5,1.5h5.3v4.4h-8.8V330.8z"/>
	<g>
		<path d="M1539.3,792l4.2-8.8h2.1l1.6,13.1h-2.4l-1-8.7l-3.4,7.2h-1.9l-3.4-7.2l-1,8.7h-2.4l1.6-13.1h2.1L1539.3,792z"/>
		<path d="M1556.5,787.4l-5.5,13.2h-2.4l2-5l-3.5-8.2h2.5l2.2,5.5l2.2-5.5H1556.5L1556.5,787.4z"/>
		<path d="M1562.6,791.5v4.7h-2.3v-13.7h2.3v6.2c0.2-0.5,0.6-0.9,1.1-1.2s1.1-0.4,1.6-0.4c1.1,0,2,0.4,2.6,1.1
			c0.6,0.7,0.9,1.7,0.9,3v4.9h-2.3v-4.8c0-0.6-0.2-1.1-0.6-1.4c-0.4-0.3-0.8-0.5-1.3-0.5c-0.6,0-1.1,0.2-1.5,0.5
			C1562.8,790.3,1562.6,790.8,1562.6,791.5L1562.6,791.5z"/>
		<path d="M1577.8,795.2c-0.9,0.9-2,1.3-3.3,1.3s-2.4-0.4-3.3-1.3c-0.9-0.9-1.3-2-1.3-3.3s0.4-2.5,1.3-3.3c0.9-0.8,2-1.3,3.3-1.3
			s2.4,0.4,3.3,1.3c0.9,0.8,1.3,2,1.3,3.3S1578.7,794.3,1577.8,795.2z M1572.9,793.5c0.4,0.4,1,0.7,1.7,0.7s1.2-0.2,1.7-0.7
			c0.4-0.4,0.7-1,0.7-1.7s-0.2-1.2-0.7-1.7s-1-0.7-1.7-0.7s-1.2,0.2-1.7,0.7s-0.7,1-0.7,1.7S1572.5,793.1,1572.9,793.5z"/>
		<path d="M1586.1,792.1v-4.7h2.3v8.9h-2.3V795c-0.2,0.5-0.6,0.8-1.1,1.1c-0.5,0.2-0.9,0.4-1.4,0.4c-1.1,0-1.9-0.3-2.6-1
			s-0.9-1.6-0.9-2.8v-5.2h2.3v4.8c0,0.7,0.2,1.2,0.5,1.5s0.7,0.5,1.2,0.5c0.5,0,1-0.2,1.4-0.5S1586.1,792.9,1586.1,792.1
			L1586.1,792.1z"/>
		<path d="M1592.3,792.6c-0.5-0.2-1-0.3-1.3-0.5s-0.6-0.4-0.8-0.7s-0.3-0.5-0.3-0.7c-0.1-0.2-0.1-0.5-0.1-0.8c0-0.7,0.3-1.3,1-1.8
			c0.7-0.5,1.4-0.8,2.3-0.8c0.9,0,1.7,0.2,2.4,0.7s1,1.2,1.1,2.1h-2.2c0-0.3-0.1-0.5-0.4-0.7s-0.5-0.2-0.8-0.2
			c-0.8,0-1.1,0.3-1.1,0.9c0,0.3,0.3,0.6,0.9,0.7l1.5,0.4c0.5,0.1,0.9,0.3,1.2,0.5c0.3,0.2,0.6,0.5,0.7,0.8c0.2,0.3,0.2,0.5,0.3,0.7
			c0.1,0.2,0.1,0.4,0.1,0.7c0,0.9-0.4,1.5-1.1,2s-1.6,0.7-2.6,0.7c-0.9,0-1.8-0.3-2.5-0.8s-1.1-1.3-1.1-2.2h2.2
			c0,0.3,0.2,0.6,0.5,0.8c0.3,0.2,0.7,0.3,1.1,0.3c0.3,0,0.6-0.1,0.8-0.3c0.2-0.2,0.3-0.4,0.3-0.6c0-0.2-0.1-0.4-0.2-0.5
			c-0.2-0.1-0.4-0.2-0.8-0.3L1592.3,792.6L1592.3,792.6z"/>
		<path d="M1606.3,791.8c0,0.2,0,0.5,0,0.8h-6.8c0.1,0.6,0.3,1,0.8,1.4c0.4,0.3,1,0.5,1.7,0.5c0.5,0,0.9-0.1,1.3-0.3
			c0.4-0.2,0.7-0.5,0.9-0.8c0.3,0.2,0.9,0.5,1.8,1c-0.4,0.7-0.9,1.3-1.7,1.6c-0.8,0.3-1.6,0.5-2.4,0.5c-1.3,0-2.4-0.4-3.3-1.3
			s-1.3-2-1.3-3.3s0.4-2.5,1.3-3.3s2-1.3,3.3-1.3s2.4,0.4,3.2,1.3C1605.9,789.4,1606.4,790.5,1606.3,791.8L1606.3,791.8z
			 M1599.5,791h4.6c-0.1-0.6-0.3-1.1-0.7-1.4s-0.9-0.5-1.5-0.5c-0.6,0-1.1,0.2-1.6,0.5C1599.9,790,1599.6,790.4,1599.5,791
			L1599.5,791z"/>
		<path d="M1617.7,796.3v-1.2c-0.2,0.4-0.6,0.8-1.1,1s-1.1,0.4-1.7,0.4c-1.2,0-2.2-0.4-3.1-1.3c-0.8-0.8-1.3-2-1.3-3.3
			s0.4-2.5,1.3-3.3c0.8-0.9,1.9-1.3,3.1-1.3c0.6,0,1.2,0.1,1.7,0.4c0.5,0.2,0.9,0.6,1.1,1v-6h2.3v13.7L1617.7,796.3L1617.7,796.3z
			 M1617,793.6c0.5-0.5,0.7-1,0.7-1.8s-0.2-1.3-0.7-1.7s-1-0.7-1.7-0.7s-1.2,0.2-1.7,0.7c-0.4,0.4-0.7,1-0.7,1.7s0.2,1.3,0.7,1.8
			c0.4,0.5,1,0.7,1.7,0.7S1616.5,794,1617,793.6z"/>
		<path d="M1630.2,791.8c0,0.2,0,0.5,0,0.8h-6.8c0.1,0.6,0.3,1,0.8,1.4c0.4,0.3,1,0.5,1.7,0.5c0.5,0,0.9-0.1,1.3-0.3
			c0.4-0.2,0.7-0.5,0.9-0.8c0.3,0.2,0.9,0.5,1.8,1c-0.4,0.7-0.9,1.3-1.7,1.6c-0.8,0.3-1.6,0.5-2.4,0.5c-1.3,0-2.4-0.4-3.3-1.3
			s-1.3-2-1.3-3.3s0.4-2.5,1.3-3.3s2-1.3,3.3-1.3s2.4,0.4,3.2,1.3C1629.8,789.4,1630.2,790.5,1630.2,791.8L1630.2,791.8z
			 M1623.4,791h4.6c-0.1-0.6-0.3-1.1-0.7-1.4s-0.9-0.5-1.5-0.5c-0.6,0-1.1,0.2-1.6,0.5C1623.8,790,1623.5,790.4,1623.4,791
			L1623.4,791z"/>
		<path d="M1633.4,792.6c-0.5-0.2-1-0.3-1.3-0.5s-0.6-0.4-0.8-0.7s-0.3-0.5-0.3-0.7c-0.1-0.2-0.1-0.5-0.1-0.8c0-0.7,0.3-1.3,1-1.8
			c0.7-0.5,1.4-0.8,2.3-0.8c0.9,0,1.7,0.2,2.4,0.7s1,1.2,1.1,2.1h-2.2c0-0.3-0.1-0.5-0.4-0.7s-0.5-0.2-0.8-0.2
			c-0.8,0-1.1,0.3-1.1,0.9c0,0.3,0.3,0.6,0.9,0.7l1.5,0.4c0.5,0.1,0.9,0.3,1.2,0.5c0.3,0.2,0.6,0.5,0.7,0.8c0.2,0.3,0.2,0.5,0.3,0.7
			c0.1,0.2,0.1,0.4,0.1,0.7c0,0.9-0.4,1.5-1.1,2s-1.6,0.7-2.6,0.7c-0.9,0-1.8-0.3-2.5-0.8s-1.1-1.3-1.1-2.2h2.2
			c0,0.3,0.2,0.6,0.5,0.8c0.3,0.2,0.7,0.3,1.1,0.3c0.3,0,0.6-0.1,0.8-0.3c0.2-0.2,0.3-0.4,0.3-0.6c0-0.2-0.1-0.4-0.2-0.5
			c-0.2-0.1-0.4-0.2-0.8-0.3L1633.4,792.6L1633.4,792.6z"/>
		<path d="M1639,785c-0.3-0.3-0.4-0.6-0.4-1s0.2-0.7,0.4-1c0.3-0.3,0.7-0.4,1.1-0.4s0.8,0.1,1,0.4c0.3,0.3,0.4,0.6,0.4,1
			s-0.1,0.7-0.4,1c-0.3,0.3-0.6,0.4-1,0.4S1639.3,785.2,1639,785z M1641.2,787.4v8.9h-2.3v-8.9H1641.2z"/>
		<path d="M1644.6,797.1c0.2,0.4,0.5,0.8,1,1s0.9,0.4,1.4,0.4c1,0,1.8-0.3,2.2-1c0.4-0.7,0.6-1.5,0.5-2.5c-0.2,0.4-0.6,0.8-1.1,1
			c-0.5,0.2-1.1,0.4-1.7,0.4c-1.2,0-2.2-0.4-3.1-1.3c-0.9-0.8-1.3-2-1.3-3.3s0.4-2.5,1.3-3.4s1.9-1.3,3.1-1.3c0.6,0,1.2,0.1,1.7,0.4
			c0.5,0.2,0.9,0.6,1.2,1v-1.2h2.3v7.6c0,1.9-0.4,3.4-1.3,4.3c-0.9,0.9-2.1,1.4-3.7,1.4c-0.9,0-1.8-0.2-2.5-0.7s-1.3-1.1-1.7-1.9
			c0.2-0.1,0.5-0.2,0.9-0.5S1644.4,797.2,1644.6,797.1L1644.6,797.1z M1649.6,791.8c0-0.7-0.2-1.3-0.7-1.8c-0.5-0.4-1-0.7-1.7-0.7
			s-1.2,0.2-1.7,0.7s-0.7,1-0.7,1.7s0.2,1.3,0.7,1.8s1,0.7,1.7,0.7c0.6,0,1.2-0.2,1.7-0.7C1649.3,793.1,1649.6,792.5,1649.6,791.8
			L1649.6,791.8z"/>
		<path d="M1655.9,791.5v4.7h-2.3v-8.9h2.3v1.3c0.2-0.5,0.6-0.8,1.1-1.1s1-0.4,1.5-0.4c1.1,0,1.9,0.3,2.4,1c0.6,0.7,0.9,1.6,0.9,2.8
			v5.2h-2.3v-4.8c0-0.6-0.2-1.1-0.5-1.5c-0.3-0.3-0.7-0.5-1.2-0.5c-0.6,0-1,0.2-1.4,0.5S1655.8,790.8,1655.9,791.5L1655.9,791.5z"/>
	</g>
</g>
<g>
	<path class="st0" d="M1711,441.3h479.6c26.5,0,48,21.5,48,48v467c0,26.5-21.5,48-48,48H1711c-26.5,0-48-21.5-48-48v-467
		C1663,462.8,1684.5,441.3,1711,441.3z"/>
	<path class="st12" d="M1707,641.8h485.9c4.4,0,8,3.6,8,8v40.3c0,4.4-3.6,8-8,8H1707c-4.4,0-8-3.6-8-8v-40.3
		C1699,645.4,1702.6,641.8,1707,641.8z"/>
	<path class="st4" d="M1784.2,566.6h176.9c2.2,0,4,1.8,4,4v8c0,2.2-1.8,4-4,4h-176.9c-2.2,0-4-1.8-4-4v-8
		C1780.2,568.4,1782,566.6,1784.2,566.6z"/>
	<path class="st3" d="M1784.2,537.7h131.1c2.2,0,4,1.8,4,4v16c0,2.2-1.8,4-4,4h-131.1c-2.2,0-4-1.8-4-4v-16
		C1780.2,539.4,1782,537.7,1784.2,537.7z"/>
	<path class="st13" d="M1754.2,544.2h-23l-7.7-7.7h-19.2c-3.2,0-5.8,2.6-5.8,5.8v34.5c0,3.2,2.6,5.8,5.8,5.8h49.9
		c3.2,0,5.8-2.6,5.8-5.8V550C1760,546.8,1757.4,544.2,1754.2,544.2L1754.2,544.2z"/>
	<path class="st14" d="M1704.1,550.8h50.4c3,0,5.5,2.4,5.5,5.5v20.8c0,3-2.4,5.5-5.5,5.5h-50.4c-3,0-5.5-2.4-5.5-5.5v-20.8
		C1698.6,553.3,1701.1,550.8,1704.1,550.8z"/>
	<path class="st13" d="M1720.4,566.7c1.6,0,2.9-1.3,2.9-3s-1.3-3-2.9-3s-2.9,1.3-2.9,3S1718.8,566.7,1720.4,566.7z M1720.4,562.2
		c0.8,0,1.5,0.7,1.5,1.5s-0.7,1.5-1.5,1.5s-1.5-0.7-1.5-1.5S1719.6,562.2,1720.4,562.2z M1714,567.3c-0.4,0-0.7,0-1.1,0.2
		c-0.4,0.1-0.9,0.2-1.4,0.2s-0.9-0.1-1.4-0.2c-0.4-0.1-0.7-0.2-1.1-0.2c-1.1,0-2.2,0.5-2.8,1.4c-0.4,0.6-0.6,1.2-0.6,2v1.4
		c0,0.8,0.7,1.5,1.5,1.5h8.9c0.8,0,1.5-0.7,1.5-1.5v-1.4c0-0.7-0.2-1.4-0.6-2C1716.2,567.8,1715.1,567.3,1714,567.3L1714,567.3
		L1714,567.3z M1715.9,572.1h-8.9v-1.4c0-0.9,0.6-1.7,1.4-1.9c0.3-0.1,0.7-0.1,1,0c0.7,0.2,1.4,0.4,2.1,0.4s1.4-0.1,2.1-0.4
		c0.3-0.1,0.7-0.1,1,0c0.8,0.3,1.4,1,1.4,1.9L1715.9,572.1L1715.9,572.1L1715.9,572.1z M1711.5,566.7c1.9,0,3.4-1.5,3.4-3.5
		s-1.5-3.5-3.4-3.5s-3.4,1.5-3.4,3.5S1709.6,566.7,1711.5,566.7z M1711.5,561.3c1.1,0,2,0.9,2,2s-0.9,2-2,2s-2-0.9-2-2
		S1710.4,561.3,1711.5,561.3z M1724.8,568.6c-0.5-0.8-1.4-1.2-2.4-1.2c-0.9,0-1.1,0.3-2.1,0.3s-1.2-0.3-2.1-0.3
		c-0.4,0-0.8,0.1-1.2,0.2c0.2,0.2,0.3,0.4,0.5,0.6c0.1,0.2,0.3,0.4,0.4,0.7c0.1,0,0.2,0,0.3,0c0.5,0,0.9,0.3,2.1,0.3
		s1.5-0.3,2.1-0.3c0.5,0,0.9,0.2,1.1,0.5c0.2,0.2,0.2,0.5,0.2,0.8v0.9h-5.4v1c0,0.2,0,0.3-0.1,0.5h5.7c0.7,0,1.2-0.5,1.2-1.2v-1.2
		C1725.3,569.6,1725.1,569,1724.8,568.6L1724.8,568.6z"/>
	<path class="st5" d="M1706.6,918.4h226.2c4.4,0,8,3.6,8,8v33.9c0,4.4-3.6,8-8,8h-226.2c-4.4,0-8-3.6-8-8v-33.9
		C1698.6,922,1702.2,918.4,1706.6,918.4z"/>
	<path class="st3" d="M1706.7,489.6c2.9,0,5.2-2.4,5.2-5.2s-2.3-5.2-5.2-5.2s-5.2,2.4-5.2,5.2S1703.8,489.6,1706.7,489.6z
		 M1706.7,480.8c1.9,0,3.5,1.6,3.5,3.5s-1.6,3.5-3.5,3.5s-3.5-1.6-3.5-3.5S1704.8,480.8,1706.7,480.8z M1710,490.2
		c-1.1,0-1.6,0.6-3.3,0.6s-2.2-0.6-3.3-0.6c-2.7,0-4.9,2.2-4.9,4.9v0.9c0,1,0.8,1.8,1.8,1.8h12.8c1,0,1.8-0.8,1.8-1.8v-0.9
		C1714.9,492.4,1712.7,490.2,1710,490.2L1710,490.2z M1713.2,496h-12.8v-0.9c0-1.7,1.4-3.1,3.2-3.1c0.5,0,1.4,0.6,3.3,0.6
		s2.7-0.6,3.3-0.6c1.7,0,3.2,1.4,3.2,3.1L1713.2,496L1713.2,496z M1721.3,487h-2.6v-2.6c0-0.3-0.3-0.6-0.6-0.6h-0.6
		c-0.3,0-0.6,0.3-0.6,0.6v2.6h-2.6c-0.3,0-0.6,0.3-0.6,0.6v0.6c0,0.3,0.3,0.6,0.6,0.6h2.6v2.6c0,0.3,0.3,0.6,0.6,0.6h0.6
		c0.3,0,0.6-0.3,0.6-0.6v-2.6h2.6c0.3,0,0.6-0.3,0.6-0.6v-0.6C1721.9,487.2,1721.7,487,1721.3,487z"/>
	<path class="st15" d="M2143,649.5h41.8c4.4,0,8,3.6,8,8v24.9c0,4.4-3.6,8-8,8H2143c-4.4,0-8-3.6-8-8v-24.9
		C2135,653.1,2138.6,649.5,2143,649.5z"/>
	<g>
		<path class="st3" d="M2156.5,672.1h-4.2l-1.1,2.9h-2.8l4.5-12.2h2.8l4.5,12.2h-2.7L2156.5,672.1z M2153.2,669.9h2.5l-1.3-4.2
			L2153.2,669.9z"/>
		<path class="st3" d="M2168.8,675h-2.4v-1c-0.2,0.4-0.5,0.7-1,0.9s-0.9,0.3-1.5,0.3c-1.1,0-2-0.4-2.8-1.2c-0.8-0.8-1.2-1.8-1.2-3.1
			s0.4-2.3,1.2-3.1s1.7-1.2,2.8-1.2c0.5,0,1,0.1,1.5,0.3s0.8,0.5,1,0.9v-5.5h2.4V675L2168.8,675z M2166.3,670.8
			c0-0.6-0.2-1.1-0.6-1.4s-0.8-0.5-1.4-0.5s-1,0.2-1.4,0.5s-0.6,0.8-0.6,1.4s0.2,1.1,0.6,1.5s0.8,0.5,1.4,0.5s1-0.2,1.4-0.6
			S2166.3,671.4,2166.3,670.8L2166.3,670.8z"/>
		<path class="st3" d="M2178.6,675h-2.4v-1c-0.2,0.4-0.5,0.7-1,0.9s-0.9,0.3-1.5,0.3c-1.1,0-2-0.4-2.8-1.2c-0.8-0.8-1.2-1.8-1.2-3.1
			s0.4-2.3,1.2-3.1s1.7-1.2,2.8-1.2c0.5,0,1,0.1,1.5,0.3s0.8,0.5,1,0.9v-5.5h2.4V675L2178.6,675z M2176.1,670.8
			c0-0.6-0.2-1.1-0.6-1.4s-0.8-0.5-1.4-0.5s-1,0.2-1.4,0.5s-0.6,0.8-0.6,1.4s0.2,1.1,0.6,1.5s0.8,0.5,1.4,0.5s1-0.2,1.4-0.6
			S2176.1,671.4,2176.1,670.8L2176.1,670.8z"/>
	</g>
	<path class="st2" d="M1702.3,733.6H1809c2.2,0,4,1.8,4,4v8c0,2.2-1.8,4-4,4h-106.7c-2.2,0-4-1.8-4-4v-8
		C1698.3,735.4,1700.1,733.6,1702.3,733.6z"/>
	<g>
		<path class="st4" d="M1707,625.3h-5.2l-1.2,3.1h-1.8l4.7-12.4h1.8l4.7,12.4h-1.8L1707,625.3L1707,625.3z M1702.3,623.8h4.1
			l-2.1-5.5L1702.3,623.8L1702.3,623.8z"/>
		<path class="st4" d="M1717.1,628.5v-1.3c-0.3,0.5-0.7,0.8-1.2,1.1c-0.5,0.3-1.1,0.4-1.7,0.4c-1.2,0-2.2-0.4-3-1.2
			c-0.8-0.8-1.2-1.9-1.2-3.2s0.4-2.4,1.2-3.2c0.8-0.8,1.8-1.2,3-1.2c0.6,0,1.2,0.1,1.8,0.4s0.9,0.6,1.2,1.1v-5.8h1.6v12.9
			L1717.1,628.5L1717.1,628.5z M1716.3,626.3c0.5-0.5,0.8-1.2,0.8-2s-0.3-1.5-0.8-2c-0.6-0.5-1.2-0.7-1.9-0.7
			c-0.8,0-1.4,0.2-1.9,0.8s-0.8,1.2-0.8,2s0.3,1.5,0.8,2s1.2,0.8,1.9,0.8S1715.7,626.8,1716.3,626.3L1716.3,626.3z"/>
		<path class="st4" d="M1727.2,628.5v-1.3c-0.3,0.5-0.7,0.8-1.2,1.1c-0.5,0.3-1.1,0.4-1.7,0.4c-1.2,0-2.2-0.4-3-1.2
			c-0.8-0.8-1.2-1.9-1.2-3.2s0.4-2.4,1.2-3.2c0.8-0.8,1.8-1.2,3-1.2c0.6,0,1.2,0.1,1.8,0.4s0.9,0.6,1.2,1.1v-5.8h1.6v12.9
			L1727.2,628.5L1727.2,628.5z M1726.4,626.3c0.5-0.5,0.8-1.2,0.8-2s-0.3-1.5-0.8-2c-0.6-0.5-1.2-0.7-1.9-0.7
			c-0.8,0-1.4,0.2-1.9,0.8s-0.8,1.2-0.8,2s0.3,1.5,0.8,2s1.2,0.8,1.9,0.8S1725.8,626.8,1726.4,626.3L1726.4,626.3z"/>
		<path class="st4" d="M1741.4,625.2l4.4-9.1h1.5l1.5,12.4h-1.7l-1.1-9.3l-3.9,7.9h-1.5l-3.9-7.9l-1.1,9.3h-1.7l1.5-12.4h1.5
			L1741.4,625.2L1741.4,625.2z"/>
		<path class="st4" d="M1758.1,624.2c0,0.3,0,0.5,0,0.7h-6.8c0.1,0.7,0.4,1.2,0.9,1.7s1.1,0.6,1.8,0.6c0.5,0,1-0.1,1.4-0.3
			c0.4-0.2,0.8-0.5,1-1c0.2,0.1,0.4,0.2,0.7,0.3c0.3,0.1,0.6,0.2,0.7,0.3c-0.3,0.7-0.9,1.3-1.6,1.7c-0.7,0.4-1.5,0.6-2.3,0.6
			c-1.2,0-2.2-0.4-3.1-1.2c-0.8-0.8-1.2-1.9-1.2-3.2s0.4-2.3,1.2-3.2s1.8-1.2,3.1-1.2s2.2,0.4,3,1.2
			C1757.7,621.9,1758.1,622.9,1758.1,624.2L1758.1,624.2z M1751.2,623.6h5.2c-0.1-0.7-0.4-1.2-0.8-1.6c-0.5-0.4-1-0.6-1.7-0.6
			s-1.3,0.2-1.8,0.6S1751.4,622.9,1751.2,623.6L1751.2,623.6z"/>
		<path class="st4" d="M1768.9,621.5c-0.7,0-1.2,0.2-1.6,0.7c-0.4,0.5-0.6,1-0.6,1.8v4.5h-1.6v-4.8c0-0.7-0.2-1.2-0.5-1.6
			c-0.3-0.4-0.8-0.6-1.3-0.6c-0.7,0-1.2,0.2-1.7,0.6c-0.5,0.4-0.7,1-0.7,1.8v4.5h-1.6v-8.4h1.6v1.3c0.2-0.4,0.5-0.8,1-1
			s0.9-0.4,1.3-0.4c0.3,0,0.6,0,0.9,0c1.1,0.2,1.8,0.7,2.2,1.6c0.6-1.2,1.6-1.7,2.9-1.7c1,0,1.8,0.3,2.4,1s0.8,1.6,0.8,2.8v4.8h-1.6
			v-4.7c0-0.7-0.2-1.2-0.5-1.6C1770,621.7,1769.5,621.5,1768.9,621.5L1768.9,621.5z"/>
		<path class="st4" d="M1775.8,627.2v1.3h-1.6v-12.9h1.6v5.8c0.3-0.5,0.7-0.8,1.2-1.1c0.5-0.2,1.1-0.4,1.7-0.4c1.2,0,2.2,0.4,3,1.2
			s1.2,1.8,1.2,3.2s-0.4,2.3-1.2,3.2s-1.8,1.2-3,1.2c-0.6,0-1.2-0.1-1.7-0.4C1776.5,628,1776.1,627.6,1775.8,627.2L1775.8,627.2z
			 M1775.8,624.2c0,0.9,0.3,1.5,0.8,2c0.5,0.5,1.2,0.8,2,0.8s1.4-0.3,1.9-0.8s0.8-1.2,0.8-2s-0.3-1.5-0.8-2s-1.2-0.8-1.9-0.8
			s-1.4,0.2-1.9,0.7C1776.1,622.7,1775.8,623.4,1775.8,624.2L1775.8,624.2z"/>
		<path class="st4" d="M1792.2,624.2c0,0.3,0,0.5,0,0.7h-6.8c0.1,0.7,0.4,1.2,0.9,1.7s1.1,0.6,1.8,0.6c0.5,0,1-0.1,1.4-0.3
			c0.4-0.2,0.8-0.5,1-1c0.2,0.1,0.4,0.2,0.7,0.3c0.3,0.1,0.6,0.2,0.7,0.3c-0.3,0.7-0.9,1.3-1.6,1.7c-0.7,0.4-1.5,0.6-2.3,0.6
			c-1.2,0-2.2-0.4-3.1-1.2c-0.8-0.8-1.2-1.9-1.2-3.2s0.4-2.3,1.2-3.2s1.8-1.2,3.1-1.2s2.2,0.4,3,1.2
			C1791.8,621.9,1792.2,622.9,1792.2,624.2L1792.2,624.2z M1785.3,623.6h5.2c-0.1-0.7-0.4-1.2-0.8-1.6c-0.5-0.4-1-0.6-1.7-0.6
			s-1.3,0.2-1.8,0.6S1785.5,622.9,1785.3,623.6L1785.3,623.6z"/>
		<path class="st4" d="M1795,625.4v3h-1.6v-8.4h1.6v1.9c0.4-1.4,1.2-2.1,2.3-2.1c0.7,0,1.1,0.1,1.4,0.3l-0.2,1.5
			c-0.4-0.2-0.8-0.3-1.2-0.3c-0.8,0-1.3,0.4-1.7,1.1C1795.2,623.3,1795,624.2,1795,625.4L1795,625.4z"/>
		<path class="st4" d="M1799.8,621.8c-0.2-0.2-0.3-0.5-0.3-0.8s0.1-0.6,0.3-0.8c0.2-0.2,0.5-0.3,0.8-0.3s0.6,0.1,0.8,0.3
			s0.3,0.5,0.3,0.8s-0.1,0.6-0.3,0.8s-0.5,0.3-0.8,0.3S1800,622,1799.8,621.8z M1799.8,628.3c-0.2-0.2-0.3-0.5-0.3-0.8
			s0.1-0.6,0.3-0.8s0.5-0.3,0.8-0.3s0.6,0.1,0.8,0.3c0.2,0.2,0.3,0.5,0.3,0.8s-0.1,0.6-0.3,0.8c-0.2,0.2-0.5,0.3-0.8,0.3
			S1800,628.5,1799.8,628.3z"/>
	</g>
	<path class="st1" d="M1706,797.4l3.5-3.5c0.2-0.2,0.2-0.5,0-0.7l-0.8-0.8c-0.2-0.2-0.5-0.2-0.7,0l-3.5,3.5l-3.5-3.5
		c-0.2-0.2-0.5-0.2-0.7,0l-0.8,0.8c-0.2,0.2-0.2,0.5,0,0.7l3.5,3.5l-3.5,3.5c-0.2,0.2-0.2,0.5,0,0.7l0.8,0.8c0.2,0.2,0.5,0.2,0.7,0
		l3.5-3.5l3.5,3.5c0.2,0.2,0.5,0.2,0.7,0l0.8-0.8c0.2-0.2,0.2-0.5,0-0.7L1706,797.4z"/>
	<path class="st1" d="M1705.9,865.7l3.5-3.5c0.2-0.2,0.2-0.5,0-0.7l-0.8-0.8c-0.2-0.2-0.5-0.2-0.7,0l-3.5,3.5l-3.5-3.5
		c-0.2-0.2-0.5-0.2-0.7,0l-0.8,0.8c-0.2,0.2-0.2,0.5,0,0.7l3.5,3.5l-3.5,3.5c-0.2,0.2-0.2,0.5,0,0.7l0.8,0.8c0.2,0.2,0.5,0.2,0.7,0
		l3.5-3.5l3.5,3.5c0.2,0.2,0.5,0.2,0.7,0l0.8-0.8c0.2-0.2,0.2-0.5,0-0.7L1705.9,865.7z"/>
	<path class="st2" d="M2201,858.1l-1.6,1.5c-1.3-1.3-3.2-2.2-5.2-2.2c-3.9,0-7.1,3.1-7.3,7c0,0.2,0.1,0.4,0.4,0.4h0.8
		c0.2,0,0.3-0.2,0.4-0.3c0.2-3.1,2.7-5.5,5.8-5.5c1.6,0,3.1,0.7,4.1,1.7l-1.6,1.6c-0.2,0.2-0.1,0.6,0.2,0.6h4.2
		c0.2,0,0.4-0.2,0.4-0.4v-4.2C2201.6,858,2201.2,857.8,2201,858.1L2201,858.1z M2201.2,864.8h-0.8c-0.2,0-0.3,0.2-0.4,0.3
		c-0.2,3.1-2.7,5.5-5.8,5.5c-1.6,0-3.1-0.7-4.1-1.7l1.6-1.6c0.2-0.2,0.1-0.6-0.2-0.6h-4.2c-0.2,0-0.4,0.2-0.4,0.4v4.2
		c0,0.3,0.4,0.5,0.6,0.2l1.6-1.5c1.3,1.3,3.2,2.2,5.2,2.2c3.9,0,7.1-3.1,7.3-7C2201.6,865,2201.4,864.8,2201.2,864.8L2201.2,864.8
		L2201.2,864.8z"/>
	<path class="st2" d="M2201,789.7l-1.6,1.5c-1.3-1.3-3.2-2.2-5.2-2.2c-3.9,0-7.1,3.1-7.3,7c0,0.2,0.1,0.4,0.4,0.4h0.8
		c0.2,0,0.3-0.2,0.4-0.3c0.2-3.1,2.7-5.5,5.8-5.5c1.6,0,3.1,0.7,4.1,1.7l-1.6,1.6c-0.2,0.2-0.1,0.6,0.2,0.6h4.2
		c0.2,0,0.4-0.2,0.4-0.4V790C2201.6,789.7,2201.2,789.5,2201,789.7L2201,789.7z M2201.2,796.5h-0.8c-0.2,0-0.3,0.2-0.4,0.3
		c-0.2,3.1-2.7,5.5-5.8,5.5c-1.6,0-3.1-0.7-4.1-1.7l1.6-1.6c0.2-0.2,0.1-0.6-0.2-0.6h-4.2c-0.2,0-0.4,0.2-0.4,0.4v4.2
		c0,0.3,0.4,0.5,0.6,0.2l1.6-1.5c1.3,1.3,3.2,2.2,5.2,2.2c3.9,0,7.1-3.1,7.3-7C2201.6,796.7,2201.4,796.5,2201.2,796.5L2201.2,796.5
		L2201.2,796.5z"/>
	<path class="st2" d="M2117.7,788.5h53.4c2.2,0,4,1.8,4,4v8c0,2.2-1.8,4-4,4h-53.4c-2.2,0-4-1.8-4-4v-8
		C2113.7,790.3,2115.5,788.5,2117.7,788.5z"/>
	<path class="st2" d="M2117.7,856.8h53.4c2.2,0,4,1.8,4,4v8c0,2.2-1.8,4-4,4h-53.4c-2.2,0-4-1.8-4-4v-8
		C2113.7,858.6,2115.5,856.8,2117.7,856.8z"/>
	<path class="st2" d="M1793.5,804h176.9c2.2,0,4,1.8,4,4v8c0,2.2-1.8,4-4,4h-176.9c-2.2,0-4-1.8-4-4v-8
		C1789.5,805.7,1791.3,804,1793.5,804z"/>
	<path class="st1" d="M1793.5,775h131.1c2.2,0,4,1.8,4,4v16c0,2.2-1.8,4-4,4h-131.1c-2.2,0-4-1.8-4-4v-16
		C1789.5,776.8,1791.3,775,1793.5,775z"/>
	<path class="st2" d="M1793.5,872.2h176.9c2.2,0,4,1.8,4,4v8c0,2.2-1.8,4-4,4h-176.9c-2.2,0-4-1.8-4-4v-8
		C1789.5,874,1791.3,872.2,1793.5,872.2z"/>
	<path class="st1" d="M1793.5,843.3h131.1c2.2,0,4,1.8,4,4v16c0,2.2-1.8,4-4,4h-131.1c-2.2,0-4-1.8-4-4v-16
		C1789.5,845.1,1791.3,843.3,1793.5,843.3z"/>
	<path class="st14" d="M1968.2,918.4h226.2c4.4,0,8,3.6,8,8v33.9c0,4.4-3.6,8-8,8h-226.2c-4.4,0-8-3.6-8-8v-33.9
		C1960.2,922,1963.8,918.4,1968.2,918.4z"/>
	<path class="st16" d="M2012.6,935.3h137.4c2.2,0,4,1.8,4,4v8c0,2.2-1.8,4-4,4h-137.4c-2.2,0-4-1.8-4-4v-8
		C2008.6,937.1,2010.4,935.3,2012.6,935.3z"/>
	<path class="st2" d="M1772.9,935.3h80c2.2,0,4,1.8,4,4v8c0,2.2-1.8,4-4,4h-80c-2.2,0-4-1.8-4-4v-8
		C1768.9,937.1,1770.7,935.3,1772.9,935.3z"/>
	<path class="st1" d="M2195.9,488.6l3.5-3.5c0.2-0.2,0.2-0.5,0-0.7l-0.8-0.8c-0.2-0.2-0.5-0.2-0.7,0l-3.5,3.5l-3.5-3.5
		c-0.2-0.2-0.5-0.2-0.7,0l-0.8,0.8c-0.2,0.2-0.2,0.5,0,0.7l3.5,3.5l-3.5,3.5c-0.2,0.2-0.2,0.5,0,0.7l0.8,0.8c0.2,0.2,0.5,0.2,0.7,0
		l3.5-3.5l3.5,3.5c0.2,0.2,0.5,0.2,0.7,0l0.8-0.8c0.2-0.2,0.2-0.5,0-0.7L2195.9,488.6z"/>
	<g>
		<defs>
			<path id="SVGID_1_" d="M1738.2,771.8h26c6.6,0,12,5.4,12,12v26c0,6.6-5.4,12-12,12h-26c-6.6,0-12-5.4-12-12v-26
				C1726.2,777.1,1731.6,771.8,1738.2,771.8z"/>
		</defs>
		<clipPath id="SVGID_2_">
			<use xlink:href="#SVGID_1_"  style="overflow:visible;"/>
		</clipPath>
		<g class="st17">
			<rect x="1726.2" y="771.8" class="st3" width="50" height="50"/>
			<g>
				<g>
					<path class="st18" d="M1774,821.8h-45.7c0,0,0.6-2.9,1.5-5.8c0.9-2.9,2.7-4.1,5-4.7c2.3-0.6,11.6-3.5,11.6-3.5l4.8-0.4h0h0
						l4.3,0.3c0,0,9.7,2.9,12,3.5c2.3,0.6,4.1,1.8,5,4.7S1774,821.8,1774,821.8L1774,821.8z"/>
					<path class="st19" d="M1764.5,819.6h-5.6c-0.1,0-0.2,0.1-0.2,0.2v1.9h0.5v-1.7h5.1v1.7h0.5v-1.9
						C1764.7,819.7,1764.6,819.6,1764.5,819.6L1764.5,819.6z"/>
					<circle class="st20" cx="1750.9" cy="814.1" r="0.5"/>
					<circle class="st20" cx="1750.9" cy="817" r="0.5"/>
					<circle class="st20" cx="1750.9" cy="819.8" r="0.5"/>
					<polygon class="st21" points="1751.2,807.3 1751.2,807.3 1751.2,807.3 					"/>
					<polygon class="st21" points="1751.2,807.3 1751.2,807.3 1751.2,807.3 					"/>
				</g>
				<g>
					<g>
						<path class="st22" d="M1755.4,808.9c0,0-1.2,2.2-4.5,2.2s-4.5-2.3-4.5-2.3l0.2-1.6l0-0.3l0.3-2.5l7.9,0.2l0.1,1l0,0.3
							L1755.4,808.9L1755.4,808.9z"/>
						<path class="st19" d="M1746.6,806.9c0,0-2.8,0.5-4.9,2.3c0,0,0.6,3.6,4.7,7.1l4.5-5.2C1750.9,811.1,1747.9,809.9,1746.6,806.9
							L1746.6,806.9z"/>
						<path class="st19" d="M1755.1,806.9c0,0,2.8,0.5,4.9,2.3c0,0-0.6,3.6-4.7,7.1l-4.5-5.2
							C1750.8,811.1,1753.8,809.9,1755.1,806.9L1755.1,806.9z"/>
						<path class="st23" d="M1755,805.6c-1.8,1.5-4.7,2.1-8.4,1.6l0-0.3l0.3-2.5l7.9,0.2L1755,805.6L1755,805.6z"/>
					</g>
					<g>
						<path class="st24" d="M1744,797.9c-1.8,2.5-5.6,0.8-5.3-2.5c0.2-3,3.6-2.5,3.6-2.5L1744,797.9z"/>
						<path class="st25" d="M1742.3,797.9c-0.1,0-0.2-0.1-0.2-0.2c-0.3-1.4-1.8-2.7-1.8-2.7c-0.1-0.1-0.1-0.2,0-0.3
							c0.1-0.1,0.2-0.1,0.3,0c0.1,0.1,1.6,1.4,2,3C1742.6,797.8,1742.5,797.9,1742.3,797.9C1742.4,797.9,1742.3,797.9,1742.3,797.9
							L1742.3,797.9z"/>
						<path class="st25" d="M1741.7,796.6C1741.7,796.6,1741.7,796.6,1741.7,796.6c-0.7-0.2-1.3-0.1-1.3-0.1c-0.1,0-0.2,0-0.3-0.2
							s0.1-0.2,0.2-0.3c0,0,0.8-0.2,1.5,0.1c0.1,0,0.2,0.2,0.2,0.3C1741.9,796.5,1741.8,796.6,1741.7,796.6L1741.7,796.6z"/>
					</g>
					<g>
						<path class="st24" d="M1757,797.9c1.8,2.5,5.6,0.8,5.3-2.5c-0.2-3-3.6-2.5-3.6-2.5L1757,797.9z"/>
						<path class="st25" d="M1758.7,797.9C1758.7,797.9,1758.6,797.9,1758.7,797.9c-0.2,0-0.3-0.2-0.2-0.3c0.4-1.5,1.9-2.9,2-3
							c0.1-0.1,0.2-0.1,0.3,0c0.1,0.1,0.1,0.2,0,0.3c0,0-1.5,1.3-1.8,2.7C1758.9,797.9,1758.8,797.9,1758.7,797.9L1758.7,797.9z"/>
						<path class="st25" d="M1759.3,796.6c-0.1,0-0.2-0.1-0.2-0.2c0-0.1,0-0.3,0.2-0.3c0.8-0.3,1.5-0.1,1.5-0.1
							c0.1,0,0.2,0.2,0.2,0.3c0,0.1-0.2,0.2-0.3,0.2C1760.6,796.5,1760,796.4,1759.3,796.6C1759.3,796.6,1759.3,796.6,1759.3,796.6
							L1759.3,796.6z"/>
					</g>
					<path class="st22" d="M1741.5,789.3c0,0-0.9,5.3,1.4,10.6c2,4.7,4.7,6.2,7.6,6.3c3.3,0,10.1-1.8,9-17.3
						C1758.7,778.4,1742.4,778.7,1741.5,789.3L1741.5,789.3z"/>
					<g class="st26">
						<ellipse class="st24" cx="1745.3" cy="797.8" rx="2.3" ry="1"/>
					</g>
					<g class="st26">
						<ellipse class="st24" cx="1756.6" cy="797.8" rx="2.3" ry="1"/>
					</g>
					<path class="st23" d="M1759.9,793.1c0,0,0.2,3.9-1,8.7c-1.8,7.8-8.2,6.7-8.2,6.7s-6.2,1-8-6.7c-1.2-4.8-1.6-8.5-1.6-8.5
						l1.4-1.9c0,0,0.7,6.7,3.3,7.9c0,0,1.1-1.7,5-0.1c3.8-1.6,5.1,0.1,5.1,0.1c2.6-1.2,2.8-7.6,2.8-7.6L1759.9,793.1L1759.9,793.1z"
						/>
					<path class="st23" d="M1743.4,786c0,0,0.6,4-1.1,5.5v3.3l-1,0.3c0,0-0.9-4.4-1.2-6.9c-0.7-4.8,3.8-5.4,3.8-5.4L1743.4,786
						L1743.4,786z"/>
					<path class="st23" d="M1757.5,786c0,0-0.6,4,1.1,5.5v3.3l1,0.3c0,0,0.9-4.4,1.2-6.9c0.7-4.8-3.8-5.4-3.8-5.4L1757.5,786
						L1757.5,786z"/>
					<path class="st23" d="M1740.8,785.8c0,0-3-5.3,4.1-7.2c4.9-1.3,11.7,0.1,13.8-3.5c0,0,0.6,2.4-0.6,4c0,0,3.2-1,4.1-2.9
						c0,0,1.1,3-0.6,5.3c0,0,1.3,0.4,2.5-0.5c0,0-0.1,6.5-4.9,6.1c0,0-1-0.8-2.8-1.3s-3.2,2.2-7.8,1
						C1744.6,785.8,1742.9,785.1,1740.8,785.8L1740.8,785.8z"/>
					<path class="st27" d="M1750.9,803.5c-0.7,0-1.2-0.2-1.2-0.2c-0.1,0-0.1-0.2-0.1-0.3c0-0.1,0.2-0.1,0.3-0.1c0,0,1.2,0.5,2.2-0.1
						c0.1-0.1,0.2,0,0.3,0.1s0,0.2-0.1,0.3C1751.8,803.4,1751.3,803.5,1750.9,803.5L1750.9,803.5z"/>
					<path class="st24" d="M1751.6,798.3C1751.6,798.3,1751.6,798.3,1751.6,798.3l-1.5-0.1c-0.1,0-0.2-0.1-0.2-0.2
						c0-0.1,0.1-0.2,0.2-0.2l1.2,0.1l-0.4-3.7c0-0.1,0.1-0.2,0.2-0.2c0.1,0,0.2,0.1,0.2,0.2l0.4,3.9c0,0.1,0,0.1-0.1,0.2
						S1751.6,798.4,1751.6,798.3L1751.6,798.3z"/>
					<path class="st20" d="M1747.8,800.1c1.8,0.3,3.6,0.4,6-0.1c0,0-0.2,2.6-3.1,2.6C1748.3,802.6,1747.8,800.1,1747.8,800.1
						L1747.8,800.1z"/>
					<path class="st23" d="M1747.7,794.3c0,0.7-0.3,1.2-0.7,1.2s-0.7-0.5-0.7-1.2s0.3-1.2,0.7-1.2S1747.7,793.6,1747.7,794.3z"/>
					<path class="st23" d="M1755,794.3c0,0.7-0.3,1.2-0.7,1.2s-0.7-0.5-0.7-1.2s0.3-1.2,0.7-1.2S1755,793.6,1755,794.3z"/>
					<path class="st23" d="M1745.7,791.6c0.5-0.3,1.2-0.6,1.9-0.7c0.4,0,0.6-0.4,0.5-0.8l0-0.1c-0.1-0.2-0.3-0.4-0.6-0.4
						c-0.6,0.1-1.7,0.3-2.4,1c-0.2,0.2-0.2,0.4-0.1,0.6l0,0C1745,791.6,1745.4,791.7,1745.7,791.6L1745.7,791.6z"/>
					<path class="st23" d="M1755.6,791.6c-0.5-0.3-1.2-0.6-1.9-0.7c-0.4,0-0.6-0.4-0.5-0.8l0-0.1c0.1-0.2,0.3-0.4,0.6-0.4
						c0.6,0.1,1.7,0.3,2.4,1c0.2,0.2,0.2,0.4,0.1,0.6l0,0C1756.3,791.6,1755.9,791.7,1755.6,791.6L1755.6,791.6z"/>
				</g>
			</g>
		</g>
	</g>
	<g>
		<defs>
			<path id="SVGID_3_" d="M1738.1,840.5h26c6.6,0,12,5.4,12,12v26c0,6.6-5.4,12-12,12h-26c-6.6,0-12-5.4-12-12v-26
				C1726.1,845.9,1731.5,840.5,1738.1,840.5z"/>
		</defs>
		<clipPath id="SVGID_4_">
			<use xlink:href="#SVGID_3_"  style="overflow:visible;"/>
		</clipPath>
		<g class="st28">
			<path class="st3" d="M1738.2,840.8h26c6.6,0,12,5.4,12,12v26c0,6.6-5.4,12-12,12h-26c-6.6,0-12-5.4-12-12v-26
				C1726.2,846.2,1731.6,840.8,1738.2,840.8z"/>
			<g>
				<path class="st29" d="M1764.6,884.2c-6-1.8-10.3-4.9-14.2-6.4c-3.9,1.4-8.2,4.6-14.2,6.4c-9.5,2.8-11.9-9.9-5.1-14.3
					c6-3.9,5.3-4.6,6.8-11.3c0.1-0.4,0.2-0.9,0.3-1.4c0.1-0.5,0.3-1.1,0.4-1.7c0.1-0.3,0.2-0.7,0.3-1c1.6-5,6.3-8.2,11.3-8
					c5-0.2,9.7,3,11.3,8c0.1,0.3,0.2,0.7,0.3,1c0.2,0.6,0.3,1.2,0.4,1.7c0.1,0.5,0.2,1,0.3,1.4c1.6,6.7,0.8,7.4,6.8,11.3
					C1776.6,874.3,1774.2,887,1764.6,884.2L1764.6,884.2z"/>
				<g>
					<g>
						<path class="st18" d="M1775.1,890.8H1728c0,0,0.6-3,1.5-6s2.8-4.3,5.2-4.9c0.7-0.2,1.9-0.5,3.4-1c0.8-0.2,1.7-0.5,2.6-0.8
							c3-0.9,6-1.8,6-1.8l4.9-0.4h0h0l4.4,0.3c0,0,2.7,0.8,5.6,1.7c2.7,0.8,5.7,1.7,6.8,2c2.4,0.6,4.3,1.9,5.2,4.9
							S1775.1,890.8,1775.1,890.8L1775.1,890.8z"/>
						<g>
							<path class="st19" d="M1733.2,884.4c-0.1,0-0.1,0-0.2,0l-1.2-1c-0.1-0.1-0.1-0.2,0-0.3c0.1-0.1,0.2-0.1,0.3,0l1.2,1
								c0.1,0.1,0.1,0.2,0,0.3C1733.3,884.4,1733.2,884.4,1733.2,884.4L1733.2,884.4z"/>
							<path class="st19" d="M1733.2,889.7c-0.1,0-0.1,0-0.2,0l-1.2-1c-0.1-0.1-0.1-0.2,0-0.3c0.1-0.1,0.2-0.1,0.3,0l1.2,1
								c0.1,0.1,0.1,0.2,0,0.3C1733.3,889.7,1733.2,889.7,1733.2,889.7L1733.2,889.7z"/>
							<path class="st19" d="M1740.4,882.5c0,0-0.1,0-0.1,0c-0.1-0.1-0.2-0.2-0.1-0.3l0.8-1.3c0.1-0.1,0.2-0.2,0.3-0.1
								s0.2,0.2,0.1,0.3l-0.8,1.3C1740.6,882.4,1740.5,882.5,1740.4,882.5L1740.4,882.5z"/>
							<path class="st19" d="M1736.4,887.8c0,0-0.1,0-0.1,0c-0.1-0.1-0.2-0.2-0.1-0.3l0.8-1.3c0.1-0.1,0.2-0.2,0.3-0.1
								s0.2,0.2,0.1,0.3l-0.8,1.3C1736.6,887.7,1736.5,887.8,1736.4,887.8L1736.4,887.8z"/>
							<path class="st19" d="M1738.2,881.1c0,0,0,0.1,0,0.1c0,0.1-0.2,0.2-0.3,0.2l-1.6-0.3c-0.1,0-0.2-0.2-0.2-0.3
								c0-0.1,0.2-0.2,0.3-0.2l1.6,0.3C1738.1,881,1738.2,881.1,1738.2,881.1L1738.2,881.1z"/>
							<path class="st19" d="M1743.6,887c-0.1,0-0.1,0-0.2,0l-1.2-1c-0.1-0.1-0.1-0.2,0-0.3c0.1-0.1,0.2-0.1,0.3,0l1.2,1
								c0.1,0.1,0.1,0.2,0,0.3C1743.7,887,1743.6,887.1,1743.6,887L1743.6,887z"/>
							<path class="st19" d="M1739.1,889.7C1739.1,889.7,1739.1,889.6,1739.1,889.7c-0.1-0.2-0.1-0.3,0-0.4l1.4-0.8
								c0.1-0.1,0.3,0,0.3,0.1c0.1,0.1,0,0.3-0.1,0.3l-1.4,0.8C1739.3,889.7,1739.2,889.7,1739.1,889.7L1739.1,889.7z"/>
							<path class="st19" d="M1760.8,884.4c-0.1,0-0.1,0-0.2,0l-1.2-1c-0.1-0.1-0.1-0.2,0-0.3c0.1-0.1,0.2-0.1,0.3,0l1.2,1
								c0.1,0.1,0.1,0.2,0,0.3C1760.9,884.4,1760.8,884.4,1760.8,884.4L1760.8,884.4z"/>
							<path class="st19" d="M1760.8,889.7c-0.1,0-0.1,0-0.2,0l-1.2-1c-0.1-0.1-0.1-0.2,0-0.3c0.1-0.1,0.2-0.1,0.3,0l1.2,1
								c0.1,0.1,0.1,0.2,0,0.3C1760.9,889.7,1760.8,889.7,1760.8,889.7L1760.8,889.7z"/>
							<path class="st19" d="M1768,882.5c0,0-0.1,0-0.1,0c-0.1-0.1-0.2-0.2-0.1-0.3l0.8-1.3c0.1-0.1,0.2-0.2,0.3-0.1
								s0.2,0.2,0.1,0.3l-0.8,1.3C1768.2,882.4,1768.1,882.5,1768,882.5L1768,882.5z"/>
							<path class="st19" d="M1764,887.8c0,0-0.1,0-0.1,0c-0.1-0.1-0.2-0.2-0.1-0.3l0.8-1.3c0.1-0.1,0.2-0.2,0.3-0.1
								s0.2,0.2,0.1,0.3l-0.8,1.3C1764.2,887.7,1764.1,887.8,1764,887.8L1764,887.8z"/>
							<path class="st19" d="M1772.6,890c0,0-0.1,0-0.1,0c-0.1-0.1-0.2-0.2-0.1-0.3l0.8-1.3c0.1-0.1,0.2-0.2,0.3-0.1
								s0.2,0.2,0.1,0.3l-0.8,1.3C1772.7,889.9,1772.6,890,1772.6,890L1772.6,890z"/>
							<path class="st19" d="M1765.8,881.1c0,0,0,0.1,0,0.1c0,0.1-0.2,0.2-0.3,0.2l-1.6-0.3c-0.1,0-0.2-0.2-0.2-0.3
								c0-0.1,0.2-0.2,0.3-0.2l1.6,0.3C1765.7,881,1765.8,881.1,1765.8,881.1L1765.8,881.1z"/>
							<path class="st19" d="M1771.2,886c-0.1,0-0.1,0-0.2,0l-1.2-1c-0.1-0.1-0.1-0.2,0-0.3c0.1-0.1,0.2-0.1,0.3,0l1.2,1
								c0.1,0.1,0.1,0.2,0,0.3C1771.3,886,1771.2,886.1,1771.2,886L1771.2,886z"/>
							<path class="st19" d="M1766.7,889.7C1766.7,889.7,1766.6,889.6,1766.7,889.7c-0.1-0.2-0.1-0.3,0-0.4l1.4-0.8
								c0.1-0.1,0.3,0,0.3,0.1s0,0.3-0.1,0.3l-1.4,0.8C1766.9,889.7,1766.8,889.7,1766.7,889.7L1766.7,889.7z"/>
							<path class="st19" d="M1751.5,885.3c0,0-0.1,0-0.1,0c-0.1-0.1-0.2-0.2-0.1-0.3l0.8-1.3c0.1-0.1,0.2-0.2,0.3-0.1
								s0.2,0.2,0.1,0.3l-0.8,1.3C1751.7,885.3,1751.6,885.3,1751.5,885.3L1751.5,885.3z"/>
							<path class="st19" d="M1747.7,889.6c0,0-0.1,0-0.1,0c-0.1-0.1-0.2-0.2-0.1-0.3l0.8-1.3c0.1-0.1,0.2-0.2,0.3-0.1
								s0.2,0.2,0.1,0.3l-0.8,1.3C1747.8,889.5,1747.7,889.6,1747.7,889.6L1747.7,889.6z"/>
							<path class="st19" d="M1748,884.5c0,0,0,0.1,0,0.1c0,0.1-0.2,0.2-0.3,0.2l-1.6-0.3c-0.1,0-0.2-0.2-0.2-0.3
								c0-0.1,0.2-0.2,0.3-0.2l1.6,0.3C1747.9,884.4,1747.9,884.4,1748,884.5L1748,884.5z"/>
							<path class="st19" d="M1757.1,885.9c-0.1,0-0.1,0-0.2,0l-1.2-1c-0.1-0.1-0.1-0.2,0-0.3c0.1-0.1,0.2-0.1,0.3,0l1.2,1
								c0.1,0.1,0.1,0.2,0,0.3C1757.2,885.9,1757.1,885.9,1757.1,885.9L1757.1,885.9z"/>
							<path class="st19" d="M1752.3,889.7C1752.3,889.7,1752.3,889.7,1752.3,889.7c-0.1-0.2-0.1-0.3,0-0.4l1.4-0.8
								c0.1-0.1,0.3,0,0.3,0.1c0.1,0.1,0,0.3-0.1,0.3l-1.4,0.8C1752.5,889.8,1752.4,889.8,1752.3,889.7L1752.3,889.7z"/>
						</g>
					</g>
					<polygon class="st21" points="1751.6,875.9 1751.6,875.9 1751.5,875.9 					"/>
					<polygon class="st21" points="1751.5,875.9 1751.5,875.9 1751.5,875.9 					"/>
				</g>
				<g>
					<g>
						<path class="st22" d="M1755.9,877.5c0,0-1.2,2.3-4.6,2.3s-4.7-2.4-4.7-2.4l0.2-1.6l0-0.3l0.3-2.6l8.2,0.2l0.1,1l0,0.3
							L1755.9,877.5L1755.9,877.5z"/>
						<path class="st20" d="M1759.1,881c-2,2.6-6.4,1.2-7.8-0.7c-1.4,1.9-5.8,3.3-7.8,0.7c-1.9-2.5,3.3-4.7,3.3-4.7
							c0.5,2.4,3.5,3.2,4.5,3.4c1-0.2,4-1,4.5-3.4C1755.8,876.3,1761.1,878.5,1759.1,881L1759.1,881z"/>
						<path class="st23" d="M1755.4,874.1c-1.8,1.6-4.8,2.2-8.6,1.7l0-0.3l0.3-2.6l8.2,0.2L1755.4,874.1L1755.4,874.1z"/>
					</g>
					<g>
						<path class="st24" d="M1744.1,866.2c-1.8,2.5-5.8,0.8-5.5-2.5c0.2-3.1,3.7-2.6,3.7-2.6L1744.1,866.2z"/>
						<path class="st30" d="M1742.2,867.5c0,0.6-0.5,1.1-1.1,1.1s-1.1-0.5-1.1-1.1s0.5-1.1,1.1-1.1S1742.2,866.9,1742.2,867.5z"/>
						<path class="st25" d="M1742.4,866.2c-0.1,0-0.2-0.1-0.2-0.2c-0.4-1.5-1.9-2.8-1.9-2.8c-0.1-0.1-0.1-0.2,0-0.3
							c0.1-0.1,0.2-0.1,0.3,0c0.1,0.1,1.6,1.5,2,3.1C1742.7,866,1742.6,866.2,1742.4,866.2C1742.4,866.2,1742.4,866.2,1742.4,866.2
							L1742.4,866.2z"/>
						<path class="st25" d="M1741.8,864.8C1741.8,864.8,1741.7,864.8,1741.8,864.8c-0.8-0.2-1.4-0.1-1.4-0.1c-0.1,0-0.3,0-0.3-0.2
							s0.1-0.3,0.2-0.3c0,0,0.8-0.2,1.6,0.1c0.1,0,0.2,0.2,0.2,0.3C1742,864.8,1741.9,864.8,1741.8,864.8L1741.8,864.8z"/>
					</g>
					<g>
						<path class="st24" d="M1757.6,866.2c1.8,2.5,5.8,0.8,5.5-2.5c-0.2-3.1-3.7-2.6-3.7-2.6L1757.6,866.2z"/>
						<path class="st30" d="M1761.8,867.5c0,0.6-0.5,1.1-1.1,1.1s-1.1-0.5-1.1-1.1s0.5-1.1,1.1-1.1S1761.8,866.9,1761.8,867.5z"/>
						<path class="st25" d="M1759.3,866.2C1759.3,866.2,1759.2,866.2,1759.3,866.2c-0.2,0-0.3-0.2-0.2-0.3c0.4-1.6,2-3,2-3.1
							c0.1-0.1,0.2-0.1,0.3,0c0.1,0.1,0.1,0.2,0,0.3c0,0-1.5,1.4-1.9,2.8C1759.4,866.2,1759.3,866.2,1759.3,866.2L1759.3,866.2z"/>
						<path class="st25" d="M1759.9,864.8c-0.1,0-0.2-0.1-0.2-0.2c0-0.1,0-0.3,0.2-0.3c0.8-0.3,1.5-0.1,1.6-0.1
							c0.1,0,0.2,0.2,0.2,0.3c0,0.1-0.2,0.2-0.3,0.2l0,0C1761.3,864.7,1760.6,864.6,1759.9,864.8
							C1759.9,864.8,1759.9,864.8,1759.9,864.8L1759.9,864.8z"/>
					</g>
					<path class="st22" d="M1741.6,857.3c0,0-0.9,5.5,1.4,10.9c2.1,4.9,4.9,6.4,7.8,6.5c3.4,0,10.4-1.9,9.3-17.9
						C1759.4,846,1742.5,846.4,1741.6,857.3z"/>
					<path class="st29" d="M1741.1,859.8c0,0,0.2,3.4,1.6,3.3c1.4-0.1,0.7-7.8,0.7-7.8s1.3,1.9,3.6,1.7c2.3-0.2,0.2-3.2,0.2-3.2
						s2.1,3,4.1,2.8s0-3.8,0-3.8s2.5,4.1,4.4,4s0.3-3.6,0.3-3.6s1.5,3.8,2.8,4.1c0,0-0.3,5.6,1.1,5.4c1.5-0.2,0.9-6.5,0.3-8.4
						c-0.6-1.9-3.9-6.7-10.2-6.1C1743.7,848.8,1741.2,852.2,1741.1,859.8L1741.1,859.8z"/>
					<path class="st29" d="M1744.7,860.1c0,0,1.3-1.8,3.5-2c0.4,0,0.7,0.2,0.7,0.6l0,0c0,0.4-0.3,0.7-0.6,0.7
						C1747.4,859.4,1746,859.5,1744.7,860.1L1744.7,860.1z"/>
					<path class="st29" d="M1757.2,860.1c0,0-1.3-1.8-3.5-2c-0.4,0-0.7,0.2-0.7,0.6l0,0c0,0.4,0.3,0.7,0.6,0.7
						C1754.4,859.4,1755.9,859.5,1757.2,860.1L1757.2,860.1z"/>
					<path class="st24" d="M1751.2,871.8c-0.7,0-1.2-0.2-1.3-0.3c-0.1,0-0.2-0.2-0.1-0.3c0.1-0.1,0.2-0.2,0.3-0.1
						c0,0,1.3,0.5,2.3-0.1c0.1-0.1,0.2,0,0.3,0.1c0.1,0.1,0,0.2-0.1,0.3C1752.1,871.7,1751.7,871.8,1751.2,871.8L1751.2,871.8z"/>
					<path class="st24" d="M1751.9,866.7C1751.9,866.7,1751.9,866.7,1751.9,866.7l-1.5-0.1c-0.1,0-0.2-0.1-0.2-0.2s0.1-0.2,0.2-0.2
						l1.2,0.1l-0.4-3.8c0-0.1,0.1-0.2,0.2-0.2c0.1,0,0.2,0.1,0.2,0.2l0.4,4c0,0.1,0,0.1-0.1,0.2C1752,866.6,1752,866.6,1751.9,866.7
						L1751.9,866.7z"/>
					<path class="st20" d="M1748,868.3c1.8,0.3,3.7,0.4,6.2-0.1c0,0-0.2,2.7-3.2,2.7C1748.5,870.9,1748,868.3,1748,868.3L1748,868.3
						z"/>
					<path class="st23" d="M1747.9,862.5c0,0.7-0.3,1.3-0.7,1.3s-0.7-0.6-0.7-1.3s0.3-1.3,0.7-1.3S1747.9,861.8,1747.9,862.5z"/>
					<ellipse class="st23" cx="1754.8" cy="862.5" rx="0.7" ry="1.3"/>
					<g>
						<path class="st24" d="M1745.3,865.1c0,0.1-0.1,0.2-0.2,0.2s-0.2-0.1-0.2-0.2s0.1-0.2,0.2-0.2S1745.3,864.9,1745.3,865.1z"/>
						<circle class="st24" cx="1746.1" cy="865.6" r="0.2"/>
						<path class="st24" d="M1745.3,866.3c0,0.1-0.1,0.2-0.2,0.2s-0.2-0.1-0.2-0.2s0.1-0.2,0.2-0.2S1745.3,866.2,1745.3,866.3z"/>
						<path class="st24" d="M1747,866.6c0,0.1-0.1,0.2-0.2,0.2s-0.2-0.1-0.2-0.2s0.1-0.2,0.2-0.2S1747,866.4,1747,866.6z"/>
						<path class="st24" d="M1748.1,866.3c0,0.1-0.1,0.2-0.2,0.2s-0.2-0.1-0.2-0.2s0.1-0.2,0.2-0.2S1748.1,866.2,1748.1,866.3z"/>
						<path class="st24" d="M1747.6,865.3c0,0.1-0.1,0.2-0.2,0.2s-0.2-0.1-0.2-0.2s0.1-0.2,0.2-0.2S1747.6,865.2,1747.6,865.3z"/>
					</g>
					<g>
						<path class="st24" d="M1757.1,865.1c0,0.1,0.1,0.2,0.2,0.2s0.2-0.1,0.2-0.2s-0.1-0.2-0.2-0.2S1757.1,864.9,1757.1,865.1z"/>
						<circle class="st24" cx="1756.2" cy="865.6" r="0.2"/>
						<path class="st24" d="M1757.1,866.3c0,0.1,0.1,0.2,0.2,0.2s0.2-0.1,0.2-0.2s-0.1-0.2-0.2-0.2S1757.1,866.2,1757.1,866.3z"/>
						<path class="st24" d="M1755.4,866.6c0,0.1,0.1,0.2,0.2,0.2s0.2-0.1,0.2-0.2s-0.1-0.2-0.2-0.2S1755.4,866.4,1755.4,866.6z"/>
						<path class="st24" d="M1754.3,866.3c0,0.1,0.1,0.2,0.2,0.2s0.2-0.1,0.2-0.2s-0.1-0.2-0.2-0.2S1754.3,866.2,1754.3,866.3z"/>
						<path class="st24" d="M1754.8,865.3c0,0.1,0.1,0.2,0.2,0.2s0.2-0.1,0.2-0.2s-0.1-0.2-0.2-0.2S1754.8,865.2,1754.8,865.3z"/>
					</g>
					<g>
						<path class="st20" d="M1746.9,866.6c-2,0-3.6-1.6-3.6-3.6s1.6-3.6,3.6-3.6s3.6,1.6,3.6,3.6S1748.9,866.6,1746.9,866.6z
							 M1746.9,859.8c-1.8,0-3.2,1.5-3.2,3.2s1.5,3.2,3.2,3.2s3.2-1.5,3.2-3.2S1748.7,859.8,1746.9,859.8z"/>
						<path class="st20" d="M1755.5,866.6c-2,0-3.6-1.6-3.6-3.6s1.6-3.6,3.6-3.6s3.6,1.6,3.6,3.6S1757.5,866.6,1755.5,866.6z
							 M1755.5,859.8c-1.8,0-3.2,1.5-3.2,3.2s1.5,3.2,3.2,3.2s3.2-1.5,3.2-3.2S1757.3,859.8,1755.5,859.8z"/>
						<path class="st20" d="M1758.7,862c0,0-0.1,0-0.1,0c-0.1-0.1-0.1-0.2,0-0.2c0,0,1.1-1.2,2.7-0.9c0.1,0,0.2,0.1,0.1,0.2
							c0,0.1-0.1,0.2-0.2,0.1c-1.4-0.2-2.4,0.8-2.4,0.8C1758.8,862,1758.7,862,1758.7,862L1758.7,862z"/>
						<path class="st20" d="M1743.7,862c0,0-0.1,0-0.1,0c0,0-1.3-1.3-2.9-0.8c-0.1,0-0.2,0-0.2-0.1c0-0.1,0-0.2,0.1-0.2
							c1.8-0.6,3.2,0.8,3.2,0.8c0.1,0.1,0.1,0.2,0,0.2C1743.8,862,1743.8,862,1743.7,862L1743.7,862z"/>
						<path class="st20" d="M1750.3,862.7C1750.3,862.7,1750.3,862.7,1750.3,862.7c-0.1,0-0.2-0.1-0.2-0.2c0-0.3,0.3-0.8,1.1-0.8
							s1,0.5,1.1,0.8c0,0.1-0.1,0.2-0.2,0.2s-0.2-0.1-0.2-0.2c0,0-0.1-0.5-0.7-0.5s-0.7,0.5-0.7,0.5
							C1750.5,862.7,1750.4,862.7,1750.3,862.7z"/>
					</g>
				</g>
			</g>
		</g>
	</g>
	<path class="st2" d="M1728.5,660.4h371.2c7.7,0,13.9,1.8,13.9,4v8c0,2.2-6.2,4-13.9,4h-371.2c-7.7,0-13.9-1.8-13.9-4v-8
		C1714.6,662.2,1720.8,660.4,1728.5,660.4z"/>
</g>
<g>
	<path class="st0" d="M179.1,832.8h418.4c26.5,0,48,21.5,48,48v515.4c0,26.5-21.5,48-48,48H179.1c-26.5,0-48-21.5-48-48V880.8
		C131.1,854.3,152.6,832.8,179.1,832.8z"/>
	<path class="st1" d="M603.8,878.3l3.5-3.5c0.2-0.2,0.2-0.5,0-0.7l-0.8-0.8c-0.2-0.2-0.5-0.2-0.7,0l-3.5,3.5l-3.5-3.5
		c-0.2-0.2-0.5-0.2-0.7,0l-0.8,0.8c-0.2,0.2-0.2,0.5,0,0.7l3.5,3.5l-3.5,3.5c-0.2,0.2-0.2,0.5,0,0.7l0.8,0.8c0.2,0.2,0.5,0.2,0.7,0
		l3.5-3.5l3.5,3.5c0.2,0.2,0.5,0.2,0.7,0l0.8-0.8c0.2-0.2,0.2-0.5,0-0.7L603.8,878.3z"/>
	<path class="st4" d="M240,943.5h177.4c2.2,0,4,1.8,4,4v4c0,2.2-1.8,4-4,4H240c-2.2,0-4-1.8-4-4v-4C236,945.3,237.8,943.5,240,943.5
		z"/>
	<path class="st3" d="M240.2,919.5h134c2.2,0,4,1.8,4,4v8c0,2.2-1.8,4-4,4h-134c-2.2,0-4-1.8-4-4v-8
		C236.2,921.3,238,919.5,240.2,919.5z"/>
	<path class="st3" d="M175.1,914h32c4.4,0,8,3.6,8,8v32c0,4.4-3.6,8-8,8h-32c-4.4,0-8-3.6-8-8v-32C167.1,917.5,170.6,914,175.1,914z
		"/>
	<path class="st2" d="M171.1,1102.7H397c2.2,0,4,1.8,4,4v4c0,2.2-1.8,4-4,4H171.1c-2.2,0-4-1.8-4-4v-4
		C167.1,1104.5,168.9,1102.7,171.1,1102.7z"/>
	<path class="st1" d="M171.1,1077h125.5c2.2,0,4,1.8,4,4v10c0,2.2-1.8,4-4,4H171.1c-2.2,0-4-1.8-4-4v-10
		C167.1,1078.8,168.9,1077,171.1,1077z"/>
	<path class="st2" d="M171.1,1241h216.2c2.2,0,4,1.8,4,4v5c0,2.2-1.8,4-4,4H171.1c-2.2,0-4-1.8-4-4v-5
		C167.1,1242.8,168.9,1241,171.1,1241z"/>
	<path class="st1" d="M171.1,1216.9h63.3c2.2,0,4,1.8,4,4v10c0,2.2-1.8,4-4,4h-63.3c-2.2,0-4-1.8-4-4v-10
		C167.1,1218.7,168.9,1216.9,171.1,1216.9z"/>
	<path class="st5" d="M175.1,1136.2h426c4.4,0,8,3.6,8,8v33.9c0,4.4-3.6,8-8,8h-426c-4.4,0-8-3.6-8-8v-33.9
		C167.1,1139.7,170.6,1136.2,175.1,1136.2z"/>
	<path class="st3" d="M572.9,1080.8h23.3c7.9,0,14.3,6.4,14.3,14.3v0c0,7.9-6.4,14.3-14.3,14.3h-23.3c-7.9,0-14.3-6.4-14.3-14.3v0
		C558.5,1087.2,565,1080.8,572.9,1080.8z"/>
	<circle class="st31" cx="594.8" cy="1095.2" r="12"/>
	<path class="st3" d="M572.1,1220.7h23.3c7.9,0,14.3,6.4,14.3,14.3v0c0,7.9-6.4,14.3-14.3,14.3h-23.3c-7.9,0-14.3-6.4-14.3-14.3v0
		C557.8,1227.1,564.2,1220.7,572.1,1220.7z"/>
	<path class="st5" d="M175.4,1008H601c4.4,0,8,3.6,8,8v22.2c0,4.4-3.6,8-8,8H175.4c-4.4,0-8-3.6-8-8V1016
		C167.4,1011.6,170.9,1008,175.4,1008z"/>
	<circle class="st31" cx="594" cy="1235" r="12"/>
	<path class="st4" d="M567.8,1020h-9c-0.8,0-1.3,0.6-1.3,1.3v1.3H556c-0.8,0-1.3,0.6-1.3,1.3v9c0,0.8,0.6,1.3,1.3,1.3h9
		c0.8,0,1.3-0.6,1.3-1.3v-1.3h1.3c0.8,0,1.3-0.6,1.3-1.3v-9C569.1,1020.6,568.5,1020,567.8,1020z M564.9,1033.1h-8.7
		c-0.1,0-0.2-0.1-0.2-0.2v-8.7c0-0.1,0.1-0.2,0.2-0.2h1.2v6.3c0,0.8,0.6,1.3,1.3,1.3h6.3v1.2C565,1033,564.9,1033.1,564.9,1033.1
		L564.9,1033.1z M567.6,1030.4h-8.7c-0.1,0-0.2-0.1-0.2-0.2v-8.7c0-0.1,0.1-0.2,0.2-0.2h8.7c0.1,0,0.2,0.1,0.2,0.2v8.7
		C567.8,1030.3,567.7,1030.4,567.6,1030.4z"/>
	<path class="st4" d="M589.7,1027.1c0,0.8-0.7,1.5-1.5,1.5s-1.5-0.7-1.5-1.5s0.7-1.5,1.5-1.5S589.7,1026.3,589.7,1027.1z
		 M593.4,1025.6c-0.8,0-1.5,0.7-1.5,1.5s0.7,1.5,1.5,1.5s1.5-0.7,1.5-1.5S594.2,1025.6,593.4,1025.6z M583,1025.6
		c-0.8,0-1.5,0.7-1.5,1.5s0.7,1.5,1.5,1.5s1.5-0.7,1.5-1.5S583.8,1025.6,583,1025.6z"/>
	<path class="st32" d="M304.2,1275.6h39.3c4.4,0,8,3.6,8,8v36.3c0,4.4-3.6,8-8,8h-39.3c-4.4,0-8-3.6-8-8v-36.3
		C296.2,1279.2,299.8,1275.6,304.2,1275.6z"/>
	<g>
		<path class="st33" d="M177.1,987.7l-1.5,1.3c-0.7-0.7-1.5-1-2.4-1s-1.8,0.4-2.5,1.1s-1,1.6-1,2.6s0.3,1.9,1,2.6
			c0.7,0.7,1.5,1.1,2.5,1.1c0.8,0,1.4-0.2,2-0.6c0.6-0.4,0.9-1,0.9-1.6h-2.9v-1.6h5.2c0,1.9-0.5,3.3-1.4,4.3s-2.2,1.4-3.8,1.4
			s-2.8-0.5-3.9-1.6s-1.6-2.4-1.6-3.9s0.5-2.8,1.6-3.9s2.4-1.6,3.9-1.6S176.1,986.6,177.1,987.7L177.1,987.7z"/>
		<path class="st33" d="M186.6,993.2c0,0.2,0,0.4,0,0.7H181c0.1,0.5,0.3,0.9,0.6,1.1s0.8,0.4,1.4,0.4c0.4,0,0.7-0.1,1.1-0.2
			c0.3-0.2,0.6-0.4,0.8-0.7c0.2,0.1,0.7,0.4,1.4,0.8c-0.3,0.6-0.8,1-1.4,1.3c-0.6,0.3-1.3,0.4-2,0.4c-1.1,0-2-0.4-2.7-1.1
			c-0.7-0.7-1.1-1.6-1.1-2.8s0.4-2,1.1-2.7c0.7-0.7,1.6-1,2.7-1s1.9,0.3,2.6,1S186.6,992.1,186.6,993.2L186.6,993.2z M181,992.6h3.7
			c-0.1-0.5-0.3-0.9-0.6-1.1s-0.7-0.4-1.2-0.4c-0.5,0-0.9,0.1-1.3,0.4C181.2,991.7,181,992.1,181,992.6L181,992.6z"/>
		<path class="st33" d="M190.3,986.8v2.8h1.5v1.5h-1.5v5.8h-1.9v-5.8h-1.3v-1.5h1.3v-2.8H190.3z"/>
		<path class="st33" d="M202.4,989.6l-4.5,10.8h-2l1.7-4.1l-2.8-6.7h2l1.8,4.5l1.8-4.5L202.4,989.6L202.4,989.6z"/>
		<path class="st33" d="M209.1,996c-0.7,0.7-1.6,1.1-2.7,1.1s-2-0.3-2.7-1.1s-1.1-1.6-1.1-2.8s0.4-2,1.1-2.7c0.7-0.7,1.6-1,2.7-1
			s2,0.3,2.7,1c0.7,0.7,1.1,1.6,1.1,2.7S209.8,995.2,209.1,996z M205,994.6c0.4,0.4,0.8,0.5,1.4,0.5s1-0.2,1.4-0.5
			c0.4-0.4,0.6-0.8,0.6-1.4s-0.2-1-0.6-1.4c-0.4-0.3-0.8-0.5-1.4-0.5s-1,0.2-1.4,0.5c-0.4,0.3-0.6,0.8-0.6,1.4
			S204.7,994.3,205,994.6z"/>
		<path class="st33" d="M216.3,993.5v-3.9h1.9v7.3h-1.9v-1c-0.2,0.4-0.5,0.7-0.9,0.9c-0.4,0.2-0.8,0.3-1.1,0.3
			c-0.9,0-1.6-0.3-2.1-0.8s-0.8-1.3-0.8-2.3v-4.3h1.9v4c0,0.5,0.1,1,0.4,1.2c0.3,0.3,0.6,0.4,1,0.4c0.4,0,0.8-0.1,1.1-0.4
			C216.1,994.5,216.3,994.1,216.3,993.5L216.3,993.5z"/>
		<path class="st33" d="M221.9,994.3v2.6H220v-7.3h1.9v1.7c0.2-0.6,0.4-1.1,0.8-1.4c0.4-0.3,0.8-0.5,1.2-0.5s0.9,0.1,1.2,0.3
			l-0.3,1.7c-0.3-0.1-0.7-0.2-1.1-0.2C222.4,991.2,221.8,992.3,221.9,994.3L221.9,994.3z"/>
		<path class="st33" d="M229.1,996.9v-11.2h1.9v11.2H229.1z"/>
		<path class="st33" d="M232.8,987.6c-0.2-0.2-0.4-0.5-0.4-0.8s0.1-0.6,0.4-0.8c0.2-0.2,0.5-0.3,0.9-0.3s0.6,0.1,0.9,0.3
			c0.2,0.2,0.4,0.5,0.4,0.8s-0.1,0.6-0.4,0.8c-0.2,0.2-0.5,0.3-0.9,0.3S233.1,987.8,232.8,987.6L232.8,987.6z M234.6,989.6v7.3h-1.9
			v-7.3H234.6z"/>
		<path class="st33" d="M238.3,993v3.9h-1.9v-7.3h1.9v1.1c0.2-0.4,0.5-0.7,0.9-0.9c0.4-0.2,0.8-0.3,1.3-0.3c0.9,0,1.5,0.3,2,0.8
			c0.5,0.5,0.7,1.3,0.7,2.3v4.3h-1.9v-4c0-0.5-0.1-0.9-0.4-1.2s-0.6-0.4-1-0.4c-0.5,0-0.9,0.1-1.1,0.4S238.3,992.4,238.3,993
			L238.3,993z"/>
		<path class="st33" d="M249.5,996.9l-2.8-3.1v3.1h-1.9v-11.2h1.9v6.1l2-2.2h2.5l-3.1,3.2l3.7,4.1L249.5,996.9L249.5,996.9z"/>
		<path class="st33" d="M252.8,991.5c-0.2-0.2-0.4-0.5-0.4-0.8s0.1-0.6,0.4-0.8s0.5-0.3,0.9-0.3s0.6,0.1,0.9,0.3
			c0.2,0.2,0.4,0.5,0.4,0.8s-0.1,0.6-0.4,0.8s-0.5,0.3-0.9,0.3S253.1,991.7,252.8,991.5z M252.8,996.7c-0.2-0.2-0.4-0.5-0.4-0.8
			s0.1-0.6,0.4-0.8s0.5-0.3,0.9-0.3s0.6,0.1,0.9,0.3c0.2,0.2,0.4,0.5,0.4,0.8s-0.1,0.6-0.4,0.8s-0.5,0.3-0.9,0.3
			S253.1,996.9,252.8,996.7z"/>
	</g>
	<text transform="matrix(1 0 0 1 311.77 1307.36)" class="st3 st7 st34">6h.</text>
	<path class="st5" d="M175.1,1276.4h38.8c4.4,0,8,3.6,8,8v35.7c0,4.4-3.6,8-8,8h-38.8c-4.4,0-8-3.6-8-8v-35.7
		C167.1,1279.9,170.6,1276.4,175.1,1276.4z"/>
	<path class="st5" d="M240.2,1276.2H279c4.4,0,8,3.6,8,8v35.7c0,4.4-3.6,8-8,8h-38.8c-4.4,0-8-3.6-8-8v-35.7
		C232.2,1279.8,235.8,1276.2,240.2,1276.2z"/>
	<path class="st5" d="M369,1276.4h38.8c4.4,0,8,3.6,8,8v35.7c0,4.4-3.6,8-8,8H369c-4.4,0-8-3.6-8-8v-35.7
		C361,1279.9,364.6,1276.4,369,1276.4z"/>
	<path class="st5" d="M433.3,1276.1h38.8c4.4,0,8,3.6,8,8v35.7c0,4.4-3.6,8-8,8h-38.8c-4.4,0-8-3.6-8-8v-35.7
		C425.3,1279.7,428.9,1276.1,433.3,1276.1z"/>
	<path class="st5" d="M498.5,1275.9h38.8c4.4,0,8,3.6,8,8v35.7c0,4.4-3.6,8-8,8h-38.8c-4.4,0-8-3.6-8-8v-35.7
		C490.5,1279.5,494,1275.9,498.5,1275.9z"/>
	<path class="st5" d="M562.7,1276.1h38.8c4.4,0,8,3.6,8,8v35.7c0,4.4-3.6,8-8,8h-38.8c-4.4,0-8-3.6-8-8v-35.7
		C554.7,1279.7,558.3,1276.1,562.7,1276.1z"/>
	<path class="st5" d="M175,1364.1h197c4.4,0,8,3.6,8,8v28c0,4.4-3.6,8-8,8H175c-4.4,0-8-3.6-8-8v-28
		C167,1367.7,170.6,1364.1,175,1364.1z"/>
	<path class="st14" d="M404.3,1364.1h196.2c4.4,0,8,3.6,8,8v28c0,4.4-3.6,8-8,8H404.3c-4.4,0-8-3.6-8-8v-28
		C396.3,1367.7,399.9,1364.1,404.3,1364.1z"/>
	<path class="st16" d="M453.5,1380.1h102.3c2.2,0,4,1.8,4,4v6c0,2.2-1.8,4-4,4H453.5c-2.2,0-4-1.8-4-4v-6
		C449.5,1381.9,451.3,1380.1,453.5,1380.1z"/>
	<path class="st2" d="M241.7,1379.1h69c2.2,0,4,1.8,4,4v6c0,2.2-1.8,4-4,4h-69c-2.2,0-4-1.8-4-4v-6
		C237.7,1380.9,239.5,1379.1,241.7,1379.1z"/>
	<path class="st3" d="M187.8,874l-5.1-5.1c-1.1-1.1-2.9-0.3-2.9,1.2v2c-1.5,0.1-3,0.2-4.3,0.6c-1.2,0.4-2.2,1-2.9,1.7
		c-0.9,0.9-1.3,2.1-1.3,3.5c0,2.2,1.2,4,3,5.1c1.3,0.8,3-0.5,2.5-2c-0.6-1.7-0.6-2.5,3-2.8v1.9c0,1.5,1.8,2.3,2.9,1.2l5.1-5.1
		C188.4,875.8,188.4,874.7,187.8,874L187.8,874z M181.5,880.3v-3.7c-4.5,0.1-7.7,0.8-6.3,5.1c-1-0.7-2.2-1.8-2.2-3.7
		c0-3.9,4.6-4.2,8.5-4.2v-3.7l5.1,5.1L181.5,880.3L181.5,880.3z M182.3,883.3c0.3-0.1,0.5-0.2,0.7-0.3c0.3-0.2,0.6,0,0.6,0.4v1.5
		c0,0.9-0.8,1.7-1.7,1.7h-12.4c-0.9,0-1.7-0.8-1.7-1.7v-12.4c0-0.9,0.8-1.7,1.7-1.7h4.7c0.2,0,0.4,0.2,0.4,0.4v0.2
		c0,0.2-0.1,0.3-0.3,0.4c-0.5,0.2-0.9,0.4-1.3,0.7c-0.1,0-0.1,0.1-0.2,0.1h-3c-0.1,0-0.2,0.1-0.2,0.2v12c0,0.1,0.1,0.2,0.2,0.2h12
		c0.1,0,0.2-0.1,0.2-0.2v-0.9C182,883.5,182.2,883.3,182.3,883.3L182.3,883.3z"/>
	<path class="st2" d="M185.6,1021.2h343c3.4,0,6.1,1.8,6.1,4v4c0,2.2-2.7,4-6.1,4h-343c-3.4,0-6.1-1.8-6.1-4v-4
		C179.6,1023,182.3,1021.2,185.6,1021.2z"/>
	<polygon class="st35" points="414.9,296.3 425.4,296.3 446.5,323.4 425.2,350.6 414.4,350.6 435.9,323.5 	"/>
	<polygon class="st35" points="448.9,323.5 459.6,323.5 438.6,350.6 427.9,350.6 	"/>
	<polygon class="st35" points="461.9,323.5 472.8,323.5 451.1,350.6 472.8,377.8 461.9,377.8 440.7,350.6 461.5,324 	"/>
</g>
<g>
	<g>
		<path id="SVGID" class="st36" d="M342.6,179.2c-0.8-1.1-2.3-1.5-3.5-1l-30.5,11.8c-2.2,0.8-4.4-0.9-4.1-3.2l6.8-51.6l0,0
			c0-0.1-13.2-18.2-21.6-29.7c-1.6-2.2,0.3-5.3,3-4.8c30.6,5.6,147,26.9,177.9,32.6c2.7,0.5,3.4,4.1,1.1,5.6L368,205.7
			c-2.2,1.4-5,0.9-6.6-1.2C356.5,197.9,346.3,184.2,342.6,179.2L342.6,179.2z"/>
		<g>
			<defs>
				<path id="SVGID_5_" d="M342.6,179.2c-0.8-1.1-2.3-1.5-3.5-1l-30.5,11.8c-2.2,0.8-4.4-0.9-4.1-3.2l6.8-51.6l0,0
					c0-0.1-13.2-18.2-21.6-29.7c-1.6-2.2,0.3-5.3,3-4.8c30.6,5.6,147,26.9,177.9,32.6c2.7,0.5,3.4,4.1,1.1,5.6L368,205.7
					c-2.2,1.4-5,0.9-6.6-1.2C356.5,197.9,346.3,184.2,342.6,179.2L342.6,179.2z"/>
			</defs>
			<clipPath id="SVGID_6_">
				<use xlink:href="#SVGID_5_"  style="overflow:visible;"/>
			</clipPath>
			<g class="st37">
				<path class="st38" d="M364.1,208.1c0,0-16.6-22.2-21.5-28.9c-0.8-1.1-2.3-1.5-3.5-1l-30.5,11.8c-2.2,0.8-4.4-0.9-4.1-3.2
					l6.8-51.6l0,0c0-0.1-13.2-18.1-21.6-29.7c-1.6-2.2,0.3-5.3,3-4.8c30.6,5.6,146.9,26.9,177.9,32.6c2.7,0.5,3.4,4.1,1.1,5.6
					L364.1,208.1C364.2,208.1,364.2,208.1,364.1,208.1L364.1,208.1z"/>
				<path class="st33" d="M434.4,138.1L331.2,161l-27.5,30.9l7.7-57l122.5-0.2C436,134.7,436.4,137.6,434.4,138.1L434.4,138.1z"/>
				<polygon class="st39" points="331.2,161 344.1,181.2 303.8,191.9 				"/>
			</g>
		</g>
	</g>
	<path class="st40" d="M264.7,196.8c-33.5,3.4-69.1,14.1-95.9,34.8c-58.8,45.1-44,132.2,14.8,170.5c28,18.2,53.6,31.7,72,61.3
		c21.2,34.1,23.6,75.2,17.2,114"/>
</g>
<g>
	<g>
		<path class="st1" d="M2004.9,1189.6h-15.5c-1.6,0-2.8-1.3-2.7-2.9l1.2-15.9c0.1-1.4,1.3-2.4,2.7-2.4h13c1.4,0,2.5,1.1,2.7,2.4
			l1.2,15.9C2007.7,1188.3,2006.4,1189.6,2004.9,1189.6L2004.9,1189.6z"/>
		<path class="st1" d="M2037.4,1191.2l-6.3,7.4l-1.1,1.2l-0.3,0.4l0,0.1l-0.1,0.1l-1.9,2.3l0,0l-0.5,0.6c-1,1.2-2.8,1.2-3.9,0.2
			l-10.9-10.9c-1.1-1.1-1-2.9,0.2-3.9l0.6-0.5l2.3-2l0,0l1.7-1.5l5.2-4.5l2.2-1.8c0.8-0.7,1.8-0.8,2.7-0.5c0.3,0.1,0.7,0.3,0.9,0.6
			l9.2,9.2C2038.2,1188.6,2038.3,1190.2,2037.4,1191.2L2037.4,1191.2z"/>
		<path class="st1" d="M2047.4,1211.9v13c0,1.4-1.1,2.5-2.4,2.6l-9.4,0.7l-2.3,0.2h-0.1l-3.1,0.2l-1.1,0.1c-1.2,0.1-2.2-0.6-2.6-1.6
			c-0.1-0.3-0.2-0.7-0.2-1.1v-15.5c0-1.5,1.3-2.8,2.9-2.6h0l0.8,0.1h0.1l3,0.2h0l2.3,0.2l9.6,0.8
			C2046.4,1209.4,2047.5,1210.6,2047.4,1211.9L2047.4,1211.9z"/>
		<path class="st1" d="M2037.4,1249.3l-9.2,9.2c-1,1-2.6,1-3.6,0.1l-7.1-6.1l-1.7-1.5l0,0l-2.4-2.1l-0.9-0.8
			c-0.1-0.1-0.2-0.2-0.3-0.3c-0.9-1-0.8-2.6,0.2-3.6l10.9-10.9c0.2-0.2,0.3-0.3,0.5-0.4c1.1-0.7,2.5-0.5,3.4,0.5l0.6,0.7l2.1,2.4
			l1.5,1.7l6.2,7.3C2038.5,1246.8,2038.4,1248.4,2037.4,1249.3L2037.4,1249.3z"/>
		<path class="st1" d="M2007.8,1250.4l-0.1,1.1v0.2l-0.2,3l0,0l-0.2,2.3l-0.7,9.3c-0.1,1.4-1.3,2.4-2.6,2.4h-13
			c-1.4,0-2.5-1.1-2.6-2.4l-0.4-5.6l-0.2-2.5l-0.1-1l-0.2-2.2v-0.1l-0.2-3l-0.1-1.4c-0.1-1.5,1.1-2.9,2.6-2.9h15.5
			c0.3,0,0.6,0.1,0.8,0.1C2007.1,1248,2007.9,1249.1,2007.8,1250.4L2007.8,1250.4z"/>
		<path class="st1" d="M1971.4,1233.7l10.9,10.9c1.1,1.1,1,2.9-0.2,3.9l-12.1,10.4c-1.1,0.9-2.6,0.8-3.6-0.1l-9.2-9.2
			c-1-1-1-2.6-0.1-3.6l10.4-12.1C1968.6,1232.6,1970.4,1232.6,1971.4,1233.7L1971.4,1233.7z"/>
		<path class="st1" d="M1968.3,1211v15.5c0,1.6-1.3,2.8-2.9,2.7l-15.9-1.2c-1.4-0.1-2.4-1.3-2.4-2.7v-13c0-1.4,1.1-2.5,2.4-2.7
			l15.9-1.2C1967,1208.2,1968.3,1209.4,1968.3,1211L1968.3,1211z"/>
		<path class="st1" d="M1982.2,1192.7l-10.9,10.9c-1.1,1.1-2.9,1-3.9-0.2l-10.4-12.1c-0.9-1.1-0.8-2.6,0.1-3.6l9.2-9.2
			c1-1,2.6-1,3.6-0.1l12.1,10.4C1983.2,1189.8,1983.3,1191.6,1982.2,1192.7L1982.2,1192.7z"/>
	</g>
	<path class="st41" d="M2015.3,1186.1c-31.2-18.1-69.6,16.6-50.7,51.1c15.6,28.6,59.4,24.1,68.6-8.7
		C2038,1211.7,2029.8,1194.4,2015.3,1186.1L2015.3,1186.1z M1976.3,1218.8c0-11.5,9.4-20.9,20.9-20.9s20.9,9.4,20.9,20.9
		s-9.4,20.9-20.9,20.9S1976.3,1230.2,1976.3,1218.8z"/>
	<path class="st42" d="M1997.2,1196.3c-12.4,0-22.4,10.1-22.4,22.5s10.1,22.4,22.4,22.4s22.4-10.1,22.4-22.4
		S2009.5,1196.3,1997.2,1196.3z M1997.2,1231.3c-6.9,0-12.6-5.6-12.6-12.6s5.6-12.6,12.6-12.6s12.6,5.6,12.6,12.6
		S2004.1,1231.3,1997.2,1231.3z"/>
	<path class="st31" d="M1990.6,1191.8c-1.2,0.3-2.4,0.7-3.6,1.3c-0.6,0.2-1.2,0.5-1.7,0.8l-1.7,0.9c-2.2,1.3-4.1,2.8-5.8,4.7
		c-1.7,1.8-3.1,3.8-4.1,6.1c-0.6,1.1-1,2.3-1.4,3.4c-0.4,1.2-0.6,2.4-1,3.6l-0.1,0.2c-0.3,0.8-1.2,1.3-2,1c-0.8-0.2-1.2-1-1.1-1.8
		c0.1-0.7,0.2-1.4,0.4-2.1c0.2-0.7,0.2-1.4,0.5-2.1c0.5-1.3,0.8-2.7,1.5-4c1.2-2.6,2.9-4.9,5-6.9c2-2,4.4-3.6,6.9-4.8
		c2.6-1.2,5.2-2,8-2.2c0.5-0.1,0.9,0.3,1,0.8C1991.3,1191.3,1991.1,1191.7,1990.6,1191.8L1990.6,1191.8L1990.6,1191.8z"/>
</g>
<g>
	<g>
		<path class="st38" d="M2120.5,213l-31.2,57c-3.6,6.7-12,9.1-18.7,5.5l-116.2-63.6c-5.6-3.1-8.2-9.5-6.8-15.4
			c0.3-1.1,0.7-2.2,1.3-3.3l31.2-57c3.7-6.7,12-9.1,18.7-5.5l116.2,63.6c4.4,2.4,6.9,6.8,7.1,11.4
			C2122.2,208.2,2121.7,210.7,2120.5,213L2120.5,213z"/>
		<path class="st43" d="M1989.2,137.9l42.7,63.4c1.3,1.9,3.4,3.1,5.7,3.1l75.9,1.5"/>
	</g>
	<g>
		<path class="st42" d="M1805.9,159.9l118.1,0.3c0.6,0,1.1,0.5,1.1,1.1c0,0.6-0.5,1.1-1.1,1.1l-118.1,0.3c-0.8,0-1.4-0.6-1.5-1.4
			C1804.5,160.6,1805.1,159.9,1805.9,159.9L1805.9,159.9L1805.9,159.9z"/>
		<path class="st42" d="M1735.1,196.1l189,0.3c0.6,0,1.1,0.5,1.1,1.1s-0.5,1.1-1.1,1.1l-189,0.3c-0.8,0-1.4-0.6-1.4-1.4
			S1734.3,196.1,1735.1,196.1L1735.1,196.1L1735.1,196.1z"/>
	</g>
</g>
<g>
	<path class="st38" d="M1395.2,1221.6h91c3.2,0,5.8,2.6,5.8,5.8v108.1c0,3.2-2.6,5.8-5.8,5.8h-91c-3.2,0-5.8-2.6-5.8-5.8v-108.1
		C1389.4,1224.2,1392,1221.6,1395.2,1221.6z"/>
	<g>
		<path class="st44" d="M1440.7,1300.3c6.4,0,12.7,0,12.7,0c-0.8-6.5,4.8-11.3,8.6-16.8c2.5-3.6,4.6-7.3,5.6-11.9
			c3.9-17.6-7.6-36-26.8-36c-19.2,0-30.8,18.4-26.9,36c1,4.6,3.1,8.3,5.6,11.9c3.7,5.5,9.4,10.3,8.5,16.8
			C1428,1300.3,1434.3,1300.3,1440.7,1300.3L1440.7,1300.3z"/>
		<path class="st31" d="M1460,1255.9c-1.3-1.9-2.7-3.8-4.4-5.4c-1.6-1.6-3.4-3-5.4-4.2c-2-1.1-4.1-2.1-6.3-2.6
			c-1.1-0.3-2.3-0.5-3.4-0.7c-1.2-0.2-2.3-0.2-3.5-0.4h-0.1c-0.3-0.1-0.5-0.3-0.4-0.6c0-0.2,0.2-0.4,0.4-0.4
			c1.2-0.1,2.4-0.3,3.7-0.3c1.2,0.1,2.5,0,3.7,0.3c2.5,0.3,4.9,1.3,7.1,2.5c2.2,1.2,4.2,2.9,5.8,4.8c1.6,1.9,2.9,4.1,3.6,6.5
			c0.1,0.3-0.1,0.5-0.3,0.6C1460.4,1256.3,1460.1,1256.2,1460,1255.9L1460,1255.9L1460,1255.9z"/>
		<path class="st42" d="M1450.9,1297.5c0.2-5.8,0.8-11.8,3.5-17c0.6-1.2,1.5-2.4,2.5-3.6c2.6-3.5,5.6-7.4,3.2-12.1
			c-1.2-2.3-3.5-3.8-6.3-4.1c-1.8-0.2-3.8,0.1-5.4,0.9l-0.2,0.1l-0.2-0.1c-2.3-1.1-4.8-1.6-6.8-1.5c-2-0.1-4.4,0.4-6.7,1.5l-0.2,0.1
			l-0.2-0.1c-0.2-0.1-0.5-0.2-0.7-0.3c-1.5-0.6-3.1-0.8-4.7-0.6c-2.8,0.3-5.2,1.8-6.3,4.1c-2.4,4.6,0.6,8.6,3.2,12.1
			c1,1.3,1.9,2.5,2.4,3.6c2.6,5.2,3.2,11.2,3.4,17c0,0.3,0.2,0.6,0.4,0.8c0.2,0.2,0.5,0.3,0.8,0.2c0.3,0,0.6-0.1,0.8-0.3
			c0.2-0.2,0.3-0.5,0.3-0.8c-0.2-6-0.8-12.3-3.7-17.8c-0.7-1.3-1.6-2.6-2.6-3.9c-2.4-3.2-4.8-6.5-3-10c0.8-1.6,2.5-2.7,4.5-2.9
			c0.7-0.1,1.5-0.1,2.2,0.1l0.7,0.1l-0.6,0.4c-0.6,0.4-1.1,0.9-1.5,1.4c-1.8,2-2.4,5.2-1.4,7.4c0.8,1.7,2.3,2.8,4.4,3
			c2.3,0.3,4.1-0.5,5.1-2.2c1.7-2.8,0.7-7.3-1.3-9.5l-0.4-0.4l0.4-0.2c1.6-0.6,3.1-0.8,4.3-0.7h0.2c1.2-0.1,2.8,0.2,4.3,0.7l0.5,0.2
			l-0.4,0.4c-2,2.2-3,6.8-1.3,9.5c1,1.6,2.8,2.4,5.1,2.2c2.1-0.2,3.7-1.3,4.5-3c1-2.3,0.4-5.4-1.4-7.4c-0.4-0.5-0.9-0.9-1.5-1.4
			l-0.5-0.4l0.7-0.1c0.7-0.1,1.5-0.2,2.2-0.1c2,0.2,3.7,1.3,4.5,2.9c1.8,3.5-0.6,6.8-3,10c-1,1.3-2,2.6-2.6,3.9
			c-2.8,5.5-3.4,11.8-3.7,17.8c0,0.6,0.5,1.1,1.1,1.1c0.2,0,0.2,0,0.3,0C1450.5,1298.4,1450.8,1298,1450.9,1297.5L1450.9,1297.5z
			 M1436.1,1272c-0.5,0.9-1.4,1.2-2.8,1.1c-0.4,0-0.7-0.1-1-0.2c-0.7-0.3-1.3-0.8-1.6-1.5c-0.7-1.5-0.2-3.9,1.1-5.3
			c0.6-0.6,1.3-1.2,2.3-1.8l0.2-0.1l0.2,0.2c0.2,0.2,0.4,0.3,0.6,0.6C1436.5,1266.4,1437.3,1270.2,1436.1,1272L1436.1,1272z
			 M1450.7,1266.1c1.3,1.4,1.7,3.8,1.1,5.3c-0.4,1-1.3,1.6-2.6,1.7l0,0c-0.7,0.1-1.2,0-1.7-0.1c-0.5-0.2-0.8-0.5-1.1-0.9
			c-1.2-1.9-0.3-5.6,1.1-7.2c0.2-0.2,0.4-0.4,0.6-0.6l0.2-0.2l0.2,0.1C1449.4,1264.8,1450.2,1265.5,1450.7,1266.1L1450.7,1266.1z"/>
		<g>
			<path class="st45" d="M1429.3,1309.1v10.4c0,1.5,1.3,2.8,3,2.8h16.1c1.7,0,3.1-1.2,3.1-2.8v-10.4c0-1.5-1.3-2.8-3-2.8h-16.1
				C1430.7,1306.4,1429.3,1307.6,1429.3,1309.1z"/>
			<path class="st42" d="M1425.5,1299.4v11.9c0,1.9,1.7,3.5,3.8,3.5l22.2,0c2.1,0,3.8-1.6,3.8-3.5v-11.9c0-1.9-1.7-3.5-3.8-3.5
				l-22.2,0C1427.2,1295.9,1425.5,1297.5,1425.5,1299.4z"/>
			<g>
				<line class="st46" x1="1431.5" y1="1302" x2="1449.3" y2="1302"/>
				<line class="st46" x1="1431.5" y1="1308.7" x2="1449.3" y2="1308.7"/>
			</g>
		</g>
	</g>
	<path class="st47" d="M1399.1,1318.2v8.5c0,3.1,2.7,5.5,6.1,5.5h22.6"/>
	<g>
		<path class="st48" d="M1413.5,1223.2l-20.6,18.7c-1.9,1.7-4.9,1.7-6.8,0l0,0c-1.9-1.7-1.9-4.5,0-6.2l20.6-18.7
			c1.9-1.7,4.9-1.7,6.8,0l0,0C1415.4,1218.8,1415.4,1221.5,1413.5,1223.2z"/>
		<path class="st48" d="M1467.9,1223.2l20.6,18.7c1.9,1.7,4.9,1.7,6.8,0l0,0c1.9-1.7,1.9-4.5,0-6.2l-20.6-18.7
			c-1.9-1.7-4.9-1.7-6.8,0l0,0C1466,1218.8,1466,1221.5,1467.9,1223.2z"/>
	</g>
</g>
<g>
	<g>
		<path class="st49" d="M2239,41.5c17.1-1.1,35.9,14,36.2,36.3c0.2,19.6-16.7,36.1-36.5,36.3c-19.8,0.2-36.9-17.3-36.6-37
			C2202.5,54.3,2222.7,39.9,2239,41.5z M2238.3,108.1c17.6,0,30.8-12.9,30.8-30.2c-0.1-18.1-12.6-30.6-30.4-30.7
			c-18.3-0.1-30.4,14.1-30.5,30.6C2208.1,94.6,2221.5,107.9,2238.3,108.1L2238.3,108.1z"/>
		<path class="st49" d="M103.9,422.9c17.1-1.1,35.9,14,36.2,36.3c0.2,19.6-16.7,36.1-36.5,36.3c-19.8,0.2-36.9-17.3-36.6-37
			C67.4,435.7,87.6,421.3,103.9,422.9L103.9,422.9z M103.2,489.4c17.6,0,30.8-12.9,30.8-30.2c-0.1-18.1-12.6-30.6-30.4-30.7
			c-18.3-0.1-30.4,14.1-30.5,30.6C73,475.9,86.4,489.3,103.2,489.4z"/>
		<path class="st49" d="M30.4,1302.1c-13.4,0.3-25.8-10.9-25.9-26.1c-0.1-12,10.1-25.3,25.4-25.4c16-0.1,26.5,12.1,26.4,25.6
			C56.2,1293.1,42.7,1302.6,30.4,1302.1L30.4,1302.1z M30.1,1295.8c11.2,1.2,20.4-9.7,20.2-19.1c-0.1-9.1-6.2-19.6-19.5-20.2
			c-11-0.5-19.7,8.4-20.1,19.6C10.3,1285.9,18.4,1296.6,30.1,1295.8z"/>
		<path class="st49" d="M1681.3,1567.2c-13.4,0.3-25.8-10.9-25.9-26.1c-0.1-12,10.1-25.3,25.4-25.4c15.9-0.1,26.5,12.1,26.4,25.6
			C1707.1,1558.1,1693.6,1567.6,1681.3,1567.2L1681.3,1567.2z M1681,1560.9c11.2,1.2,20.4-9.7,20.2-19.1
			c-0.1-9.1-6.2-19.6-19.5-20.2c-11-0.5-19.7,8.4-20.1,19.6C1661.2,1551,1669.3,1561.6,1681,1560.9z"/>
		<path class="st49" d="M1578.8,248.4c-13.4,0.4-25.8-10.9-25.9-26.1c-0.1-12,10.1-25.3,25.4-25.4c15.9-0.1,26.5,12.1,26.4,25.6
			C1604.6,239.3,1591,248.8,1578.8,248.4L1578.8,248.4z M1578.4,242.1c11.2,1.2,20.4-9.6,20.2-19.1c-0.1-9.1-6.2-19.6-19.5-20.2
			c-11-0.5-19.7,8.4-20.1,19.6C1558.7,232.2,1566.8,242.8,1578.4,242.1z"/>
	</g>
	<g>
		<path class="st3" d="M154,707.6c-7.5,0.1-13.8-6-13.8-14.1c0-7.4,6.4-13.2,14-13.2c7.9,0,14.2,6.3,13.7,14
			C167.4,701.3,162.1,707.8,154,707.6L154,707.6z"/>
		<path class="st3" d="M1956.3,363.2c-7.5,0.1-13.8-6-13.8-14.1c0-7.4,6.4-13.2,14-13.2c7.8,0,14.2,6.3,13.7,14
			C1969.7,356.9,1964.4,363.4,1956.3,363.2z"/>
		<path class="st3" d="M803.7,187.6c-7.5,0.1-13.8-5.9-13.8-14.1c0-7.4,6.4-13.2,14-13.2s14.2,6.3,13.7,14
			C817.1,181.3,811.8,187.8,803.7,187.6z"/>
		<path class="st3" d="M2166.3,1184.3c7.4-0.7,14.1,6,13.9,13.1c-0.2,8-5.6,13.7-13.9,14.2c-6.3,0.4-14-5.2-13.9-14.1
			C2152.5,1189.6,2159.7,1183.3,2166.3,1184.3L2166.3,1184.3z"/>
		<path class="st3" d="M1096.3,1366.5c7.3-0.7,14.1,6,13.9,13.1c-0.2,8-5.6,13.7-13.8,14.2c-6.3,0.4-14-5.2-13.9-14.1
			C1082.6,1371.9,1089.8,1365.6,1096.3,1366.5L1096.3,1366.5z"/>
		<path class="st3" d="M354.1,27.8c7.4-0.6,14,6,13.9,13.1c-0.2,8-5.6,13.7-13.9,14.2c-6.3,0.4-14-5.2-13.9-14.1
			C340.3,33.2,347.5,26.8,354.1,27.8L354.1,27.8z"/>
		<path class="st3" d="M2294.8,1430.5c7.4-0.7,14.1,6,13.9,13.1c-0.2,8-5.6,13.7-13.9,14.2c-6.3,0.4-14-5.2-13.9-14.1
			C2281.1,1435.9,2288.2,1429.6,2294.8,1430.5L2294.8,1430.5z"/>
	</g>
</g>
<g>
	<path d="M1734.2,495.3v-13.1h8.1v2.2h-5.7v3.4h5v2.1h-5v3.2h5.9v2.2L1734.2,495.3L1734.2,495.3z"/>
	<path d="M1750.2,495.3v-1.2c-0.2,0.4-0.6,0.8-1.1,1s-1.1,0.4-1.7,0.4c-1.2,0-2.2-0.4-3.1-1.3s-1.3-2-1.3-3.3s0.4-2.5,1.3-3.4
		c0.8-0.9,1.9-1.3,3.1-1.3c0.6,0,1.2,0.1,1.7,0.4c0.5,0.2,0.9,0.6,1.1,1v-6h2.3v13.7L1750.2,495.3L1750.2,495.3z M1749.4,492.6
		c0.5-0.5,0.7-1,0.7-1.8s-0.2-1.3-0.7-1.7s-1-0.7-1.7-0.7s-1.2,0.2-1.7,0.7c-0.4,0.4-0.7,1-0.7,1.7s0.2,1.3,0.7,1.8
		c0.4,0.5,1,0.7,1.7,0.7S1749,493,1749.4,492.6L1749.4,492.6z"/>
	<path d="M1754.2,484c-0.3-0.3-0.4-0.6-0.4-1s0.2-0.7,0.4-1c0.3-0.3,0.7-0.4,1.1-0.4s0.8,0.1,1,0.4c0.3,0.3,0.4,0.6,0.4,1
		s-0.1,0.7-0.4,1s-0.6,0.4-1,0.4S1754.5,484.2,1754.2,484z M1756.4,486.4v8.9h-2.3v-8.9H1756.4z"/>
	<path d="M1761.2,483v3.4h1.9v1.9h-1.9v7h-2.3v-7h-1.6v-1.9h1.6V483H1761.2z"/>
	<path d="M1770.1,483v3.4h1.9v1.9h-1.9v7h-2.3v-7h-1.6v-1.9h1.6V483H1770.1z"/>
	<path d="M1781.2,490.8c0,0.2,0,0.5,0,0.8h-6.8c0.1,0.6,0.3,1,0.8,1.4c0.4,0.3,1,0.5,1.7,0.5c0.5,0,0.9-0.1,1.3-0.3
		c0.4-0.2,0.7-0.5,0.9-0.9c0.3,0.1,0.9,0.5,1.8,1c-0.4,0.7-0.9,1.3-1.7,1.6c-0.8,0.4-1.6,0.5-2.4,0.5c-1.3,0-2.4-0.4-3.3-1.3
		s-1.3-2-1.3-3.4s0.4-2.5,1.3-3.3s2-1.3,3.3-1.3s2.4,0.4,3.2,1.3C1780.8,488.3,1781.2,489.4,1781.2,490.8L1781.2,490.8z M1774.4,490
		h4.6c-0.1-0.6-0.3-1.1-0.7-1.4c-0.4-0.3-0.9-0.5-1.5-0.5c-0.6,0-1.1,0.2-1.6,0.5C1774.7,489,1774.5,489.4,1774.4,490L1774.4,490z"
		/>
	<path d="M1788.9,495.3v-1.1c-0.3,0.4-0.7,0.7-1.2,1c-0.5,0.2-1.1,0.3-1.6,0.3c-1.2,0-2.3-0.4-3.2-1.3s-1.3-2-1.3-3.3
		s0.4-2.5,1.3-3.3c0.9-0.9,1.9-1.3,3.2-1.3c0.5,0,1,0.1,1.5,0.3s0.9,0.5,1.2,1v-1.1h2.3v8.9L1788.9,495.3L1788.9,495.3z
		 M1784.8,489.1c-0.5,0.5-0.7,1-0.7,1.7s0.2,1.3,0.7,1.7s1.1,0.7,1.7,0.7s1.2-0.2,1.7-0.7s0.7-1,0.7-1.7s-0.2-1.3-0.7-1.8
		s-1.1-0.6-1.7-0.6S1785.2,488.6,1784.8,489.1L1784.8,489.1z"/>
	<path d="M1802.8,488.5c-0.5,0-1,0.2-1.3,0.5c-0.3,0.4-0.5,0.9-0.5,1.5v4.7h-2.3v-4.9c0-0.6-0.2-1.1-0.5-1.4
		c-0.3-0.3-0.7-0.5-1.2-0.5c-0.5,0-1,0.2-1.3,0.5s-0.5,0.9-0.5,1.6v4.7h-2.3v-8.9h2.3v1.3c0.2-0.5,0.6-0.9,1.1-1.1
		c0.5-0.2,1-0.4,1.5-0.4c1.4,0.1,2.4,0.6,2.8,1.6c0.6-1.1,1.6-1.7,2.8-1.7c1.1,0,1.9,0.3,2.5,1c0.6,0.7,0.9,1.7,0.9,3v5.1h-2.3v-4.8
		c0-0.6-0.2-1.1-0.5-1.5C1803.7,488.6,1803.3,488.5,1802.8,488.5L1802.8,488.5z"/>
	<path d="M1817.5,481.6v2.2h-1c-1,0-1.4,0.6-1.4,1.9v0.7h1.9v1.9h-1.9v7h-2.3v-7h-1.7v-1.9h1.7v-0.7c0-1.3,0.3-2.3,1-3
		s1.6-1.1,2.8-1.1H1817.5L1817.5,481.6z"/>
	<path d="M1825,494.1c-0.9,0.9-2,1.3-3.3,1.3s-2.4-0.4-3.3-1.3c-0.9-0.9-1.3-2-1.3-3.3s0.4-2.5,1.3-3.3c0.9-0.9,2-1.3,3.3-1.3
		s2.4,0.4,3.3,1.3c0.9,0.9,1.3,2,1.3,3.3S1825.8,493.3,1825,494.1z M1820,492.5c0.4,0.4,1,0.7,1.7,0.7s1.2-0.2,1.7-0.7
		s0.7-1,0.7-1.7s-0.2-1.2-0.7-1.7c-0.4-0.4-1-0.6-1.7-0.6s-1.2,0.2-1.7,0.6c-0.4,0.4-0.7,1-0.7,1.7S1819.6,492.1,1820,492.5z"/>
	<path d="M1827.4,495.3v-13.7h2.3v13.7H1827.4z"/>
	<path d="M1838,495.3v-1.2c-0.2,0.4-0.6,0.8-1.1,1s-1.1,0.4-1.7,0.4c-1.2,0-2.2-0.4-3.1-1.3s-1.3-2-1.3-3.3s0.4-2.5,1.3-3.4
		c0.8-0.9,1.9-1.3,3.1-1.3c0.6,0,1.2,0.1,1.7,0.4c0.5,0.2,0.9,0.6,1.1,1v-6h2.3v13.7L1838,495.3L1838,495.3z M1837.3,492.6
		c0.5-0.5,0.7-1,0.7-1.8s-0.2-1.3-0.7-1.7s-1-0.7-1.7-0.7s-1.2,0.2-1.7,0.7c-0.4,0.4-0.7,1-0.7,1.7s0.2,1.3,0.7,1.8
		c0.4,0.5,1,0.7,1.7,0.7S1836.8,493,1837.3,492.6L1837.3,492.6z"/>
	<path d="M1850.5,490.8c0,0.2,0,0.5,0,0.8h-6.8c0.1,0.6,0.3,1,0.8,1.4c0.4,0.3,1,0.5,1.7,0.5c0.5,0,0.9-0.1,1.3-0.3
		c0.4-0.2,0.7-0.5,0.9-0.9c0.3,0.1,0.9,0.5,1.8,1c-0.4,0.7-0.9,1.3-1.7,1.6c-0.8,0.4-1.6,0.5-2.4,0.5c-1.3,0-2.4-0.4-3.3-1.3
		s-1.3-2-1.3-3.4s0.4-2.5,1.3-3.3s2-1.3,3.3-1.3s2.4,0.4,3.2,1.3C1850.1,488.3,1850.5,489.4,1850.5,490.8L1850.5,490.8z M1843.7,490
		h4.6c-0.1-0.6-0.3-1.1-0.7-1.4c-0.4-0.3-0.9-0.5-1.5-0.5c-0.6,0-1.1,0.2-1.6,0.5C1844.1,489,1843.8,489.4,1843.7,490L1843.7,490z"
		/>
	<path d="M1853.8,492.1v3.1h-2.3v-8.9h2.3v2.1c0.2-0.8,0.6-1.3,1-1.7s1-0.6,1.5-0.6s1.1,0.1,1.5,0.3l-0.4,2.1
		c-0.4-0.2-0.8-0.2-1.3-0.2C1854.6,488.4,1853.8,489.6,1853.8,492.1L1853.8,492.1z"/>
</g>
<g>
	<path d="M197,881h2.4c0,0.5,0.2,0.9,0.6,1.3c0.4,0.4,0.9,0.5,1.6,0.5c0.6,0,1.1-0.2,1.5-0.5s0.6-0.7,0.6-1.1c0-0.4-0.1-0.8-0.4-1.1
		c-0.3-0.3-0.8-0.5-1.4-0.7l-1.6-0.4c-2.2-0.7-3.3-1.9-3.3-3.7c0-1.1,0.4-2,1.3-2.8c0.9-0.7,1.9-1.1,3.1-1.1s2.3,0.4,3.1,1.1
		c0.8,0.7,1.2,1.7,1.2,2.9h-2.4c0-0.5-0.2-0.9-0.5-1.2c-0.4-0.3-0.8-0.5-1.4-0.5c-0.6,0-1,0.1-1.4,0.4c-0.4,0.3-0.6,0.7-0.6,1.1
		c0,0.7,0.5,1.2,1.6,1.5l1.6,0.5c1.4,0.4,2.3,0.9,2.9,1.6c0.5,0.7,0.8,1.5,0.7,2.4c-0.1,1.1-0.5,2-1.4,2.7c-0.9,0.7-1.9,1-3.2,1
		c-1.4,0-2.5-0.4-3.4-1.2S197.1,882.1,197,881L197,881z"/>
	<path d="M209.8,880v4.7h-2.3v-13.7h2.3v6.2c0.2-0.5,0.6-0.9,1.1-1.2s1.1-0.4,1.6-0.4c1.1,0,2,0.4,2.6,1.1c0.6,0.7,0.9,1.7,0.9,3
		v4.9h-2.3v-4.8c0-0.6-0.2-1.1-0.6-1.4s-0.8-0.5-1.3-0.5c-0.6,0-1.1,0.2-1.5,0.5C210,878.8,209.8,879.3,209.8,880L209.8,880z"/>
	<path d="M224.4,884.8v-1.1c-0.3,0.4-0.7,0.7-1.2,1c-0.5,0.2-1.1,0.3-1.6,0.3c-1.2,0-2.3-0.4-3.2-1.3c-0.9-0.9-1.4-2-1.4-3.3
		s0.4-2.5,1.3-3.3c0.9-0.9,1.9-1.3,3.2-1.3c0.5,0,1,0.1,1.5,0.3s0.9,0.5,1.2,1v-1.1h2.3v8.9L224.4,884.8L224.4,884.8z M220.2,878.6
		c-0.5,0.5-0.7,1-0.7,1.7s0.2,1.3,0.7,1.7c0.5,0.5,1.1,0.7,1.7,0.7s1.2-0.2,1.7-0.7c0.5-0.4,0.7-1,0.7-1.7s-0.2-1.3-0.7-1.8
		c-0.5-0.4-1.1-0.7-1.7-0.7S220.7,878.1,220.2,878.6L220.2,878.6z"/>
	<path d="M230.7,881.7v3.1h-2.3v-8.9h2.3v2.1c0.2-0.8,0.6-1.3,1-1.7s1-0.6,1.5-0.6s1.1,0.1,1.5,0.3l-0.4,2.1
		c-0.4-0.2-0.8-0.2-1.4-0.2C231.5,877.9,230.7,879.1,230.7,881.7L230.7,881.7z"/>
	<path d="M243.6,880.3c0,0.2,0,0.5,0,0.8h-6.8c0.1,0.6,0.3,1,0.8,1.4c0.4,0.3,1,0.5,1.7,0.5c0.5,0,0.9-0.1,1.3-0.3
		c0.4-0.2,0.7-0.5,0.9-0.8c0.3,0.2,0.9,0.5,1.8,1c-0.4,0.7-0.9,1.3-1.7,1.6c-0.8,0.3-1.6,0.5-2.4,0.5c-1.3,0-2.4-0.4-3.3-1.3
		s-1.3-2-1.3-3.3s0.4-2.5,1.3-3.3s2-1.3,3.3-1.3s2.4,0.4,3.2,1.3C243.2,877.9,243.6,879,243.6,880.3L243.6,880.3z M236.8,879.5h4.6
		c-0.1-0.6-0.3-1.1-0.7-1.4s-0.9-0.5-1.5-0.5c-0.6,0-1.1,0.2-1.6,0.5C237.1,878.5,236.9,878.9,236.8,879.5L236.8,879.5z"/>
	<path d="M256.1,875.9l-5.5,13.2h-2.4l2-5l-3.5-8.2h2.5l2.2,5.5l2.2-5.5H256.1L256.1,875.9z"/>
	<path d="M263.8,883.7c-0.9,0.9-2,1.3-3.3,1.3s-2.4-0.4-3.3-1.3c-0.9-0.9-1.3-2-1.3-3.3s0.5-2.5,1.3-3.3c0.9-0.8,2-1.3,3.3-1.3
		s2.4,0.4,3.3,1.3c0.9,0.8,1.3,2,1.3,3.3S264.7,882.8,263.8,883.7z M258.9,882c0.4,0.4,1,0.7,1.6,0.7s1.2-0.2,1.6-0.7s0.7-1,0.7-1.7
		s-0.2-1.2-0.7-1.7c-0.4-0.4-1-0.7-1.6-0.7s-1.2,0.2-1.6,0.7c-0.4,0.4-0.7,1-0.7,1.7S258.4,881.6,258.9,882z"/>
	<path d="M272.1,880.6v-4.7h2.3v8.9h-2.3v-1.2c-0.2,0.5-0.6,0.8-1,1.1s-0.9,0.4-1.4,0.4c-1.1,0-1.9-0.3-2.6-1s-0.9-1.6-0.9-2.8v-5.2
		h2.3v4.8c0,0.7,0.2,1.2,0.5,1.5s0.7,0.5,1.2,0.5c0.5,0,1-0.2,1.4-0.5S272.1,881.4,272.1,880.6z"/>
	<path d="M278.4,881.7v3.1h-2.3v-8.9h2.3v2.1c0.2-0.8,0.5-1.3,1-1.7s1-0.6,1.5-0.6s1.1,0.1,1.5,0.3l-0.4,2.1
		c-0.4-0.2-0.8-0.2-1.4-0.2C279.2,877.9,278.4,879.1,278.4,881.7L278.4,881.7z"/>
	<path d="M296.2,875.9v8.9h-2.3v-7h-4.5v7h-2.3v-7h-1.7v-1.9h1.7v-0.7c0-1.3,0.3-2.3,1-3s1.6-1.1,2.8-1.1h1v2.2h-1
		c-1,0-1.4,0.6-1.4,1.9v0.7H296.2z M294,873.5c-0.3-0.3-0.4-0.6-0.4-1s0.1-0.7,0.5-1c0.3-0.3,0.6-0.4,1-0.4s0.8,0.1,1,0.4
		s0.4,0.6,0.4,1s-0.1,0.7-0.4,1s-0.6,0.4-1,0.4S294.3,873.7,294,873.5z"/>
	<path d="M297.8,884.8v-13.7h2.3v13.7H297.8z"/>
	<path d="M310.4,880.3c0,0.2,0,0.5,0,0.8h-6.8c0.1,0.6,0.3,1,0.8,1.4c0.5,0.3,1,0.5,1.7,0.5c0.5,0,0.9-0.1,1.3-0.3
		c0.4-0.2,0.7-0.5,0.9-0.8c0.3,0.2,0.9,0.5,1.8,1c-0.4,0.7-0.9,1.3-1.7,1.6c-0.8,0.3-1.6,0.5-2.5,0.5c-1.3,0-2.4-0.4-3.3-1.3
		c-0.9-0.9-1.3-2-1.3-3.3s0.4-2.5,1.3-3.3s2-1.3,3.3-1.3s2.4,0.4,3.2,1.3C310,877.9,310.4,879,310.4,880.3L310.4,880.3z
		 M303.6,879.5h4.6c-0.1-0.6-0.3-1.1-0.7-1.4s-0.9-0.5-1.5-0.5c-0.6,0-1.1,0.2-1.6,0.5C303.9,878.5,303.6,878.9,303.6,879.5z"/>
</g>
<g>
	<path d="M797.1,328.5l4.8-10.2h2.4l1.8,15.2h-2.8l-1.2-10.1l-4,8.4H796l-4-8.4l-1.2,10.1H788l1.9-15.2h2.4L797.1,328.5z"/>
	<path d="M816.9,323.1l-6.4,15.3h-2.8l2.3-5.8l-4-9.5h2.9l2.5,6.4l2.6-6.4H816.9L816.9,323.1z"/>
	<path d="M821.7,333.4v-15.2h9.3v2.5h-6.5v3.9h5.1v2.5h-5.1v6.2L821.7,333.4L821.7,333.4z"/>
	<path d="M832.1,320.3c-0.3-0.3-0.5-0.7-0.5-1.1s0.2-0.8,0.5-1.1c0.3-0.3,0.8-0.5,1.2-0.5s0.9,0.1,1.2,0.5s0.5,0.7,0.5,1.1
		s-0.2,0.8-0.5,1.1c-0.3,0.3-0.7,0.5-1.2,0.5S832.4,320.6,832.1,320.3z M834.6,323.1v10.3H832v-10.3H834.6z"/>
	<path d="M836.6,333.4v-15.9h2.7v15.9H836.6z"/>
	<path d="M851.1,328.2c0,0.3,0,0.6,0,0.9h-7.8c0.1,0.7,0.4,1.2,0.9,1.6c0.5,0.4,1.2,0.6,1.9,0.6c0.5,0,1-0.1,1.5-0.3
		c0.5-0.2,0.8-0.5,1.1-1c0.3,0.2,1,0.5,2,1.1c-0.4,0.8-1.1,1.5-2,1.9s-1.8,0.6-2.8,0.6c-1.5,0-2.8-0.5-3.8-1.5c-1-1-1.5-2.3-1.5-3.9
		s0.5-2.9,1.5-3.9c1-1,2.3-1.5,3.8-1.5s2.7,0.5,3.7,1.5S851.1,326.7,851.1,328.2L851.1,328.2z M843.2,327.4h5.3
		c-0.1-0.7-0.4-1.2-0.9-1.6c-0.5-0.4-1-0.6-1.7-0.6c-0.7,0-1.3,0.2-1.8,0.6C843.6,326.1,843.3,326.7,843.2,327.4L843.2,327.4z"/>
	<path d="M854.8,329.1c-0.6-0.2-1.2-0.4-1.6-0.6c-0.4-0.2-0.7-0.5-0.9-0.8s-0.3-0.6-0.4-0.8c-0.1-0.3-0.1-0.6-0.1-0.9
		c0-0.8,0.4-1.5,1.1-2.1s1.6-0.9,2.7-0.9c1.1,0,2,0.3,2.8,0.8s1.2,1.3,1.2,2.4h-2.5c0-0.4-0.2-0.6-0.4-0.8c-0.3-0.2-0.6-0.3-1-0.3
		c-0.9,0-1.3,0.3-1.3,1c0,0.4,0.4,0.7,1.1,0.9l1.7,0.4c0.6,0.1,1,0.4,1.4,0.6c0.4,0.3,0.7,0.5,0.8,0.9c0.2,0.3,0.3,0.6,0.3,0.9
		c0.1,0.2,0.1,0.5,0.1,0.8c0,1-0.4,1.8-1.2,2.3s-1.8,0.8-3,0.8s-2-0.3-2.9-0.9c-0.8-0.6-1.2-1.5-1.3-2.5h2.5c0,0.4,0.2,0.7,0.6,0.9
		s0.8,0.4,1.3,0.4c0.4,0,0.7-0.1,1-0.3s0.4-0.4,0.4-0.7c0-0.2-0.1-0.5-0.2-0.6s-0.5-0.3-0.9-0.4L854.8,329.1L854.8,329.1z"/>
</g>
</svg>
