<?xml version="1.0" encoding="utf-8"?>
<!-- Generator: Adobe Illustrator 25.0.0, SVG Export Plug-In . SVG Version: 6.00 Build 0)  -->
<svg version="1.1" id="Calque_2" xmlns="http://www.w3.org/2000/svg" xmlns:xlink="http://www.w3.org/1999/xlink" x="0px" y="0px"
	 viewBox="0 0 1176 512" style="enable-background:new 0 0 1176 512;" xml:space="preserve">
<style type="text/css">
	.st0{fill:#6CB4DB;}
	.st1{fill:#434444;}
	.st2{fill:#434444;stroke:#434444;stroke-width:6;stroke-miterlimit:10;}
	.st3{fill:#FFFFFF;}
</style>
<polygon class="st0" points="25.2,24.2 83.4,24.2 201.9,175.9 82.4,328.1 22.1,328.1 142.6,176.1 "/>
<polygon class="st0" points="215.1,176.1 274.9,176.1 157.4,328.1 97.7,328.1 "/>
<polygon class="st0" points="288,176 348.7,176 227.2,327.9 348.7,480.1 288,480.1 169,327.9 285.4,178.8 "/>
<path class="st1" d="M377.3,176h63.3v54.1c-21.1,20.4-42.2,40.9-63.3,61.3c21.1,15.7,42.2,31.3,63.3,47v63.3h-63.3v-95V176z"/>
<path class="st0" d="M511.6,144.3"/>
<polygon class="st1" points="545.8,176 599.9,176 487.6,288.9 599.9,401.7 543.7,401.7 427.3,288.9 "/>
<polygon class="st1" points="662.2,176.1 766.4,328.1 766.4,176.1 826.6,176 826.6,232.2 775.6,288.9 826.6,350.6 826.6,404.8 
	766.4,404.8 662.2,256 662.2,337.4 599.9,401.7 599.9,176 "/>
<path class="st1" d="M883.6,212.3c18.4,26,36.8,52.1,55.1,78.1c-18.4,24-36.8,48-55.1,72l-56.9-72L883.6,212.3z"/>
<polygon class="st1" points="900.4,176 959.4,176 1026,251.3 996.9,287.3 "/>
<polygon class="st1" points="1050.6,288.9 1026,323.3 1091.9,404.8 1144,404.8 "/>
<polygon class="st1" points="996.2,290.4 1026,323.3 956.3,404.8 900.4,404.8 "/>
<polygon class="st1" points="1026,256 1050.6,288.9 1144,176 1085,176 "/>
<g>
	<g>
		<path class="st2" d="M383.2,438.1h10.2v54h-10.2V438.1z M386.9,438.1h31.7v9.8h-31.7V438.1z M386.9,460.9h27.6v9.8h-27.6V460.9z"
			/>
		<path class="st2" d="M465.9,492.1h-10.5v-54h10.5V492.1z"/>
		<path class="st2" d="M507.4,438.1h10.2v54h-10.2V438.1z M512,482.3h31.6v9.8H512V482.3z"/>
		<path class="st2" d="M581.4,438.1h10.2v54h-10.2V438.1z M585.1,438.1h32.5v9.8h-32.5V438.1z M585.1,460.4h28.4v9.8h-28.4V460.4z
			 M585.1,482.3h32.5v9.8h-32.5V482.3z"/>
		<path class="st2" d="M717.4,491.9c-2.5-0.5-4.8-1.3-6.9-2.3c-2.2-1-4.1-2.2-5.8-3.6l4.7-8.4c2.1,1.7,4.5,3,7.2,4
			c2.7,0.9,5.5,1.4,8.4,1.4c3.3,0,5.9-0.6,7.7-1.7c1.8-1.1,2.7-2.7,2.7-4.8v0c0-1.4-0.4-2.6-1.2-3.4c-0.8-0.8-1.9-1.5-3.2-1.9
			c-1.3-0.4-3-0.8-5-1.1c-0.1,0-0.1,0-0.2,0c-0.1,0-0.1,0-0.2,0l-0.8-0.1c-3.6-0.6-6.6-1.3-9-2.1s-4.4-2.3-6-4.5
			c-1.7-2.1-2.5-5.2-2.5-9.1v0c0-3.5,0.8-6.5,2.3-8.9c1.6-2.5,3.8-4.4,6.8-5.7s6.6-1.9,10.8-1.9c1.9,0,3.9,0.2,5.9,0.7
			c2,0.4,4,1.1,5.9,1.9c1.9,0.8,3.8,1.9,5.5,3l-4.3,8.6c-2.1-1.4-4.2-2.5-6.5-3.3c-2.3-0.8-4.4-1.2-6.5-1.2c-3.1,0-5.5,0.5-7.2,1.5
			c-1.7,1-2.6,2.5-2.6,4.3v0c0,1.6,0.4,2.8,1.3,3.7c0.9,0.9,2,1.6,3.3,2c1.3,0.4,3.2,0.9,5.5,1.3c0.1,0,0.2,0,0.3,0.1
			c0.1,0,0.2,0,0.3,0.1c0.1,0,0.3,0.1,0.4,0.1c0.1,0,0.3,0.1,0.4,0.1c3.4,0.7,6.3,1.5,8.6,2.4c2.3,1,4.2,2.5,5.7,4.6
			c1.5,2.1,2.3,5,2.3,8.7v0.1c0,3.4-0.8,6.4-2.4,8.8c-1.6,2.4-4,4.3-7,5.6c-3.1,1.3-6.8,1.9-11.1,1.9
			C722.4,492.7,719.9,492.4,717.4,491.9z"/>
		<path class="st2" d="M785.2,438.1h10.2v54h-10.2V438.1z M788.9,438.1h32.5v9.8h-32.5V438.1z M788.9,460.4h28.4v9.8h-28.4V460.4z
			 M788.9,482.3h32.5v9.8h-32.5V482.3z"/>
		<path class="st2" d="M868.9,490.3c-2.9-1.6-5.1-3.9-6.7-6.9c-1.5-3-2.3-6.6-2.3-10.9v-14.8c0-4.3,0.8-7.9,2.3-10.9
			c1.5-3,3.8-5.3,6.7-6.9c2.9-1.6,6.4-2.4,10.5-2.4c3.4,0,6.4,0.7,9.1,2.2c2.7,1.5,4.9,3.6,6.6,6.4s3,6.1,3.6,10.1h-10.5
			c-0.4-1.8-1-3.3-1.8-4.6c-0.8-1.3-1.8-2.2-3-2.9c-1.2-0.7-2.5-1-4-1c-1.9,0-3.5,0.4-4.9,1.2s-2.4,1.9-3.1,3.4
			c-0.7,1.5-1.1,3.3-1.1,5.4v14.8c0,2.1,0.4,3.9,1.1,5.4s1.7,2.6,3.1,3.4s3,1.2,4.9,1.2c1.5,0,2.8-0.3,4-1c1.2-0.7,2.2-1.6,3-2.9
			s1.4-2.8,1.8-4.6h10.5c-0.7,3.9-1.9,7.3-3.7,10.1s-3.9,4.9-6.6,6.4c-2.7,1.5-5.7,2.2-9.1,2.2C875.3,492.7,871.8,491.9,868.9,490.3
			z"/>
		<path class="st2" d="M946.7,490.3c-2.9-1.6-5.2-3.9-6.7-6.9c-1.5-3-2.3-6.6-2.3-10.9v-34.4h10.2v34.7c0,3.1,0.8,5.5,2.5,7.2
			c1.7,1.7,4,2.6,7,2.6c3,0,5.4-0.9,7.1-2.6s2.5-4.1,2.5-7.2v-34.7h10.2v34.4c0,4.2-0.8,7.8-2.3,10.9c-1.5,3-3.8,5.3-6.8,6.9
			c-3,1.6-6.5,2.4-10.7,2.4S949.7,491.9,946.7,490.3z"/>
		<path class="st2" d="M1018.7,438.1h10.2v54h-10.2V438.1z M1022.7,460.6h18.8c1,0,2-0.3,2.7-0.8c0.8-0.5,1.4-1.3,1.8-2.2
			c0.4-1,0.7-2.1,0.7-3.3c0-1.3-0.2-2.4-0.6-3.3c-0.4-1-1-1.7-1.8-2.2c-0.8-0.5-1.7-0.8-2.8-0.8h-18.8v-9.8h19.6c3,0,5.6,0.7,7.8,2
			c2.3,1.3,4,3.2,5.2,5.7c1.2,2.4,1.9,5.3,1.9,8.5c0,3.2-0.6,6-1.9,8.5c-1.2,2.4-3,4.3-5.3,5.7s-4.9,2-7.8,2h-19.6V460.6z
			 M1034.1,468.7l10.9-1.7l14.5,25.1h-12.3L1034.1,468.7z"/>
		<path class="st2" d="M1098.6,438.1h10.2v54h-10.2V438.1z M1102.3,438.1h32.5v9.8h-32.5V438.1z M1102.3,460.4h28.4v9.8h-28.4V460.4
			z M1102.3,482.3h32.5v9.8h-32.5V482.3z"/>
	</g>
</g>
<g>
	<g>
		<path class="st3" d="M101.1,234.3h5.8v30.5h-5.8V234.3z M104.5,252.9l12.2-18.6h7.2l-18.7,26.1L104.5,252.9z M109.6,249.4l5-3.1
			l10.7,18.6h-6.8L109.6,249.4z"/>
	</g>
</g>
<g>
	<g>
		<path class="st3" d="M181.9,234.3h5.8v30.5h-5.8V234.3z M184,234.3h18v5.5h-18V234.3z M184,247.2h15.6v5.5H184V247.2z"/>
	</g>
</g>
<g>
	<g>
		<path class="st3" d="M259.3,246.1l6.9-11.7h6.1l-10.1,17.3l-7.8,13.3h-6.1L259.3,246.1z M259.2,252.4l-0.6-1l-10.1-17h6.1
			l6.8,11.6l0.8,1.4l10.4,17.6h-6.1L259.2,252.4z"/>
	</g>
</g>
</svg>
